<?xml version="1.0" encoding="utf-8"?>
<!-- Generator: Adobe Illustrator 23.0.4, SVG Export Plug-In . SVG Version: 6.00 Build 0)  -->
<svg version="1.1" id="Layer_1" xmlns="http://www.w3.org/2000/svg" xmlns:xlink="http://www.w3.org/1999/xlink" x="0px" y="0px"
	 viewBox="0 0 1495 20" style="enable-background:new 0 0 1495 20;" xml:space="preserve">
<style type="text/css">
	.st0{filter:url(#Adobe_OpacityMaskFilter);}
	.st1{fill-rule:evenodd;clip-rule:evenodd;fill:#FFFFFF;}
	.st2{mask:url(#b_1_);fill-rule:evenodd;clip-rule:evenodd;fill:#3398BA;}
	.st3{filter:url(#Adobe_OpacityMaskFilter_1_);}
	.st4{mask:url(#d_1_);fill-rule:evenodd;clip-rule:evenodd;fill:#FFFFFF;}
	.st5{filter:url(#Adobe_OpacityMaskFilter_2_);}
	.st6{mask:url(#f_1_);fill-rule:evenodd;clip-rule:evenodd;fill:#E8753D;}
	.st7{filter:url(#Adobe_OpacityMaskFilter_3_);}
	.st8{mask:url(#h_1_);fill-rule:evenodd;clip-rule:evenodd;fill:#FFFFFF;}
	.st9{filter:url(#Adobe_OpacityMaskFilter_4_);}
	.st10{mask:url(#j_1_);fill-rule:evenodd;clip-rule:evenodd;fill:#494645;}
	.st11{filter:url(#Adobe_OpacityMaskFilter_5_);}
	.st12{mask:url(#l_1_);fill-rule:evenodd;clip-rule:evenodd;fill:#FFFFFF;}
	.st13{filter:url(#Adobe_OpacityMaskFilter_6_);}
	.st14{mask:url(#n_1_);fill-rule:evenodd;clip-rule:evenodd;fill:#F9DE4F;}
	.st15{filter:url(#Adobe_OpacityMaskFilter_7_);}
	.st16{mask:url(#p_1_);fill-rule:evenodd;clip-rule:evenodd;fill:#FFFFFF;}
	.st17{filter:url(#Adobe_OpacityMaskFilter_8_);}
	.st18{mask:url(#r_1_);fill-rule:evenodd;clip-rule:evenodd;fill:#E8753D;}
	.st19{filter:url(#Adobe_OpacityMaskFilter_9_);}
	.st20{mask:url(#t_1_);fill-rule:evenodd;clip-rule:evenodd;fill:#FFFFFF;}
	.st21{filter:url(#Adobe_OpacityMaskFilter_10_);}
	.st22{mask:url(#v_1_);fill-rule:evenodd;clip-rule:evenodd;fill:#494645;}
	.st23{filter:url(#Adobe_OpacityMaskFilter_11_);}
	.st24{mask:url(#x_1_);fill-rule:evenodd;clip-rule:evenodd;fill:#FFFFFF;}
	.st25{filter:url(#Adobe_OpacityMaskFilter_12_);}
	.st26{mask:url(#z_1_);fill-rule:evenodd;clip-rule:evenodd;fill:#F9DE4F;}
	.st27{filter:url(#Adobe_OpacityMaskFilter_13_);}
	.st28{mask:url(#B_1_);fill-rule:evenodd;clip-rule:evenodd;fill:#FFFFFF;}
	.st29{filter:url(#Adobe_OpacityMaskFilter_14_);}
	.st30{mask:url(#D_1_);fill-rule:evenodd;clip-rule:evenodd;fill:#3398BA;}
	.st31{filter:url(#Adobe_OpacityMaskFilter_15_);}
	.st32{mask:url(#F_1_);fill-rule:evenodd;clip-rule:evenodd;fill:#FFFFFF;}
	.st33{filter:url(#Adobe_OpacityMaskFilter_16_);}
	.st34{mask:url(#H_1_);fill-rule:evenodd;clip-rule:evenodd;fill:#494645;}
	.st35{filter:url(#Adobe_OpacityMaskFilter_17_);}
	.st36{mask:url(#J_1_);fill-rule:evenodd;clip-rule:evenodd;fill:#FFFFFF;}
	.st37{filter:url(#Adobe_OpacityMaskFilter_18_);}
	.st38{mask:url(#L_1_);fill-rule:evenodd;clip-rule:evenodd;fill:#E8753D;}
	.st39{filter:url(#Adobe_OpacityMaskFilter_19_);}
	.st40{mask:url(#N_1_);fill-rule:evenodd;clip-rule:evenodd;fill:#FFFFFF;}
	.st41{filter:url(#Adobe_OpacityMaskFilter_20_);}
	.st42{mask:url(#P_1_);fill-rule:evenodd;clip-rule:evenodd;fill:#F9DE4F;}
	.st43{filter:url(#Adobe_OpacityMaskFilter_21_);}
	.st44{mask:url(#R_1_);fill-rule:evenodd;clip-rule:evenodd;fill:#FFFFFF;}
	.st45{filter:url(#Adobe_OpacityMaskFilter_22_);}
	.st46{mask:url(#T_1_);fill-rule:evenodd;clip-rule:evenodd;fill:#3398BA;}
	.st47{filter:url(#Adobe_OpacityMaskFilter_23_);}
	.st48{mask:url(#V_1_);fill-rule:evenodd;clip-rule:evenodd;fill:#FFFFFF;}
	.st49{filter:url(#Adobe_OpacityMaskFilter_24_);}
	.st50{mask:url(#X_1_);fill-rule:evenodd;clip-rule:evenodd;fill:#43558A;}
	.st51{filter:url(#Adobe_OpacityMaskFilter_25_);}
	.st52{mask:url(#Z_1_);fill-rule:evenodd;clip-rule:evenodd;fill:#FFFFFF;}
	.st53{filter:url(#Adobe_OpacityMaskFilter_26_);}
	.st54{mask:url(#ab_1_);fill-rule:evenodd;clip-rule:evenodd;fill:#E8753D;}
	.st55{filter:url(#Adobe_OpacityMaskFilter_27_);}
	.st56{mask:url(#ad_1_);fill-rule:evenodd;clip-rule:evenodd;fill:#FFFFFF;}
	.st57{filter:url(#Adobe_OpacityMaskFilter_28_);}
	.st58{mask:url(#af_1_);fill-rule:evenodd;clip-rule:evenodd;fill:#494645;}
	.st59{filter:url(#Adobe_OpacityMaskFilter_29_);}
	.st60{mask:url(#ah_1_);fill-rule:evenodd;clip-rule:evenodd;fill:#FFFFFF;}
	.st61{filter:url(#Adobe_OpacityMaskFilter_30_);}
	.st62{mask:url(#aj_1_);fill-rule:evenodd;clip-rule:evenodd;fill:#3C4C63;}
	.st63{filter:url(#Adobe_OpacityMaskFilter_31_);}
	.st64{mask:url(#al_1_);fill-rule:evenodd;clip-rule:evenodd;fill:#FFFFFF;}
</style>
<g>
	<g transform="translate(103)">
		<defs>
			<filter id="Adobe_OpacityMaskFilter" filterUnits="userSpaceOnUse" x="0.2" y="-6.1" width="66.6" height="32.3">
				<feColorMatrix  type="matrix" values="1 0 0 0 0  0 1 0 0 0  0 0 1 0 0  0 0 0 1 0"/>
			</filter>
		</defs>
		<mask maskUnits="userSpaceOnUse" x="0.2" y="-6.1" width="66.6" height="32.3" id="b_1_">
			<g class="st0">
				<path id="a_1_" class="st1" d="M0.2,0.3h66.6v19.1H0.2V0.3z"/>
			</g>
		</mask>
		<path class="st2" d="M0.2,26.2l0.4-3.9C1.3,13.9,1.2,5.5,0.9-2.4L0.8-6.1h54.9l0.9,2.3c2.2,5.8,4.1,11.7,6,17.4
			c0.8,2.6,1.7,5.2,2.6,7.8l1.6,4.8L0.2,26.2L0.2,26.2z"/>
	</g>
	<g transform="translate(98)">
		<defs>
			<filter id="Adobe_OpacityMaskFilter_1_" filterUnits="userSpaceOnUse" x="0.2" y="-9.7" width="75.8" height="39.5">
				<feColorMatrix  type="matrix" values="1 0 0 0 0  0 1 0 0 0  0 0 1 0 0  0 0 0 1 0"/>
			</filter>
		</defs>
		<mask maskUnits="userSpaceOnUse" x="0.2" y="-9.7" width="75.8" height="39.5" id="d_1_">
			<g class="st3">
				<path id="c_1_" class="st1" d="M0.2,0.3H76v19.1H0.2V0.3z"/>
			</g>
		</mask>
		<path class="st4" d="M62.4-9.7H1.1l0.2,7.4c0.2,7.7,0.4,16-0.4,24.2l-0.7,7.9H76l-3.2-9.5c-0.9-2.6-1.7-5.2-2.6-7.8
			C68.3,6.8,66.3,0.8,64.1-5L62.4-9.7z M57.4-2.5c3.1,8.2,5.7,16.7,8.5,25.1H8.1C8.9,14.1,8.8,5.8,8.5-2.5
			C8.5-2.5,57.4-2.5,57.4-2.5z"/>
	</g>
	<g>
		<defs>
			<filter id="Adobe_OpacityMaskFilter_2_" filterUnits="userSpaceOnUse" x="-3.6" y="-6.1" width="98.1" height="32.3">
				<feColorMatrix  type="matrix" values="1 0 0 0 0  0 1 0 0 0  0 0 1 0 0  0 0 0 1 0"/>
			</filter>
		</defs>
		<mask maskUnits="userSpaceOnUse" x="-3.6" y="-6.1" width="98.1" height="32.3" id="f_1_">
			<g class="st5">
				<path id="e_1_" class="st1" d="M0,0.3h94.5v19.1H0V0.3z"/>
			</g>
		</mask>
		<path class="st6" d="M-3.6,26.2V-6.1h92.4l0.6,2.9C91,4.6,92.5,12.9,93.9,22l0.6,4.1L-3.6,26.2L-3.6,26.2z"/>
	</g>
	<g>
		<defs>
			<filter id="Adobe_OpacityMaskFilter_3_" filterUnits="userSpaceOnUse" x="-7.3" y="-9.7" width="106.9" height="39.5">
				<feColorMatrix  type="matrix" values="1 0 0 0 0  0 1 0 0 0  0 0 1 0 0  0 0 0 1 0"/>
			</filter>
		</defs>
		<mask maskUnits="userSpaceOnUse" x="-7.3" y="-9.7" width="106.9" height="39.5" id="h_1_">
			<g class="st7">
				<path id="g_1_" class="st1" d="M0,0.3h99.7v19.1H0V0.3z"/>
			</g>
		</mask>
		<path class="st8" d="M92.6-9.7H-7.3v39.5H99.7l-1.3-8.3C97,12.3,95.5,3.9,93.8-4L92.6-9.7L92.6-9.7z M86.7-2.5
			c1.8,8.3,3.2,16.7,4.5,25.1H0V-2.5C0-2.5,86.7-2.5,86.7-2.5z"/>
	</g>
	<g transform="translate(81)">
		<defs>
			<filter id="Adobe_OpacityMaskFilter_4_" filterUnits="userSpaceOnUse" x="0.8" y="-6.1" width="28.7" height="32.3">
				<feColorMatrix  type="matrix" values="1 0 0 0 0  0 1 0 0 0  0 0 1 0 0  0 0 0 1 0"/>
			</filter>
		</defs>
		<mask maskUnits="userSpaceOnUse" x="0.8" y="-6.1" width="28.7" height="32.3" id="j_1_">
			<g class="st9">
				<path id="i_1_" class="st1" d="M0.8,0.3h28.7v19.1H0.8V0.3z"/>
			</g>
		</mask>
		<path class="st10" d="M6.7,26.2l-0.5-3.1C4.8,14.1,3.4,6,1.7-1.8L0.8-6.1h28.4l0.1,3.5c0.3,8.1,0.4,16.8-0.5,25.5l-0.3,3.3
			L6.7,26.2L6.7,26.2z"/>
	</g>
	<g transform="translate(77)">
		<defs>
			<filter id="Adobe_OpacityMaskFilter_5_" filterUnits="userSpaceOnUse" x="0.4" y="-9.7" width="36.6" height="39.5">
				<feColorMatrix  type="matrix" values="1 0 0 0 0  0 1 0 0 0  0 0 1 0 0  0 0 0 1 0"/>
			</filter>
		</defs>
		<mask maskUnits="userSpaceOnUse" x="0.4" y="-9.7" width="36.6" height="39.5" id="l_1_">
			<g class="st11">
				<path id="k_1_" class="st1" d="M0.4,0.3h36.6v19.1H0.4V0.3z"/>
			</g>
		</mask>
		<path class="st12" d="M36.5-9.7H0.4L2.2-1c1.6,7.6,3.1,15.7,4.4,24.7l0.9,6.1h28.1l0.6-6.5c0.8-9,0.7-17.8,0.5-26
			C36.7-2.7,36.5-9.7,36.5-9.7z M29.5-2.5c0.3,8.3,0.4,16.6-0.4,25.1H13.8C12.5,14.2,11,5.8,9.3-2.5C9.3-2.5,29.5-2.5,29.5-2.5z"/>
	</g>
	<g transform="translate(183)">
		<defs>
			<filter id="Adobe_OpacityMaskFilter_6_" filterUnits="userSpaceOnUse" x="0.5" y="-6.1" width="183.1" height="32.3">
				<feColorMatrix  type="matrix" values="1 0 0 0 0  0 1 0 0 0  0 0 1 0 0  0 0 0 1 0"/>
			</filter>
		</defs>
		<mask maskUnits="userSpaceOnUse" x="0.5" y="-6.1" width="183.1" height="32.3" id="n_1_">
			<g class="st13">
				<path id="m_1_" class="st1" d="M0.5,0.3h183.1v19.1H0.5L0.5,0.3z"/>
			</g>
		</mask>
		<path class="st14" d="M3.6,26.2l-0.9-2.4C0.1,16.7,0.4,8.7,0.7,1c0-1.2,0.1-2.4,0.1-3.6l0.1-3.5H170l2,4.9c3,7.4,6,15,9.3,22.4
			l2.3,5.1L3.6,26.2L3.6,26.2z"/>
	</g>
	<g transform="translate(179)">
		<defs>
			<filter id="Adobe_OpacityMaskFilter_7_" filterUnits="userSpaceOnUse" x="0.9" y="-9.7" width="192.5" height="39.5">
				<feColorMatrix  type="matrix" values="1 0 0 0 0  0 1 0 0 0  0 0 1 0 0  0 0 0 1 0"/>
			</filter>
		</defs>
		<mask maskUnits="userSpaceOnUse" x="0.9" y="-9.7" width="192.5" height="39.5" id="p_1_">
			<g class="st15">
				<path id="o_1_" class="st1" d="M0.9,0.3h192.5v19.1H0.9V0.3z"/>
			</g>
		</mask>
		<path class="st16" d="M176.6-9.7H1.4l-0.2,7c0,1.2-0.1,2.4-0.1,3.6C0.8,8.9,0.4,17.2,3.3,25.1l1.7,4.7h188.3l-4.6-10.1
			c-3.3-7.3-6.3-14.9-9.3-22.2l-1.1-2.6L176.6-9.7L176.6-9.7z M171.7-2.5c3.4,8.4,6.7,16.8,10.5,25.1H10.1C7.4,15.1,8.2,6.2,8.4-2.5
			C8.4-2.5,171.7-2.5,171.7-2.5z"/>
	</g>
	<g transform="translate(991)">
		<defs>
			<filter id="Adobe_OpacityMaskFilter_8_" filterUnits="userSpaceOnUse" x="1.7" y="-6.1" width="109.8" height="32.3">
				<feColorMatrix  type="matrix" values="1 0 0 0 0  0 1 0 0 0  0 0 1 0 0  0 0 0 1 0"/>
			</filter>
		</defs>
		<mask maskUnits="userSpaceOnUse" x="1.7" y="-6.1" width="109.8" height="32.3" id="r_1_">
			<g class="st17">
				<path id="q_1_" class="st1" d="M1.7,0.3h109.8v19.1H1.7L1.7,0.3z"/>
			</g>
		</mask>
		<path class="st18" d="M16.7,26.2l-1.9-2.9l-0.1-0.2c-0.7-1.5-2.1-3.5-2.5-3.9L11.9,19l-0.2-0.3c-4-5.7-5.9-12-7.7-17.6
			C3.8,0.3,3.5-0.6,3.2-1.4L1.7-6.1h109.8L111-2c0,0.3-0.1,0.5-0.1,0.8l-0.6,3.9l-1.3-0.3c-0.5,1.7-1.8,3.5-4.9,3.5h-0.2l-0.2,0
			c-0.5-0.1-1-0.1-1.5-0.1c-4.4,0-8.1,2.5-12.1,5.1L89.8,11l-0.2,0.1c-1,0.5-2,1.1-3,1.7c-2.1,1.2-4.3,2.5-6.7,3.2
			c-1.4,1.1-3,3.2-3.6,6c-0.3,2.7-3.1,3.5-4.1,3.8c-0.2,0.1-0.4,0.1-0.6,0.2l-0.6,0.2L16.7,26.2L16.7,26.2z"/>
	</g>
	<g transform="translate(986)">
		<defs>
			<filter id="Adobe_OpacityMaskFilter_9_" filterUnits="userSpaceOnUse" x="1.6" y="-9.7" width="119.1" height="39.5">
				<feColorMatrix  type="matrix" values="1 0 0 0 0  0 1 0 0 0  0 0 1 0 0  0 0 0 1 0"/>
			</filter>
		</defs>
		<mask maskUnits="userSpaceOnUse" x="1.6" y="-9.7" width="119.1" height="39.5" id="t_1_">
			<g class="st19">
				<path id="s_1_" class="st1" d="M1.6,0.3h119.1v19.1H1.6V0.3z"/>
			</g>
		</mask>
		<path class="st20" d="M120.7-9.7H1.6l3,9.4c0.3,0.8,0.5,1.7,0.8,2.5C7.2,8,9.3,14.6,13.6,20.8l0.4,0.5l0.4,0.4
			c0.4,0.5,1.5,2,1.9,3l0.2,0.4l0.3,0.4c0.2,0.4,0.5,0.7,0.7,1.1l0,0l2.2,3.2h56.9l1.2-0.4c0.1,0,0.2-0.1,0.3-0.1
			c0.6-0.2,1.4-0.4,2.2-0.8c2.4-1.2,4.1-3.3,4.5-5.8c0.4-1.6,1.2-2.8,1.9-3.5c2.5-0.9,4.7-2.1,6.7-3.3c1-0.6,1.9-1.1,2.8-1.6
			l0.4-0.2l0.4-0.2c3.7-2.4,6.8-4.5,10.1-4.5c0.4,0,0.7,0,1.1,0.1l0.4,0.1h0.5c2,0,4.8-0.7,6.7-2.9l2.5,0.6l1.2-7.8
			c0-0.3,0.1-0.6,0.1-0.9L120.7-9.7L120.7-9.7z M112.4-2.5c0,0.3-0.1,0.5-0.1,0.8c-0.2-0.1-0.4-0.1-0.6-0.1c-2.1,0,0.4,4.1-2.6,4.1
			c-0.7-0.1-1.3-0.1-2-0.1c-5.5,0-9.8,2.9-14.1,5.7c-3.2,1.6-6.4,4-9.7,4.8c-2.4,1.6-4.8,4.8-5.6,8.8c0,0.6-1.4,0.8-2.4,1.1H23.5
			c-0.3-0.4-0.5-0.8-0.8-1.1c-0.8-1.6-2.4-4-3.2-4.8c-4.2-6-6-12.9-8-19.2L112.4-2.5L112.4-2.5z"/>
	</g>
	<g transform="translate(920)">
		<defs>
			<filter id="Adobe_OpacityMaskFilter_10_" filterUnits="userSpaceOnUse" x="1.5" y="-6.1" width="94" height="32.3">
				<feColorMatrix  type="matrix" values="1 0 0 0 0  0 1 0 0 0  0 0 1 0 0  0 0 0 1 0"/>
			</filter>
		</defs>
		<mask maskUnits="userSpaceOnUse" x="1.5" y="-6.1" width="94" height="32.3" id="v_1_">
			<g class="st21">
				<path id="u_1_" class="st1" d="M1.5,0.3h94v19.1h-94V0.3z"/>
			</g>
		</mask>
		<path class="st22" d="M1.5,26.2l7-6.3c8.3-7.4,15.2-15.6,20.7-24.3l1.1-1.7h49.2l0.8,2.5c0.3,0.9,0.5,1.7,0.8,2.6
			c1.6,5.2,3.3,10.7,6.5,15.4c1.1,1.2,2.7,3.6,3.5,5.2l4.3,6.5L1.5,26.2L1.5,26.2z"/>
	</g>
	<g transform="translate(911)">
		<defs>
			<filter id="Adobe_OpacityMaskFilter_11_" filterUnits="userSpaceOnUse" x="1.7" y="-9.7" width="111.1" height="39.5">
				<feColorMatrix  type="matrix" values="1 0 0 0 0  0 1 0 0 0  0 0 1 0 0  0 0 0 1 0"/>
			</filter>
		</defs>
		<mask maskUnits="userSpaceOnUse" x="1.7" y="-9.7" width="111.1" height="39.5" id="x_1_">
			<g class="st23">
				<path id="w_1_" class="st1" d="M1.7,0.3h111.1v19.1H1.7V0.3z"/>
			</g>
		</mask>
		<path class="st24" d="M92.6-9.7H38.3l-2.1,3.4C30.7,2.1,23.9,10,15.8,17.2L1.7,29.8h111.1l-7.5-11.2l-0.5-0.8
			c-0.9-1.6-2.4-4-3.8-5.6C98.2,8,96.6,3.1,95-2c-0.3-0.9-0.5-1.8-0.8-2.6L92.6-9.7L92.6-9.7z M87.3-2.5c2,6.3,3.8,13.1,8,19.2
			c0.8,0.8,2.4,3.2,3.2,4.8l0.8,1.1H20.7C29,15.2,36.3,6.8,42.3-2.5C42.3-2.5,87.3-2.5,87.3-2.5z"/>
	</g>
	<g transform="translate(765)">
		<defs>
			<filter id="Adobe_OpacityMaskFilter_12_" filterUnits="userSpaceOnUse" x="1.4" y="-6.1" width="193.1" height="32.3">
				<feColorMatrix  type="matrix" values="1 0 0 0 0  0 1 0 0 0  0 0 1 0 0  0 0 0 1 0"/>
			</filter>
		</defs>
		<mask maskUnits="userSpaceOnUse" x="1.4" y="-6.1" width="193.1" height="32.3" id="z_1_">
			<g class="st25">
				<path id="y_1_" class="st1" d="M1.4,0.3h193.1v19.1H1.4V0.3z"/>
			</g>
		</mask>
		<path class="st26" d="M20.7,26.2l-1.1-1.4c-4.4-5.6-7.9-12.2-11.3-18.6C7,3.9,5.7,1.5,4.5-0.7l-3-5.4h193.1L191-0.6
			c-5.9,9.3-13.3,18-22.1,25.8l-1,0.9L20.7,26.2L20.7,26.2z"/>
	</g>
	<g transform="translate(759)">
		<defs>
			<filter id="Adobe_OpacityMaskFilter_13_" filterUnits="userSpaceOnUse" x="0.9" y="-9.7" width="205.8" height="39.5">
				<feColorMatrix  type="matrix" values="1 0 0 0 0  0 1 0 0 0  0 0 1 0 0  0 0 0 1 0"/>
			</filter>
		</defs>
		<mask maskUnits="userSpaceOnUse" x="0.9" y="-9.7" width="205.8" height="39.5" id="B_1_">
			<g class="st27">
				<path id="A_1_" class="st1" d="M0.9,0.3h205.8v19.1H0.9L0.9,0.3z"/>
			</g>
		</mask>
		<path class="st28" d="M206.6-9.7H0.9L6.9,1c1.3,2.3,2.5,4.6,3.7,6.9c3.5,6.5,7.1,13.3,11.7,19.1l2.2,2.8h150.3l2.1-1.8
			c9-8.1,16.7-17,22.8-26.6L206.6-9.7L206.6-9.7z M193.5-2.5c-5.9,9.3-13.2,17.7-21.5,25.1H28c-5.8-7.3-10-16.4-14.8-25.1
			C13.2-2.5,193.5-2.5,193.5-2.5z"/>
	</g>
	<g transform="translate(1039)">
		<defs>
			<filter id="Adobe_OpacityMaskFilter_14_" filterUnits="userSpaceOnUse" x="1.8" y="-6.1" width="153.4" height="32.3">
				<feColorMatrix  type="matrix" values="1 0 0 0 0  0 1 0 0 0  0 0 1 0 0  0 0 0 1 0"/>
			</filter>
		</defs>
		<mask maskUnits="userSpaceOnUse" x="1.8" y="-6.1" width="153.4" height="32.3" id="D_1_">
			<g class="st29">
				<path id="C_1_" class="st1" d="M1.8,0.3h153.4v19.1H1.8V0.3z"/>
			</g>
		</mask>
		<path class="st30" d="M1.8,26.2l19-7c0.2-0.1,0.3-0.1,0.5-0.2c1.2-3.8,3.7-7.3,6.8-9.4l0.5-0.3l0.6-0.2c1.6-0.4,3.5-1.5,5.5-2.6
			c1-0.6,2.1-1.2,3.2-1.8c4.4-2.9,9.5-6.2,16-6.2H54c0.1-0.3,0.1-0.7,0.3-1.1c0.3-0.9,0.9-1.6,1.6-2.1l0.2-1.4h79.6l1,2.1
			c3.4,7.6,8.2,15.6,14.5,24.5l4.1,5.7L1.8,26.2L1.8,26.2z"/>
	</g>
	<g transform="translate(1019)">
		<defs>
			<filter id="Adobe_OpacityMaskFilter_15_" filterUnits="userSpaceOnUse" x="1.7" y="-9.7" width="180.3" height="39.5">
				<feColorMatrix  type="matrix" values="1 0 0 0 0  0 1 0 0 0  0 0 1 0 0  0 0 0 1 0"/>
			</filter>
		</defs>
		<mask maskUnits="userSpaceOnUse" x="1.7" y="-9.7" width="180.3" height="39.5" id="F_1_">
			<g class="st31">
				<path id="E_1_" class="st1" d="M1.7,0.3H182v19.1H1.7V0.3z"/>
			</g>
		</mask>
		<path class="st32" d="M157.8-9.7H72.9l-0.5,3.3c-0.4,0.5-0.8,1-1.1,1.5c-6.2,0.7-11.2,3.9-15.2,6.6C55,2.2,54,2.8,52.9,3.4
			c-1.7,1-3.4,2-4.5,2.3L47.2,6l-1,0.7c-3.3,2.2-6,5.6-7.6,9.6L1.7,29.8H182l-8.1-11.4c-6.2-8.7-10.8-16.5-14.1-23.9L157.8-9.7z
			 M153.1-2.5c4,8.8,9.2,17.2,14.8,25.1H42.1c1-0.4,2.4-0.5,2.4-1.1c0.8-4,3.2-7.2,5.6-8.8c3.2-0.8,6.4-3.2,9.7-4.8
			c4.3-2.9,8.6-5.7,14.1-5.7c0.6,0,1.3,0,2,0.1c3,0,0.5-4.1,2.6-4.1c0.2,0,0.4,0,0.6,0.1c0-0.2,0.1-0.5,0.1-0.8
			C79.2-2.5,153.1-2.5,153.1-2.5z"/>
	</g>
	<g transform="translate(1165)">
		<defs>
			<filter id="Adobe_OpacityMaskFilter_16_" filterUnits="userSpaceOnUse" x="1.9" y="-6.1" width="135.1" height="32.3">
				<feColorMatrix  type="matrix" values="1 0 0 0 0  0 1 0 0 0  0 0 1 0 0  0 0 0 1 0"/>
			</filter>
		</defs>
		<mask maskUnits="userSpaceOnUse" x="1.9" y="-6.1" width="135.1" height="32.3" id="H_1_">
			<g class="st33">
				<path id="G_1_" class="st1" d="M1.9,0.3h135.1v19.1H1.9V0.3z"/>
			</g>
		</mask>
		<path class="st34" d="M20.4,26.2l-1.1-1.5C12.7,15.4,7.8,7,4.2-1L1.9-6.1h135.1l-1.7,4.8c-3.3,9.3-7.1,17.9-11.2,25.6l-1,1.9
			L20.4,26.2L20.4,26.2z"/>
	</g>
	<g transform="translate(1159)">
		<defs>
			<filter id="Adobe_OpacityMaskFilter_17_" filterUnits="userSpaceOnUse" x="2" y="-9.7" width="146.6" height="39.5">
				<feColorMatrix  type="matrix" values="1 0 0 0 0  0 1 0 0 0  0 0 1 0 0  0 0 0 1 0"/>
			</filter>
		</defs>
		<mask maskUnits="userSpaceOnUse" x="2" y="-9.7" width="146.6" height="39.5" id="J_1_">
			<g class="st35">
				<path id="I_1_" class="st1" d="M2,0.3h146.6v19.1H2L2,0.3z"/>
			</g>
		</mask>
		<path class="st36" d="M148.6-9.7H2L6.5,0.4c3.7,8.3,8.8,16.9,15.5,26.3l2.2,3h107.3l2.1-3.8c4.2-7.8,8.1-16.6,11.5-26.1L148.6-9.7
			L148.6-9.7z M138.3-2.5c-3.1,8.6-6.7,17.1-11.1,25.1H28C22.3,14.7,17.1,6.3,13.2-2.5L138.3-2.5L138.3-2.5z"/>
	</g>
	<g transform="translate(1385)">
		<defs>
			<filter id="Adobe_OpacityMaskFilter_18_" filterUnits="userSpaceOnUse" x="2.1" y="-6.1" width="112.8" height="32.3">
				<feColorMatrix  type="matrix" values="1 0 0 0 0  0 1 0 0 0  0 0 1 0 0  0 0 0 1 0"/>
			</filter>
		</defs>
		<mask maskUnits="userSpaceOnUse" x="2.1" y="-6.1" width="112.8" height="32.3" id="L_1_">
			<g class="st37">
				<path id="K_1_" class="st1" d="M2.1,0.3h109.2v19.1H2.1V0.3z"/>
			</g>
		</mask>
		<path class="st38" d="M14.3,26.2l-1-1.8c-5.8-9.9-9-18-10.5-26.3L2.1-6.1h112.8v32.3L14.3,26.2L14.3,26.2z"/>
	</g>
	<g transform="translate(1380)">
		<defs>
			<filter id="Adobe_OpacityMaskFilter_19_" filterUnits="userSpaceOnUse" x="1.8" y="-9.7" width="121.7" height="39.5">
				<feColorMatrix  type="matrix" values="1 0 0 0 0  0 1 0 0 0  0 0 1 0 0  0 0 0 1 0"/>
			</filter>
		</defs>
		<mask maskUnits="userSpaceOnUse" x="1.8" y="-9.7" width="121.7" height="39.5" id="N_1_">
			<g class="st39">
				<path id="M_1_" class="st1" d="M1.8,0.3h114.4v19.1H1.8L1.8,0.3z"/>
			</g>
		</mask>
		<path class="st40" d="M123.5-9.7H1.8l1.5,8.5c1.6,8.7,5,17.2,11,27.4l2.1,3.6h107.1V-9.7z M116.2-2.5v25.1H20.6
			c-4.7-7.9-8.5-16.1-10.1-25.1L116.2-2.5L116.2-2.5z"/>
	</g>
	<g transform="translate(1278)">
		<defs>
			<filter id="Adobe_OpacityMaskFilter_20_" filterUnits="userSpaceOnUse" x="2.1" y="-6.1" width="127.9" height="32.3">
				<feColorMatrix  type="matrix" values="1 0 0 0 0  0 1 0 0 0  0 0 1 0 0  0 0 0 1 0"/>
			</filter>
		</defs>
		<mask maskUnits="userSpaceOnUse" x="2.1" y="-6.1" width="127.9" height="32.3" id="P_1_">
			<g class="st41">
				<path id="O_1_" class="st1" d="M2.1,0.3H130v19.1H2.1V0.3z"/>
			</g>
		</mask>
		<path class="st42" d="M2.1,26.2L5,20.9c4-7.3,7.6-15.6,10.9-24.6l0.9-2.4h99.9l0.5,3c1.3,7.4,4.3,14.8,9.7,23.9l3.2,5.4L2.1,26.2
			L2.1,26.2z"/>
	</g>
	<g transform="translate(1272)">
		<defs>
			<filter id="Adobe_OpacityMaskFilter_21_" filterUnits="userSpaceOnUse" x="1.7" y="-9.7" width="140.2" height="39.5">
				<feColorMatrix  type="matrix" values="1 0 0 0 0  0 1 0 0 0  0 0 1 0 0  0 0 0 1 0"/>
			</filter>
		</defs>
		<mask maskUnits="userSpaceOnUse" x="1.7" y="-9.7" width="140.2" height="39.5" id="R_1_">
			<g class="st43">
				<path id="Q_1_" class="st1" d="M1.7,0.3h140.2v19.1H1.7V0.3z"/>
			</g>
		</mask>
		<path class="st44" d="M125.3-9.7H19.8l-1.7,4.8C14.9,3.9,11.3,12,7.4,19.2L1.7,29.8h140.2L135.6,19c-5.1-8.8-8-15.8-9.2-22.7
			C126.3-3.8,125.3-9.7,125.3-9.7z M119.2-2.5c1.6,9,5.5,17.2,10.1,25.1H13.8c4.4-8,8-16.5,11.1-25.1C24.9-2.5,119.2-2.5,119.2-2.5z
			"/>
	</g>
	<g transform="translate(661)">
		<defs>
			<filter id="Adobe_OpacityMaskFilter_22_" filterUnits="userSpaceOnUse" x="1" y="-6.1" width="65.1" height="32.3">
				<feColorMatrix  type="matrix" values="1 0 0 0 0  0 1 0 0 0  0 0 1 0 0  0 0 0 1 0"/>
			</filter>
		</defs>
		<mask maskUnits="userSpaceOnUse" x="1" y="-6.1" width="65.1" height="32.3" id="T_1_">
			<g class="st45">
				<path id="S_1_" class="st1" d="M1,0.3h65.1v19.1H1V0.3z"/>
			</g>
		</mask>
		<path class="st46" d="M21.2,26.2l-1-1C13,18.4,4.4,9.3,2-1.7L1-6.1h65.1l-0.3,3.8c-0.2,3-0.6,5.8-1.2,8.5
			C63,12.6,60.8,18.5,58,24.2l-1,2L21.2,26.2L21.2,26.2z"/>
	</g>
	<g transform="translate(656)">
		<defs>
			<filter id="Adobe_OpacityMaskFilter_23_" filterUnits="userSpaceOnUse" x="1.3" y="-9.7" width="73.7" height="39.5">
				<feColorMatrix  type="matrix" values="1 0 0 0 0  0 1 0 0 0  0 0 1 0 0  0 0 0 1 0"/>
			</filter>
		</defs>
		<mask maskUnits="userSpaceOnUse" x="1.3" y="-9.7" width="73.7" height="39.5" id="V_1_">
			<g class="st47">
				<path id="U_1_" class="st1" d="M1.3,0.3H75v19.1H1.3V0.3z"/>
			</g>
		</mask>
		<path class="st48" d="M75-9.7H1.3L3.3-1c2.7,12,11.7,21.6,19.3,28.8l2.1,2h39.5l2-4c3-5.9,5.3-12.2,6.9-18.6l0-0.1l0-0.1
			c0.7-2.9,1.1-5.8,1.3-9.1L75-9.7z M67.2-2.5c-0.2,2.6-0.5,5.3-1.2,8c-1.5,5.9-3.6,11.7-6.4,17.1H27.5C19.4,15,12.4,6.8,10.4-2.5
			L67.2-2.5L67.2-2.5z"/>
	</g>
	<g transform="translate(515)">
		<defs>
			<filter id="Adobe_OpacityMaskFilter_24_" filterUnits="userSpaceOnUse" x="1.2" y="-6.1" width="183" height="39.3">
				<feColorMatrix  type="matrix" values="1 0 0 0 0  0 1 0 0 0  0 0 1 0 0  0 0 0 1 0"/>
			</filter>
		</defs>
		<mask maskUnits="userSpaceOnUse" x="1.2" y="-6.1" width="183" height="39.3" id="X_1_">
			<g class="st49">
				<path id="W_1_" class="st1" d="M1.2,0.3h183v19.1H1.2V0.3z"/>
			</g>
		</mask>
		<path class="st50" d="M1.2,33.2l1.2-4.5c0.2-0.8,0.4-1.5,0.6-2.3C5,17.6,8.8,7.7,14.6-4.1l1-2h144.1l0.6,2.9
			c2.3,12,11,22.5,18.3,30.3l5.6,6H1.2z"/>
	</g>
	<g transform="translate(510)">
		<defs>
			<filter id="Adobe_OpacityMaskFilter_25_" filterUnits="userSpaceOnUse" x="1.3" y="-9.7" width="196.2" height="46.5">
				<feColorMatrix  type="matrix" values="1 0 0 0 0  0 1 0 0 0  0 0 1 0 0  0 0 0 1 0"/>
			</filter>
		</defs>
		<mask maskUnits="userSpaceOnUse" x="1.3" y="-9.7" width="196.2" height="46.5" id="Z_1_">
			<g class="st51">
				<path id="Y_1_" class="st1" d="M1.3,0.3h196.2v19.1H1.3L1.3,0.3z"/>
			</g>
		</mask>
		<path class="st52" d="M167.6-9.7H18.1l-2,4.1c-5.9,12-9.7,22.2-11.9,31.1l0,0.1l0,0.1c-0.2,0.7-0.3,1.5-0.5,2.2l-2.4,9h196.2
			l-11.3-12.1c-7-7.5-15.3-17.5-17.4-28.6L167.6-9.7z M161.6-2.5c2.3,11.9,10.2,22.4,19.2,32.1H10.7c0.2-0.8,0.4-1.6,0.6-2.5
			c2.3-9.4,6.4-19.4,11.4-29.6L161.6-2.5L161.6-2.5z"/>
	</g>
	<g transform="translate(345)">
		<defs>
			<filter id="Adobe_OpacityMaskFilter_26_" filterUnits="userSpaceOnUse" x="0.7" y="-6.1" width="204.2" height="32.3">
				<feColorMatrix  type="matrix" values="1 0 0 0 0  0 1 0 0 0  0 0 1 0 0  0 0 0 1 0"/>
			</filter>
		</defs>
		<mask maskUnits="userSpaceOnUse" x="0.7" y="-6.1" width="204.2" height="32.3" id="ab_1_">
			<g class="st53">
				<path id="aa_1_" class="st1" d="M0.7,0.3h204.2v19.1H0.7V0.3z"/>
			</g>
		</mask>
		<path class="st54" d="M14.2,26.2l-1-2.1C9.8,16.6,6.7,8.9,3.8,1.4l-3-7.5h204.2l-3,5.3c-4.9,8.8-8.1,16.1-9.8,22.4
			c-0.2,0.6-0.4,1.3-0.6,2l-0.8,2.6L14.2,26.2L14.2,26.2z"/>
	</g>
	<g transform="translate(339)">
		<defs>
			<filter id="Adobe_OpacityMaskFilter_27_" filterUnits="userSpaceOnUse" x="1" y="-9.7" width="215.4" height="39.5">
				<feColorMatrix  type="matrix" values="1 0 0 0 0  0 1 0 0 0  0 0 1 0 0  0 0 0 1 0"/>
			</filter>
		</defs>
		<mask maskUnits="userSpaceOnUse" x="1" y="-9.7" width="215.4" height="39.5" id="ad_1_">
			<g class="st55">
				<path id="ac_1_" class="st1" d="M1,0.3h215.4v19.1H1L1,0.3z"/>
			</g>
		</mask>
		<path class="st56" d="M216.4-9.7H1l4,9.9l1,2.6c3,7.5,6.1,15.2,9.5,22.7l1.9,4.3h181.5l1.5-5.1c0.2-0.7,0.4-1.4,0.6-2.2
			c1.7-6,4.7-13,9.4-21.5L216.4-9.7L216.4-9.7z M204.1-2.5c-4.4,8-8.1,15.8-10.1,23.2c-0.2,0.7-0.4,1.3-0.5,1.9H22.1
			c-3.7-8.3-7.1-16.7-10.4-25.1L204.1-2.5L204.1-2.5z"/>
	</g>
	<g transform="translate(708)">
		<defs>
			<filter id="Adobe_OpacityMaskFilter_28_" filterUnits="userSpaceOnUse" x="1.4" y="-6.1" width="83.8" height="32.3">
				<feColorMatrix  type="matrix" values="1 0 0 0 0  0 1 0 0 0  0 0 1 0 0  0 0 0 1 0"/>
			</filter>
		</defs>
		<mask maskUnits="userSpaceOnUse" x="1.4" y="-6.1" width="83.8" height="32.3" id="af_1_">
			<g class="st57">
				<path id="ae_1_" class="st1" d="M1.4,0.3h83.8v19.1H1.4V0.3z"/>
			</g>
		</mask>
		<path class="st58" d="M1.4,26.2L4,21C6.6,15.7,8.6,10.3,10,4.6c0.5-2.3,0.9-4.7,1.1-7.3l0.2-3.3h53.7l1,1.8
			c1.3,2.4,2.6,4.8,3.9,7.1c3.4,6.4,6.6,12.4,10.6,17.5l4.6,5.8L1.4,26.2L1.4,26.2z"/>
	</g>
	<g transform="translate(703)">
		<defs>
			<filter id="Adobe_OpacityMaskFilter_29_" filterUnits="userSpaceOnUse" x="1.1" y="-9.7" width="97.3" height="39.5">
				<feColorMatrix  type="matrix" values="1 0 0 0 0  0 1 0 0 0  0 0 1 0 0  0 0 0 1 0"/>
			</filter>
		</defs>
		<mask maskUnits="userSpaceOnUse" x="1.1" y="-9.7" width="97.3" height="39.5" id="ah_1_">
			<g class="st59">
				<path id="ag_1_" class="st1" d="M1.1,0.3h97.3v19.1H1.1V0.3z"/>
			</g>
		</mask>
		<path class="st60" d="M72.9-9.7H13.6L13.1-3c-0.2,2.4-0.5,4.7-1,6.8c-1.3,5.4-3.3,10.6-5.8,15.6L1.1,29.8h97.3l-9.2-11.6
			c-3.8-4.9-7-10.7-10.3-17C77.6-1.2,76.3-3.6,75-6L72.9-9.7z M68.7-2.5c4.9,8.6,9.1,17.8,14.8,25.1H12.8c2.7-5.5,4.9-11.2,6.3-17.1
			c0.6-2.7,1-5.3,1.2-8H68.7z"/>
	</g>
	<g transform="translate(150)">
		<defs>
			<filter id="Adobe_OpacityMaskFilter_30_" filterUnits="userSpaceOnUse" x="0.2" y="-6.1" width="43.8" height="32.3">
				<feColorMatrix  type="matrix" values="1 0 0 0 0  0 1 0 0 0  0 0 1 0 0  0 0 0 1 0"/>
			</filter>
		</defs>
		<mask maskUnits="userSpaceOnUse" x="0.2" y="-6.1" width="43.8" height="32.3" id="aj_1_">
			<g class="st61">
				<path id="ai_1_" class="st1" d="M0.2,0.3H44v19.1H0.2V0.3z"/>
			</g>
		</mask>
		<path class="st62" d="M11.6,26.2l-0.8-2.4c-0.9-2.6-1.8-5.2-2.7-7.8c-1.9-5.7-3.9-11.5-6-17.1L0.2-6.1h40.6l-0.1,3.7
			c0,1.2-0.1,2.4-0.1,3.7c-0.3,7.3-0.5,14.3,1.6,20.1l1.8,4.8L11.6,26.2L11.6,26.2z"/>
	</g>
	<g transform="translate(144)">
		<defs>
			<filter id="Adobe_OpacityMaskFilter_31_" filterUnits="userSpaceOnUse" x="0.6" y="-9.7" width="54" height="39.5">
				<feColorMatrix  type="matrix" values="1 0 0 0 0  0 1 0 0 0  0 0 1 0 0  0 0 0 1 0"/>
			</filter>
		</defs>
		<mask maskUnits="userSpaceOnUse" x="0.6" y="-9.7" width="54" height="39.5" id="al_1_">
			<g class="st63">
				<path id="ak_1_" class="st1" d="M0.6,0.3h54v19.1h-54V0.3z"/>
			</g>
		</mask>
		<path class="st64" d="M49.9-9.7H0.6L4.3,0c2.1,5.5,4,11.1,5.9,17c0.9,2.6,1.7,5.2,2.6,7.9l1.7,4.9h40L51,20.1
			C49.1,15,49.3,8.4,49.6,1.4c0-1.2,0.1-2.5,0.1-3.7L49.9-9.7L49.9-9.7z M42.4-2.5c-0.2,8.7-1.1,17.6,1.7,25.1H19.8
			c-2.9-8.4-5.5-16.8-8.6-25.1C11.1-2.5,42.4-2.5,42.4-2.5z"/>
	</g>
</g>
</svg>
