<svg width="1440" height="20" xmlns="http://www.w3.org/2000/svg" xmlns:xlink="http://www.w3.org/1999/xlink"><defs><path id="a" d="M.046.28h66.538v19.126H.046z"/><path id="c" d="M.095.28H75.8v19.126H.095z"/><path id="e" d="M0 .28h94.385v19.126H0z"/><path id="g" d="M0 .28h99.562v19.126H0z"/><path id="i" d="M.724.28h28.685v19.126H.724z"/><path id="k" d="M.282.28h36.534v19.126H.282z"/><path id="m" d="M.276.28h182.94v19.126H.277z"/><path id="o" d="M.676.28H192.98v19.126H.676z"/><path id="q" d="M.72.28h109.694v19.126H.721z"/><path id="s" d="M.598.28h118.946v19.126H.598z"/><path id="u" d="M.567.28h93.858v19.126H.567z"/><path id="w" d="M.77.28h110.947v19.126H.77z"/><path id="y" d="M.65.28h192.868v19.126H.65z"/><path id="A" d="M.1.28h205.554v19.126H.101z"/><path id="C" d="M.717.28h153.267v19.126H.717z"/><path id="E" d="M.661.28h180.087v19.126H.661z"/><path id="G" d="M.733.28H135.73v19.126H.733z"/><path id="I" d="M.785.28h146.451v19.126H.786z"/><path id="K" d="M.637.28H109.68v19.126H.637z"/><path id="M" d="M.346.28h114.33v19.126H.347z"/><path id="O" d="M.804.28h127.778v19.126H.804z"/><path id="Q" d="M.38.28h140.058v19.126H.38z"/><path id="S" d="M.313.28h65.071v19.126H.313z"/><path id="U" d="M.638.28h73.603v19.126H.638z"/><path id="W" d="M.635.28h182.85v19.126H.635z"/><path id="Y" d="M.771.28h195.962v19.126H.77z"/><path id="aa" d="M.353.28H204.32v19.126H.353z"/><path id="ac" d="M.632.28h215.19v19.126H.631z"/><path id="ae" d="M.635.28h83.728v19.126H.635z"/><path id="ag" d="M.413.28h97.152v19.126H.413z"/><path id="ai" d="M.03.28h43.786v19.126H.03z"/><path id="ak" d="M.436.28H54.36v19.126H.436z"/></defs><g fill="none" fill-rule="evenodd"><g transform="translate(59)"><mask id="b" fill="#fff"><use xlink:href="#a"/></mask><path d="M.046 26.18l.366-3.935c.78-8.384.662-16.795.418-24.634L.716-6.102h54.839l.874 2.334c2.158 5.76 4.1 11.686 5.98 17.416.849 2.59 1.699 5.184 2.573 7.779l1.602 4.752H.046z" fill="#3398BA" mask="url(#b)"/></g><g transform="translate(54)"><mask id="d" fill="#fff"><use xlink:href="#c"/></mask><path d="M62.214-9.702H1.004l.231 7.424c.24 7.726.357 16.003-.406 24.189L.095 29.78H75.8l-3.213-9.506c-.87-2.577-1.736-5.209-2.572-7.753C68.118 6.756 66.158.795 63.967-5.035l-1.753-4.667zm-4.987 7.2c3.095 8.236 5.691 16.659 8.539 25.082H7.998c.786-8.432.692-16.78.433-25.082h48.796z" fill="#FFF" mask="url(#d)"/></g><g transform="translate(-44)"><mask id="f" fill="#fff"><use xlink:href="#e"/></mask><path d="M-3.592 26.18V-6.103h92.276l.598 2.861c1.643 7.855 3.11 16.126 4.484 25.285l.62 4.135H-3.593z" fill="#E8753D" mask="url(#f)"/></g><g transform="translate(-44)"><mask id="h" fill="#fff"><use xlink:href="#g"/></mask><path d="M92.534-9.702H-7.258V29.78H99.56l-1.252-8.27c-1.398-9.232-2.891-17.57-4.565-25.49l-1.21-5.722zm-5.894 7.2C88.394 5.8 89.858 14.17 91.131 22.58H0V-2.502h86.64z" fill="#FFF" mask="url(#h)"/></g><g transform="translate(37)"><mask id="j" fill="#fff"><use xlink:href="#i"/></mask><path d="M6.591 26.18l-.467-3.065C4.75 14.092 3.285 5.955 1.646-1.763l-.922-4.34H29.11l.11 3.489c.254 8.073.375 16.752-.454 25.528l-.31 3.265H6.592z" fill="#494645" mask="url(#j)"/></g><g transform="translate(33)"><mask id="l" fill="#fff"><use xlink:href="#k"/></mask><path d="M36.408-9.702H.282l1.83 8.678c1.611 7.646 3.053 15.717 4.406 24.673l.926 6.13H35.55l.612-6.53c.841-8.97.72-17.784.464-25.974l-.218-6.977zm-7.018 7.2c.26 8.302.355 16.65-.436 25.082H13.676c-1.27-8.41-2.73-16.781-4.479-25.082H29.39z" fill="#FFF" mask="url(#l)"/></g><g transform="translate(139)"><mask id="n" fill="#fff"><use xlink:href="#m"/></mask><path d="M3.368 26.18l-.869-2.365C-.123 16.674.171 8.707.456 1.002.5-.201.546-1.403.579-2.601l.096-3.501h168.97l1.955 4.86c2.963 7.377 6.028 15.004 9.334 22.35l2.283 5.071H3.367z" fill="#F9DE4F" mask="url(#n)"/></g><g transform="translate(135)"><mask id="p" fill="#fff"><use xlink:href="#o"/></mask><path d="M176.256-9.702H1.178L.981-2.7A381.27 381.27 0 0 1 .861.867C.563 8.919.255 17.247 3.124 25.052L4.86 29.78H192.979l-4.57-10.145c-3.277-7.275-6.329-14.865-9.281-22.203l-1.05-2.612-1.822-4.522zm-4.896 7.2c3.383 8.4 6.722 16.817 10.444 25.082H9.922C7.154 15.05 7.975 6.177 8.218-2.502H171.36z" fill="#FFF" mask="url(#p)"/></g><g transform="translate(947)"><mask id="r" fill="#fff"><use xlink:href="#q"/></mask><path d="M15.672 26.18l-1.943-2.915-.101-.2c-.728-1.45-2.13-3.454-2.54-3.866l-.221-.223-.195-.273C6.719 13.026 4.758 6.717 3.027 1.151 2.76.29 2.493-.565 2.223-1.409L.721-6.102h109.693l-.572 4.096a84.23 84.23 0 0 1-.115.805l-.6 3.907-1.326-.33c-.526 1.676-1.806 3.479-4.87 3.479h-.226l-.223-.028a12.506 12.506 0 0 0-1.536-.097c-4.373 0-8.124 2.487-12.095 5.12l-.187.124-.201.1c-.969.482-1.961 1.057-3.012 1.668-2.117 1.228-4.299 2.493-6.665 3.208-1.379 1.08-3.006 3.17-3.633 6.008-.31 2.749-3.13 3.54-4.093 3.811-.207.058-.422.114-.619.186l-.608.224H15.672z" fill="#E8753D" mask="url(#r)"/></g><g transform="translate(942)"><mask id="t" fill="#fff"><use xlink:href="#s"/></mask><path d="M119.544-9.702H.598L3.606-.317c.266.832.529 1.676.794 2.527 1.81 5.815 3.862 12.407 8.139 18.543l.372.533.388.387c.412.486 1.449 2.032 1.937 3.001l.202.402.25.373c.237.352.473.707.71 1.062l.028.042 2.15 3.227h56.829l1.219-.449c.092-.03.22-.063.345-.098.577-.161 1.365-.383 2.207-.784 2.42-1.157 4.049-3.303 4.457-5.772.361-1.578 1.204-2.82 1.921-3.537 2.464-.855 4.672-2.135 6.663-3.289 1.001-.58 1.946-1.127 2.812-1.557l.403-.2.375-.249c3.659-2.423 6.818-4.515 10.098-4.515.356 0 .723.023 1.09.069l.448.055h.45c1.975 0 4.77-.72 6.69-2.917l2.489.618 1.208-7.806c.043-.287.084-.576.125-.864l1.14-8.187zm-8.32 7.2c-.035.253-.07.506-.109.756a2.662 2.662 0 0 0-.634-.09c-2.129 0 .387 4.09-2.587 4.09a16.21 16.21 0 0 0-1.989-.124c-5.474 0-9.797 2.863-14.119 5.724-3.221 1.6-6.443 4-9.664 4.8-2.416 1.6-4.832 4.8-5.638 8.8 0 .6-1.358.75-2.379 1.126H22.471c-.252-.377-.501-.753-.752-1.126-.805-1.6-2.416-4-3.221-4.8-4.215-6.047-5.98-12.901-7.986-19.156h100.713z" fill="#FFF" mask="url(#t)"/></g><g transform="translate(876)"><mask id="v" fill="#fff"><use xlink:href="#u"/></mask><path d="M.567 26.18l6.986-6.28C15.8 12.486 22.773 4.302 28.281-4.426l1.058-1.677h49.169l.797 2.508c.274.862.545 1.737.816 2.618 1.617 5.238 3.288 10.651 6.485 15.368 1.126 1.249 2.651 3.613 3.493 5.244l4.326 6.543H.567z" fill="#494645" mask="url(#v)"/></g><g transform="translate(867)"><mask id="x" fill="#fff"><use xlink:href="#w"/></mask><path d="M91.56-9.702H37.284L35.15-6.35C29.769 2.098 22.946 10.03 14.87 17.22L.77 29.78h110.947l-7.447-11.173-.54-.812c-.855-1.598-2.367-4.004-3.775-5.612-2.84-4.226-4.355-9.088-5.956-14.227a281.67 281.67 0 0 0-.83-2.642l-1.61-5.016zm-5.302 7.2c2.006 6.255 3.773 13.109 7.99 19.156.806.8 2.417 3.2 3.223 4.8l.752 1.126h-78.51c8.275-7.37 15.634-15.77 21.565-25.082h44.98z" fill="#FFF" mask="url(#x)"/></g><g transform="translate(721)"><mask id="z" fill="#fff"><use xlink:href="#y"/></mask><path d="M19.852 26.18l-1.084-1.378C14.363 19.2 10.845 12.602 7.443 6.22 6.218 3.923 4.95 1.548 3.665-.739L.65-6.103h192.868l-3.5 5.524c-5.885 9.289-13.32 17.981-22.095 25.837l-1.028.92H19.852z" fill="#F9DE4F" mask="url(#z)"/></g><g transform="translate(715)"><mask id="B" fill="#fff"><use xlink:href="#A"/></mask><path d="M205.654-9.702H.101L6.129 1.021c1.267 2.253 2.524 4.61 3.738 6.89 3.476 6.52 7.071 13.262 11.674 19.114l2.166 2.755h150.16l2.055-1.841c9.022-8.077 16.67-17.024 22.732-26.592l7-11.049zm-13.097 7.2c-5.9 9.312-13.22 17.712-21.452 25.082H27.215c-5.757-7.321-9.94-16.447-14.794-25.082h180.136z" fill="#FFF" mask="url(#B)"/></g><g transform="translate(995)"><mask id="D" fill="#fff"><use xlink:href="#C"/></mask><path d="M.717 26.18l18.998-6.977c.169-.062.345-.12.523-.175 1.19-3.848 3.677-7.336 6.75-9.369l.523-.346.61-.151c1.648-.409 3.52-1.492 5.502-2.64 1.042-.603 2.116-1.225 3.223-1.783 4.44-2.937 9.474-6.21 15.965-6.21h.053c.05-.338.132-.694.265-1.055.332-.9.907-1.628 1.646-2.13l.202-1.446h79.489l.959 2.132c3.426 7.61 8.168 15.613 14.498 24.467l4.061 5.682H.717z" fill="#3398BA" mask="url(#D)"/></g><g transform="translate(975)"><mask id="F" fill="#fff"><use xlink:href="#E"/></mask><path d="M156.618-9.702H71.805l-.452 3.257c-.42.456-.79.964-1.1 1.518-6.237.703-11.155 3.867-15.215 6.556-1.123.576-2.179 1.19-3.205 1.784-1.671.97-3.4 1.972-4.543 2.256l-1.217.303-1.043.692c-3.316 2.197-5.995 5.622-7.573 9.557L.661 29.78h180.087l-8.104-11.365c-6.176-8.663-10.792-16.466-14.11-23.854l-1.916-4.263zm-4.696 7.2c3.963 8.821 9.17 17.164 14.817 25.082H41.038c1.02-.375 2.376-.526 2.376-1.126.805-4 3.218-7.2 5.631-8.8 3.218-.8 6.436-3.2 9.654-4.8 4.318-2.862 8.634-5.724 14.103-5.724.645 0 1.307.04 1.986.124 2.97 0 .456-4.09 2.583-4.09.177 0 .387.029.634.09.039-.25.074-.503.11-.756h73.807z" fill="#FFF" mask="url(#F)"/></g><g transform="translate(1121)"><mask id="H" fill="#fff"><use xlink:href="#G"/></mask><path d="M19.157 26.18l-1.076-1.518C11.525 15.417 6.59 7.012 2.997-1.033L.733-6.103H135.73l-1.719 4.812c-3.326 9.314-7.102 17.918-11.22 25.575l-1.018 1.895H19.157z" fill="#494645" mask="url(#H)"/></g><g transform="translate(1115)"><mask id="J" fill="#fff"><use xlink:href="#I"/></mask><path d="M147.236-9.702H.785L5.34.435c3.71 8.26 8.786 16.866 15.518 26.31l2.164 3.035h107.208l2.05-3.79c4.225-7.817 8.094-16.588 11.5-26.07l3.457-9.622zm-10.274 7.2c-3.081 8.58-6.719 17.051-11.06 25.082h-99.14C21.118 14.662 15.91 6.319 11.949-2.502h125.014z" fill="#FFF" mask="url(#J)"/></g><g transform="translate(1341)"><mask id="L" fill="#fff"><use xlink:href="#K"/></mask><path d="M12.905 26.18l-1.045-1.792C6.079 14.48 2.849 6.38 1.385-1.876L.637-6.102h112.656v32.281H12.905z" fill="#E8753D" mask="url(#L)"/></g><g transform="translate(1336)"><mask id="N" fill="#fff"><use xlink:href="#M"/></mask><path d="M121.966-9.702H.346l1.511 8.453c1.554 8.69 4.948 17.155 11.004 27.447l2.108 3.582h106.997V-9.702zm-7.29 7.2V22.58H19.164c-4.651-7.903-8.52-16.094-10.127-25.082h105.64z" fill="#FFF" mask="url(#N)"/></g><g transform="translate(1234)"><mask id="P" fill="#fff"><use xlink:href="#O"/></mask><path d="M.804 26.18l2.875-5.305c3.978-7.341 7.634-15.613 10.865-24.588l.86-2.39h99.835l.53 2.975c1.313 7.383 4.288 14.754 9.645 23.899l3.168 5.408H.804z" fill="#F9DE4F" mask="url(#P)"/></g><g transform="translate(1228)"><mask id="R" fill="#fff"><use xlink:href="#Q"/></mask><path d="M123.843-9.702H18.479l-1.718 4.778C13.592 3.88 10.014 11.987 6.125 19.17L.379 29.78h140.059l-6.333-10.819c-5.129-8.761-7.968-15.767-9.204-22.715l-1.058-5.948zm-6.083 7.2c1.6 8.988 5.45 17.179 10.076 25.082H12.51c4.35-8.03 7.992-16.503 11.079-25.082h94.171z" fill="#FFF" mask="url(#R)"/></g><g transform="translate(617)"><mask id="T" fill="#fff"><use xlink:href="#S"/></mask><path d="M20.477 26.18l-1.048-.988C12.257 18.435 3.714 9.27 1.28-1.728L.313-6.103h65.071l-.27 3.85c-.213 3.04-.62 5.825-1.245 8.516-1.598 6.358-3.767 12.2-6.645 17.925l-1 1.99H20.477z" fill="#3398BA" mask="url(#T)"/></g><g transform="translate(612)"><mask id="V" fill="#fff"><use xlink:href="#U"/></mask><path d="M74.241-9.702H.638l1.94 8.747c2.649 11.953 11.669 21.648 19.231 28.76l2.1 1.975H63.416l2.005-3.982a89.388 89.388 0 0 0 6.918-18.597l.015-.064.015-.064c.67-2.879 1.106-5.848 1.332-9.075l.54-7.7zm-7.78 7.2c-.184 2.617-.537 5.26-1.164 7.956a82.475 82.475 0 0 1-6.368 17.126H26.802C18.748 15.004 11.728 6.796 9.667-2.502h56.795z" fill="#FFF" mask="url(#V)"/></g><g transform="translate(471)"><mask id="X" fill="#fff"><use xlink:href="#W"/></mask><path d="M.635 33.2l1.189-4.514c.2-.765.4-1.534.573-2.323C4.5 17.622 8.302 7.687 14.03-4.073l.988-2.029h143.958l.566 2.917c2.322 11.955 11.004 22.493 18.31 30.337l5.632 6.048H.635z" fill="#43558A" mask="url(#X)"/></g><g transform="translate(466)"><mask id="Z" fill="#fff"><use xlink:href="#Y"/></mask><path d="M166.904-9.702H17.588L15.61-5.644C9.761 6.353 5.872 16.527 3.72 25.457l-.016.067-.014.066a57.47 57.47 0 0 1-.54 2.184L.77 36.8h195.962L185.46 24.705c-6.982-7.493-15.274-17.513-17.423-28.573l-1.133-5.834zm-5.972 7.2c2.312 11.9 10.185 22.406 19.222 32.102H10.15c.214-.811.423-1.627.608-2.464C13.015 17.769 17.15 7.693 22.12-2.502h138.811z" fill="#FFF" mask="url(#Z)"/></g><g transform="translate(301)"><mask id="ab" fill="#fff"><use xlink:href="#aa"/></mask><path d="M13.798 26.18l-.958-2.129C9.472 16.573 6.378 8.877 3.386 1.434L.353-6.102H204.32l-2.96 5.34c-4.854 8.75-8.052 16.065-9.778 22.364-.157.632-.358 1.32-.563 2.006l-.77 2.571H13.799z" fill="#E8753D" mask="url(#ab)"/></g><g transform="translate(295)"><mask id="ad" fill="#fff"><use xlink:href="#ac"/></mask><path d="M215.821-9.702H.633L4.604.177 5.652 2.78c3 7.473 6.103 15.2 9.496 22.743l1.915 4.256h181.275l1.54-5.143c.198-.663.408-1.382.604-2.156 1.652-6.004 4.735-13.039 9.424-21.504l5.915-10.679zm-12.242 7.2c-4.412 7.966-8.084 15.838-10.088 23.156-.164.655-.35 1.291-.54 1.926H21.744c-3.718-8.265-7.052-16.682-10.43-25.082H203.58z" fill="#FFF" mask="url(#ad)"/></g><g transform="translate(664)"><mask id="af" fill="#fff"><use xlink:href="#ae"/></mask><path d="M.635 26.18l2.61-5.21A79.114 79.114 0 0 0 9.305 4.58c.52-2.255.87-4.674 1.057-7.333l.233-3.35h53.66l1.035 1.838c1.326 2.36 2.613 4.77 3.856 7.103 3.406 6.386 6.622 12.417 10.636 17.518l4.58 5.822H.636z" fill="#494645" mask="url(#af)"/></g><g transform="translate(659)"><mask id="ah" fill="#fff"><use xlink:href="#ag"/></mask><path d="M72.106-9.702H12.865l-.468 6.7c-.171 2.443-.49 4.659-.978 6.775A75.36 75.36 0 0 1 5.64 19.36L.414 29.78h97.152l-9.178-11.646C84.564 13.284 81.415 7.39 78.08 1.147c-1.256-2.35-2.553-4.78-3.902-7.172l-2.072-3.677zm-4.233 7.2C72.74 6.133 76.93 15.26 82.7 22.58H12.107A82.726 82.726 0 0 0 18.45 5.454c.625-2.697.976-5.339 1.159-7.956h48.264z" fill="#FFF" mask="url(#ah)"/></g><g transform="translate(106)"><mask id="aj" fill="#fff"><use xlink:href="#ai"/></mask><path d="M11.39 26.18l-.843-2.448c-.9-2.613-1.775-5.226-2.648-7.834C6.003 10.237 4.042 4.383 1.892-1.236L.03-6.102h40.584l-.105 3.7a398.79 398.79 0 0 1-.125 3.669c-.275 7.333-.535 14.26 1.631 20.076l1.8 4.836H11.39z" fill="#3C4C63" mask="url(#aj)"/></g><g transform="translate(100)"><mask id="al" fill="#fff"><use xlink:href="#ak"/></mask><path d="M49.719-9.702H.436L4.133.031c2.108 5.548 3.954 11.104 5.91 16.987.856 2.573 1.74 5.234 2.64 7.867l1.673 4.895H54.36l-3.575-9.672c-1.905-5.155-1.66-11.74-1.4-18.711.046-1.234.092-2.47.126-3.7l.207-7.399zm-7.483 7.2c-.243 8.679-1.07 17.553 1.714 25.082H19.579C16.7 14.157 14.076 5.734 10.946-2.502h31.29z" fill="#FFF" mask="url(#al)"/></g></g></svg>