<svg xmlns="http://www.w3.org/2000/svg" viewBox="0 0 1495 20" enable-background="new 0 0 1495 20"><path d="M103.2 26.2l.4-3.9c.7-8.4.6-16.8.3-24.7l-.1-3.7h54.9l.9 2.3c2.2 5.8 4.1 11.7 6 17.4.8 2.6 1.7 5.2 2.6 7.8l1.6 4.8h-66.6z" fill-rule="evenodd" clip-rule="evenodd" fill="#3398BA"/><path d="M160.4-9.7h-61.3l.2 7.4c.2 7.7.4 16-.4 24.2l-.7 7.9h75.8l-3.2-9.5-2.6-7.8c-1.9-5.7-3.9-11.7-6.1-17.5l-1.7-4.7zm-5 7.2c3.1 8.2 5.7 16.7 8.5 25.1h-57.8c.8-8.5.7-16.8.4-25.1h48.9z" fill-rule="evenodd" clip-rule="evenodd" fill="#fff"/><path d="M-3.6 26.2v-32.3h92.4l.6 2.9c1.6 7.8 3.1 16.1 4.5 25.2l.6 4.1-98.1.1z" fill-rule="evenodd" clip-rule="evenodd" fill="#E8753D"/><path d="M92.6-9.7h-99.9v39.5h107l-1.3-8.3c-1.4-9.2-2.9-17.6-4.6-25.5l-1.2-5.7zm-5.9 7.2c1.8 8.3 3.2 16.7 4.5 25.1h-91.2v-25.1h86.7z" fill-rule="evenodd" clip-rule="evenodd" fill="#fff"/><path d="M87.7 26.2l-.5-3.1c-1.4-9-2.8-17.1-4.5-24.9l-.9-4.3h28.4l.1 3.5c.3 8.1.4 16.8-.5 25.5l-.3 3.3h-21.8z" fill-rule="evenodd" clip-rule="evenodd" fill="#494645"/><path d="M113.5-9.7h-36.1l1.8 8.7c1.6 7.6 3.1 15.7 4.4 24.7l.9 6.1h28.1l.6-6.5c.8-9 .7-17.8.5-26l-.2-7zm-7 7.2c.3 8.3.4 16.6-.4 25.1h-15.3c-1.3-8.4-2.8-16.8-4.5-25.1h20.2z" fill-rule="evenodd" clip-rule="evenodd" fill="#fff"/><path d="M186.6 26.2l-.9-2.4c-2.6-7.1-2.3-15.1-2-22.8l.1-3.6.1-3.5h169.1l2 4.9c3 7.4 6 15 9.3 22.4l2.3 5.1-180-.1z" fill-rule="evenodd" clip-rule="evenodd" fill="#F9DE4F"/><path d="M355.6-9.7h-175.2l-.2 7-.1 3.6c-.3 8-.7 16.3 2.2 24.2l1.7 4.7h188.3l-4.6-10.1c-3.3-7.3-6.3-14.9-9.3-22.2l-1.1-2.6-1.7-4.6zm-4.9 7.2c3.4 8.4 6.7 16.8 10.5 25.1h-172.1c-2.7-7.5-1.9-16.4-1.7-25.1h163.3z" fill-rule="evenodd" clip-rule="evenodd" fill="#fff"/><path d="M1007.7 26.2l-1.9-2.9-.1-.2c-.7-1.5-2.1-3.5-2.5-3.9l-.3-.2-.2-.3c-4-5.7-5.9-12-7.7-17.6-.2-.8-.5-1.7-.8-2.5l-1.5-4.7h109.8l-.5 4.1-.1.8-.6 3.9-1.3-.3c-.5 1.7-1.8 3.5-4.9 3.5h-.4c-.5-.1-1-.1-1.5-.1-4.4 0-8.1 2.5-12.1 5.1l-.3.1-.2.1c-1 .5-2 1.1-3 1.7-2.1 1.2-4.3 2.5-6.7 3.2-1.4 1.1-3 3.2-3.6 6-.3 2.7-3.1 3.5-4.1 3.8l-.6.2-.6.2h-54.3z" fill-rule="evenodd" clip-rule="evenodd" fill="#E8753D"/><path d="M1106.7-9.7h-119.1l3 9.4.8 2.5c1.8 5.8 3.9 12.4 8.2 18.6l.4.5.4.4c.4.5 1.5 2 1.9 3l.2.4.3.4.7 1.1 2.2 3.2h56.9l1.2-.4.3-.1c.6-.2 1.4-.4 2.2-.8 2.4-1.2 4.1-3.3 4.5-5.8.4-1.6 1.2-2.8 1.9-3.5 2.5-.9 4.7-2.1 6.7-3.3 1-.6 1.9-1.1 2.8-1.6l.4-.2.4-.2c3.7-2.4 6.8-4.5 10.1-4.5.4 0 .7 0 1.1.1l.4.1h.5c2 0 4.8-.7 6.7-2.9l2.5.6 1.2-7.8.1-.9 1.1-8.3zm-8.3 7.2l-.1.8c-.2-.1-.4-.1-.6-.1-2.1 0 .4 4.1-2.6 4.1-.7-.1-1.3-.1-2-.1-5.5 0-9.8 2.9-14.1 5.7-3.2 1.6-6.4 4-9.7 4.8-2.4 1.6-4.8 4.8-5.6 8.8 0 .6-1.4.8-2.4 1.1h-51.8c-.3-.4-.5-.8-.8-1.1-.8-1.6-2.4-4-3.2-4.8-4.2-6-6-12.9-8-19.2h100.9z" fill-rule="evenodd" clip-rule="evenodd" fill="#fff"/><path d="M921.5 26.2l7-6.3c8.3-7.4 15.2-15.6 20.7-24.3l1.1-1.7h49.2l.8 2.5.8 2.6c1.6 5.2 3.3 10.7 6.5 15.4 1.1 1.2 2.7 3.6 3.5 5.2l4.3 6.5-93.9.1z" fill-rule="evenodd" clip-rule="evenodd" fill="#494645"/><path d="M1003.6-9.7h-54.3l-2.1 3.4c-5.5 8.4-12.3 16.3-20.4 23.5l-14.1 12.6h111.1l-7.5-11.2-.5-.8c-.9-1.6-2.4-4-3.8-5.6-2.8-4.2-4.4-9.1-6-14.2-.3-.9-.5-1.8-.8-2.6l-1.6-5.1zm-5.3 7.2c2 6.3 3.8 13.1 8 19.2.8.8 2.4 3.2 3.2 4.8l.8 1.1h-78.6c8.3-7.4 15.6-15.8 21.6-25.1h45z" fill-rule="evenodd" clip-rule="evenodd" fill="#fff"/><path d="M785.7 26.2l-1.1-1.4c-4.4-5.6-7.9-12.2-11.3-18.6-1.3-2.3-2.6-4.7-3.8-6.9l-3-5.4h193.1l-3.6 5.5c-5.9 9.3-13.3 18-22.1 25.8l-1 .9-147.2.1z" fill-rule="evenodd" clip-rule="evenodd" fill="#F9DE4F"/><path d="M965.6-9.7h-205.7l6 10.7c1.3 2.3 2.5 4.6 3.7 6.9 3.5 6.5 7.1 13.3 11.7 19.1l2.2 2.8h150.3l2.1-1.8c9-8.1 16.7-17 22.8-26.6l6.9-11.1zm-13.1 7.2c-5.9 9.3-13.2 17.7-21.5 25.1h-144c-5.8-7.3-10-16.4-14.8-25.1h180.3z" fill-rule="evenodd" clip-rule="evenodd" fill="#fff"/><path d="M1040.8 26.2l19-7 .5-.2c1.2-3.8 3.7-7.3 6.8-9.4l.5-.3.6-.2c1.6-.4 3.5-1.5 5.5-2.6 1-.6 2.1-1.2 3.2-1.8 4.4-2.9 9.5-6.2 16-6.2h.1c.1-.3.1-.7.3-1.1.3-.9.9-1.6 1.6-2.1l.2-1.4h79.6l1 2.1c3.4 7.6 8.2 15.6 14.5 24.5l4.1 5.7h-153.5z" fill-rule="evenodd" clip-rule="evenodd" fill="#3398BA"/><path d="M1176.8-9.7h-84.9l-.5 3.3c-.4.5-.8 1-1.1 1.5-6.2.7-11.2 3.9-15.2 6.6-1.1.5-2.1 1.1-3.2 1.7-1.7 1-3.4 2-4.5 2.3l-1.2.3-1 .7c-3.3 2.2-6 5.6-7.6 9.6l-36.9 13.5h180.3l-8.1-11.4c-6.2-8.7-10.8-16.5-14.1-23.9l-2-4.2zm-4.7 7.2c4 8.8 9.2 17.2 14.8 25.1h-125.8c1-.4 2.4-.5 2.4-1.1.8-4 3.2-7.2 5.6-8.8 3.2-.8 6.4-3.2 9.7-4.8 4.3-2.9 8.6-5.7 14.1-5.7.6 0 1.3 0 2 .1 3 0 .5-4.1 2.6-4.1.2 0 .4 0 .6.1 0-.2.1-.5.1-.8h73.9z" fill-rule="evenodd" clip-rule="evenodd" fill="#fff"/><path d="M1185.4 26.2l-1.1-1.5c-6.6-9.3-11.5-17.7-15.1-25.7l-2.3-5.1h135.1l-1.7 4.8c-3.3 9.3-7.1 17.9-11.2 25.6l-1 1.9h-102.7z" fill-rule="evenodd" clip-rule="evenodd" fill="#494645"/><path d="M1307.6-9.7h-146.6l4.5 10.1c3.7 8.3 8.8 16.9 15.5 26.3l2.2 3h107.3l2.1-3.8c4.2-7.8 8.1-16.6 11.5-26.1l3.5-9.5zm-10.3 7.2c-3.1 8.6-6.7 17.1-11.1 25.1h-99.2c-5.7-7.9-10.9-16.3-14.8-25.1h125.1z" fill-rule="evenodd" clip-rule="evenodd" fill="#fff"/><path d="M1399.3 26.2l-1-1.8c-5.8-9.9-9-18-10.5-26.3l-.7-4.2h112.8v32.3h-100.6z" fill-rule="evenodd" clip-rule="evenodd" fill="#E8753D"/><path d="M1503.5-9.7h-121.7l1.5 8.5c1.6 8.7 5 17.2 11 27.4l2.1 3.6h107.1v-39.5zm-7.3 7.2v25.1h-95.6c-4.7-7.9-8.5-16.1-10.1-25.1h105.7z" fill-rule="evenodd" clip-rule="evenodd" fill="#fff"/><path d="M1280.1 26.2l2.9-5.3c4-7.3 7.6-15.6 10.9-24.6l.9-2.4h99.9l.5 3c1.3 7.4 4.3 14.8 9.7 23.9l3.2 5.4h-128z" fill-rule="evenodd" clip-rule="evenodd" fill="#F9DE4F"/><path d="M1397.3-9.7h-105.5l-1.7 4.8c-3.2 8.8-6.8 16.9-10.7 24.1l-5.7 10.6h140.2l-6.3-10.8c-5.1-8.8-8-15.8-9.2-22.7-.1-.1-1.1-6-1.1-6zm-6.1 7.2c1.6 9 5.5 17.2 10.1 25.1h-115.5c4.4-8 8-16.5 11.1-25.1h94.3z" fill-rule="evenodd" clip-rule="evenodd" fill="#fff"/><path d="M682.2 26.2l-1-1c-7.2-6.8-15.8-15.9-18.2-26.9l-1-4.4h65.1l-.3 3.8c-.2 3-.6 5.8-1.2 8.5-1.6 6.4-3.8 12.3-6.6 18l-1 2h-35.8z" fill-rule="evenodd" clip-rule="evenodd" fill="#3398BA"/><path d="M731-9.7h-73.7l2 8.7c2.7 12 11.7 21.6 19.3 28.8l2.1 2h39.5l2-4c3-5.9 5.3-12.2 6.9-18.6v-.2c.7-2.9 1.1-5.8 1.3-9.1l.6-7.6zm-7.8 7.2c-.2 2.6-.5 5.3-1.2 8-1.5 5.9-3.6 11.7-6.4 17.1h-32.1c-8.1-7.6-15.1-15.8-17.1-25.1h56.8z" fill-rule="evenodd" clip-rule="evenodd" fill="#fff"/><path d="M516.2 33.2l1.2-4.5.6-2.3c2-8.8 5.8-18.7 11.6-30.5l1-2h144.1l.6 2.9c2.3 12 11 22.5 18.3 30.3l5.6 6h-183v.1z" fill-rule="evenodd" clip-rule="evenodd" fill="#43558A"/><path d="M677.6-9.7h-149.5l-2 4.1c-5.9 12-9.7 22.2-11.9 31.1v.2l-.5 2.2-2.4 9h196.2l-11.3-12.1c-7-7.5-15.3-17.5-17.4-28.6l-1.2-5.9zm-6 7.2c2.3 11.9 10.2 22.4 19.2 32.1h-170.1c.2-.8.4-1.6.6-2.5 2.3-9.4 6.4-19.4 11.4-29.6h138.9z" fill-rule="evenodd" clip-rule="evenodd" fill="#fff"/><path d="M359.2 26.2l-1-2.1c-3.4-7.5-6.5-15.2-9.4-22.7l-3-7.5h204.2l-3 5.3c-4.9 8.8-8.1 16.1-9.8 22.4-.2.6-.4 1.3-.6 2l-.8 2.6h-176.6z" fill-rule="evenodd" clip-rule="evenodd" fill="#E8753D"/><path d="M555.4-9.7h-215.4l4 9.9 1 2.6c3 7.5 6.1 15.2 9.5 22.7l1.9 4.3h181.5l1.5-5.1c.2-.7.4-1.4.6-2.2 1.7-6 4.7-13 9.4-21.5l6-10.7zm-12.3 7.2c-4.4 8-8.1 15.8-10.1 23.2-.2.7-.4 1.3-.5 1.9h-171.4c-3.7-8.3-7.1-16.7-10.4-25.1h192.4z" fill-rule="evenodd" clip-rule="evenodd" fill="#fff"/><path d="M709.4 26.2l2.6-5.2c2.6-5.3 4.6-10.7 6-16.4.5-2.3.9-4.7 1.1-7.3l.2-3.3h53.7l1 1.8c1.3 2.4 2.6 4.8 3.9 7.1 3.4 6.4 6.6 12.4 10.6 17.5l4.6 5.8h-83.7z" fill-rule="evenodd" clip-rule="evenodd" fill="#494645"/><path d="M775.9-9.7h-59.3l-.5 6.7c-.2 2.4-.5 4.7-1 6.8-1.3 5.4-3.3 10.6-5.8 15.6l-5.2 10.4h97.3l-9.2-11.6c-3.8-4.9-7-10.7-10.3-17l-3.9-7.2-2.1-3.7zm-4.2 7.2c4.9 8.6 9.1 17.8 14.8 25.1h-70.7c2.7-5.5 4.9-11.2 6.3-17.1.6-2.7 1-5.3 1.2-8h48.4z" fill-rule="evenodd" clip-rule="evenodd" fill="#fff"/><path d="M161.6 26.2l-.8-2.4-2.7-7.8c-1.9-5.7-3.9-11.5-6-17.1l-1.9-5h40.6l-.1 3.7c0 1.2-.1 2.4-.1 3.7-.3 7.3-.5 14.3 1.6 20.1l1.8 4.8h-32.4z" fill-rule="evenodd" clip-rule="evenodd" fill="#3C4C63"/><path d="M193.9-9.7h-49.3l3.7 9.7c2.1 5.5 4 11.1 5.9 17 .9 2.6 1.7 5.2 2.6 7.9l1.7 4.9h40l-3.5-9.7c-1.9-5.1-1.7-11.7-1.4-18.7l.1-3.7.2-7.4zm-7.5 7.2c-.2 8.7-1.1 17.6 1.7 25.1h-24.3c-2.9-8.4-5.5-16.8-8.6-25.1h31.2z" fill-rule="evenodd" clip-rule="evenodd" fill="#fff"/></svg>