<svg xmlns="http://www.w3.org/2000/svg" viewBox="0 0 614 282" enable-background="new 0 0 614 282"><title>logo</title><desc>Created with Sketch.</desc><g><path d="M536.3 70c1.4-.2 2.7.9 4.1 1.4 6.8 2.6 13.5 5.2 20.2 7.9 9.2 3.7 17.5 8.9 25.8 14.1 5.7 3.6 10.8 8.4 14.8 14.1 4.1 5.7 4.1 5.7-2.3 8.8-2.8 1.4-5.6 2.7-8.3 4.3-1.4.8-2.1.4-2.9-.6-5.5-7.3-12.8-12.4-20.5-16.7-7.3-4-14.9-7.8-22.8-10.3-6.3-2-12-5.7-18.7-6.2-2-.1-1.8-2-1.2-3 3-4.4 6.3-8.7 9.4-13 .6-.9 1.4-.8 2.4-.8" fill-rule="evenodd" clip-rule="evenodd" fill="#F9DE4F"/><path d="M93.5 208.1c-.3 2.9 1 6.9-1.1 8.4-1.9 1.3-5.4-.9-8.1-1.7-18-5.3-35.8-11.3-52-21.1-6.1-3.7-11.8-8.1-17-13.1-1.5-1.5-1.8-2.3.2-3.5 3.5-2 6.9-4.3 10.3-6.5 1-.7 1.8-1.2 3-.2 13.7 12 30.3 18.3 47.3 24 5.1 1.7 10.2 3.2 15.3 4.6 2 .6 3 1.4 2.5 3.6-.3 1.9-.3 3.7-.4 5.5" fill-rule="evenodd" clip-rule="evenodd" fill="#494645"/><g transform="translate(240 0)"><defs><filter id="a" filterUnits="userSpaceOnUse" x=".5" y=".6" width="78.3" height="27.9"><feColorMatrix values="1 0 0 0 0 0 1 0 0 0 0 0 1 0 0 0 0 0 1 0"/></filter></defs><mask maskUnits="userSpaceOnUse" x=".5" y=".6" width="78.3" height="27.9" id="b"><path fill-rule="evenodd" clip-rule="evenodd" fill="#fff" d="M.5.6h78.3v27.9h-78.3z" filter="url(#a)"/></mask><path d="M61.9 18.4c-17.2.5-33.8 3.9-49.9 9.7-1.7.6-2.7.7-3.7-1.1-2.1-3.5-4.4-7-6.8-10.3-1.6-2.1-1-3.1 1.3-3.9 10.4-3.8 21-7.1 32-9.1 13.8-2.5 27.7-3.7 41.7-2.8 2.3.1 2.8.6 1.9 2.8-1.7 4.1-3.1 8.4-4.4 12.6-.6 1.8-1.5 2.3-3.3 2.2-3-.2-5.9-.1-8.8-.1" mask="url(#b)" fill-rule="evenodd" clip-rule="evenodd" fill="#494645"/></g><path d="M162.9 67.3c.4 1.9-1.3 1.6-2.2 1.8-16.5 3.8-32.9 7.6-49.4 11.5-4.2 1-8.4 1.9-12.4 3.2-2 .6-2.7 0-3.3-1.7-1.3-3.7-2.7-7.5-4.2-11.2-.8-2-.4-2.7 1.8-3.2 15.3-4 30.8-7.5 46.3-10.9.6-.1 1.2-.2 1.7-.4 5.5-2.3 10.4-2 14 3.3.5.9 1.2 1.7 2.2 2.2l1.8 2c1.3 1.1 2.5 2.3 3.7 3.4" fill-rule="evenodd" clip-rule="evenodd" fill="#494645"/><path d="M0 140.2c-.1-12.4 4.7-24.5 13.9-34.9 1.1-1.2 1.9-1.8 3.4-.7 3.2 2.3 6.5 4.3 9.7 6.5 2.6 1.8 2.5 2.9.1 5-4.6 4.1-7.6 9.3-9.3 15.1-2.8 9.3-1.9 18.4 2.7 27 1 1.8.5 2.7-.9 3.7-3.4 2.1-6.7 4.2-10 6.4-1.3.9-1.8 1.1-2.8-.6-4.6-8-6.8-16.6-6.8-27.5" fill-rule="evenodd" clip-rule="evenodd" fill="#E8753D"/><path d="M605 170.9c-.6.8-1.2 1.8-1.9 2.7-9 11.3-20.7 19.1-33.5 25.4l-10.1 4.6c-1.7.8-2.8.7-4.2-.9-2.9-3.5-5.9-6.9-9.1-10-2.2-2.1-.9-2.4.9-3.1 8.3-3.2 16.4-6.9 24.1-11.5 5.5-3.3 10.6-7.1 15-11.8.9-1 1.8-1.6 3.3-1.1 4.6 1.5 9.3 2.8 13.9 4.2.6.2 1.6 0 1.6 1.5" fill-rule="evenodd" clip-rule="evenodd" fill="#494645"/><path d="M472.7 62.1c.1-3-1.8-7.1.3-8.7 1.5-1.2 5.4.9 8.1 1.5 13.5 3.1 27 6.5 40.4 9.9 3.1.8 2.9 1.8 1.2 4-2.6 3.4-5 6.8-7.3 10.4-1 1.6-1.9 2.1-3.9 1.6-11.7-3.1-23.5-6-35.3-8.7-2.9-.7-3.9-1.8-3.6-4.7.2-1.7.1-3.5.1-5.3" fill-rule="evenodd" clip-rule="evenodd" fill="#494645"/><path d="M108.7 202c2.9.9 5.8 1.4 8.6 2.2 6.7 1.9 13.5 3.2 20.2 4.9 1.9.5 4.3 1.5 3.2 4.5-1.6 4.5-.4 9.5-2.4 13.9-.9 1.9-2.3 3.1-3.6 2.2-4.2-2.8-9.2-1.9-13.4-4.2-2.5-1.4-5-1.4-7.6-1.7-5.5-.5-6.8-2.1-6.7-8.5.1-4.5-.5-9.1 1.7-13.3" fill-rule="evenodd" clip-rule="evenodd" fill="#F9DE4F"/><path d="M614 141.8c.2 5.7-1.1 11.1-2.8 16.5-.5 1.5-1.2 1.9-2.7 1.5-4.2-1.3-8.5-2.5-12.8-3.7-1.4-.4-2.2-.7-1.5-2.5 2.9-7 3.1-14.2 1-21.4-.4-1.3-.2-2.2 1.3-2.9 3.9-1.8 7.8-3.8 11.6-5.8 1.9-1 2.5-.3 3.1 1.4 1.8 5.5 3 11.1 2.8 16.9" fill-rule="evenodd" clip-rule="evenodd" fill="#43558A"/><path d="M178.3 45.3c.4-.1.8-.1 1.3-.2 1.2.1 2.1-.7 3.2-1.2 4.7-2.4 9.4-4.8 14.1-7.3 2-1 3.1-1 3.5 1.7.6 3.4 1.3 6.7 2.3 10 .9 3.1.1 4.8-2.7 6.1-5.3 2.5-10.4 5.2-15.6 7.9-1.8.7-3.8 1.1-5.4 2-2.1 1.2-3.4.8-5-1-2.7-3.2-5.6-6.2-8.6-9.1-2-2-1.3-2.7.9-3.5 3.9-1.6 8.3-2.6 12-5.4" fill-rule="evenodd" clip-rule="evenodd" fill="#E8753D"/><path d="M85 85.4c-.2 1.8-1.6 2-3 2.5-3.2.9-6.3 2.1-9.4 3.2-1.3 0-2.5.5-3.5 1.4-.2-.1-.4 0-.6.1-1.6.5-3.4.8-4.8 1.7-2.5 1.5-3.9.7-5.3-1.5-1.9-3-4.1-5.9-6.3-8.7-1.4-1.7-1.5-2.4.7-3.4 7.9-3.7 16.2-6.5 24.4-9.4 2-.7 2.6.1 3.2 1.8 1.4 4.1 3 8.2 4.6 12.3" fill-rule="evenodd" clip-rule="evenodd" fill="#0E95CF"/><path d="M183 224.5c-1.3.7-2.6 1.5-3.5 2.6l-9.4 6.8c-1.1.9-2.1 1.3-3.7.8-4.7-1.4-9.5-2.6-14.4-3.8-1.6-.4-2.3-.8-1.9-2.6.9-3.9 1.6-7.8 2.3-11.7.2-1.3.6-2 2.2-1.6 9.6 2 19 4.8 28 8.6.2.2.3.7.4.9" fill-rule="evenodd" clip-rule="evenodd" fill="#494645"/><path d="M209.2 31.3c-.7-3.8.1-6.3 4.6-7.2 3.4-.7 6.1-3.8 9.8-4.2 2.6 0 5.1 0 7.7.1 1.3 3.4 4.8 5.2 6.2 8.7.8 2 1.1 4.1-.9 4.8-5.7 2-10.7 5.6-16.4 7.8-.4.1-.9.2-1.2.5-3.9 2.3-6.4 1.2-7.1-3.1-.1-.9-.3-1.6-1.3-1.8-.5-1.8.7-4.1-1.4-5.6" fill-rule="evenodd" clip-rule="evenodd" fill="#F9DE4F"/><path d="M527.6 217c-1.3-.2-2.3-.4-3.1-1.5-2.9-3.6-6.4-6.6-9.7-9.8-2.6-2.5-2.3-3.1 1.2-4 5.2-1.4 10.3-2.9 15.4-4.4 2.1-.6 3.3-.3 4.7 1.7 2.4 3.2 5.2 6.1 8.3 8.8 1.2 1 3 2.9.1 3.9-5.6 1.9-11.3 3.5-16.9 5.3" fill-rule="evenodd" clip-rule="evenodd" fill="#E8753D"/><path d="M381.3 37c-4.7-1.9-9.4-3.8-14.1-5.6-1.4-.5-1.2-1.4-.9-2.5 1.3-4.5 2.6-9 3.9-13.4.3-1.1.6-1.8 2.2-1.2 8.7 3.4 17.2 7.2 25.6 11.4-1.1 2.1-3.4 2.4-4.6 3.9-1.6.4-2.9 1.3-4.1 2.5l-3.7 2.3c-1.5.8-2.9 1.7-4.3 2.6" fill-rule="evenodd" clip-rule="evenodd" fill="#43558A"/><path d="M359.7 270.7c-1.9-3.6-3.8-7.2-5.6-10.9-.4-1.3.6-1.5 1.7-1.8 4.9-1.5 9.8-3 14.6-4.7 1.8-.6 2.8-.7 4 .9 2.5 3.3 5.1 6.4 7.9 9.5 1.3 1.5.7 2.1-.8 2.7-6.1 2.3-12.4 4.4-18.7 6.4-2.4.8-2.2-1.2-3.1-2.1" fill-rule="evenodd" clip-rule="evenodd" fill="#494645"/><path d="M448.6 224.9c-2-.8-2.4-2.8-3.3-4.3-.9-1.4.4-2.2 1.9-2.6 5.5-1.4 11-2.8 16.5-4.1 5.3-1.3 10.6-2.6 15.8-3.8 5.9-1.3 12-2.2 17.8-4 2.6-.8 4.2 2 5.9 3.5 3.7 3.3 7 7.1 10.8 11.1-6.1 1.5-11.7 2.8-17.3 4.2-13.9 3.5-28.2 5.6-42 9.8-1.3.4-2.4.3-3-1.4-1-2.8-3.2-5.1-2.8-8.3.2.4.3 1.2.5 1.2 3.3.6 3.7 2.6 3.7 5.5 0 1.5 2.2.8 3.4.9.6.1 2-.3 1.6-.7-1.9-1.9.3-1.2.9-1.6 2.1-1.4 3.8 1 5.6.6 4.3-.9 9-1.4 12.9-2.9 7.3-2.9 15.7-1.5 22.4-6.3.6-.4 1.9-.1 2.8-.1 1.1 0 2.2.1 3.2-.1 1.7-.3 3.1-3.7 2.1-3.7-1.9-.1-1.9-2.4-3.6-2.4-1.5-5.4-8.3-7.8-14-5.9-5.2 1.7-10.6 3.4-16 3.6-5.5.1-9.6 3.8-15 3.6-2.9-.1-5.8 1.5-8.7 2.1-1.2.3-2.6.7-1.8 1.8 1.3 1.7-.4 2.9-.3 4.3" fill-rule="evenodd" clip-rule="evenodd" fill="#3398BA"/><path d="M24 97.9c.1-1.1.9-1.4 1.4-1.8l10.9-7.6c1.4-1 2.2-.6 3.2.8 2.5 3.7 5.1 7.4 7.8 11 1 1.4 1.1 2.4-.6 3.1-.1 0-.2.1-.3.2-5.3 4.9-10.2 4.4-15.2-.6-1.7-1.7-3.9-2.7-5.9-4.1-.5-.3-.9-.7-1.3-1" fill-rule="evenodd" clip-rule="evenodd" fill="#43558A"/><path d="M140.4 172c-6.2 3.3-12.7 5.2-19.7 5-6.1-.2-8.6-3.4-7-9.4 1.8-6.8 6.8-11.1 12-15.1 9.7-7.5 21.3-10.1 33-12.3 2.1-.4 3.1.8 2.7 2.9-.3 2-.8 3.9-1.3 5.8-4.2 9.8-10.8 17.4-19.7 23.1m18.7-51.2c-5.8-.8-11.6-.4-17.3 1.1-1.1.3-2.4 1.2-3.3.3-1-1 .2-2.1.5-3.2 2.5-7.7-.7-13.7-8.7-15.2-14.7-2.8-27.9 1.1-39.5 10.5-6.3 5.1-11.6 11.2-14.7 18.9-2.6 6.5-.4 12.1 5.6 15.1.8.4 1.8 1.1 2.6.5.9-.7.4-1.7.1-2.6-.8-2.7-.9-5.3.1-7.9 2.7-6.8 6-13.3 10.6-18.9 7.1-8.7 16-13.1 27.3-11.5 4.7.7 6.6 3.4 5.9 8.2-.4 3-1.9 5.5-3.2 8.1-.7 1.4-1.7 3.2-.5 4.6 1.2 1.3 3 1 4.6.5.6-.2 1.1-.4 1.7-.5 5.9-1.2 11.6-3.7 17.8-2.9 3.6.3 7 1.1 9.6 3.8 1.6 1.7 3.4 3.6 1.5 6.3-4.6 1.1-9.2 2.1-13.9 3.2-2.5.9-5.1 1.6-7.6 2.6-10.8 4.2-20.6 9.7-26.6 20.4-4.4 7.9-2.9 14.9 4 18.2 2.1 1.2 4.4 1.4 6.8 1.5 11.6.8 22.1-2.7 32-8.3 8.7-4.9 15.6-11.7 20.2-20.8 7.9-15 .7-29.7-15.6-32" fill-rule="evenodd" clip-rule="evenodd" fill="#fff" class="logo-b"/><path d="M119.6 109.1c-5.5-.9-12.7 5.4-12.6 12 .7 8.4 4.2 16.5 9.2 24 .3.5.7 1 1.4.8.8-.2.9-.9.9-1.6-.6-11 .1-22 2.4-32.8.2-1 .3-2.2-1.3-2.4" class="firs-letter" fill-rule="evenodd" clip-rule="evenodd" fill="#3C4C63"/><path d="M436.6 146m-16.5.7c-2.4.4-4-2.9-5.4-5.1-.4-.5-.4-1.3-.5-2-.6-3 .7-5.7 3-6 3.1-.4 3.8 2 4.5 4.2.2.8.2 1.6.3 2.6-.5 2.2.1 6-1.9 6.3m-54.5-31.2l.2-.2-.2.2c-.1.1-.2.2-.2.3 0-.1.1-.2.2-.3m6.3-14.6c1.6-3 3.4-5.7 5.9-8-.1-.4-.6-.9-.1-1.1.4-.1 1 .3 1.5.4 3.5.8 4.8 2.8 4 6.5-1.1 5.3-4.2 9.7-7.1 14.1-2.8 4.2-5.8 8.3-9.7 12.1-1.6-3.5.1-6.7 0-9.9 1.5-4.8 3.1-9.6 5.5-14.1m-11.1 23.6c-.3.1-.5.1-.7 0h.7c.5-.3 1.2-.4 1.4-1-.2.6-.9.7-1.4 1m-109.7 7.4l2.1.2-2.1-.2m-13.7-6.6c-.2-1.2.4-2.7 1.8-2.5 2.7.4 3.1 2.8 3.4 5.1-.1.7.2 2-1 1.6-2.2-.5-3.8-1.9-4.2-4.2m98.4-.3c2.5-.4 4.8-.1 5.8 2.5 1 2.8-1 4.6-3 5.9-2.5 1.5-5.2 2.4-8.3 1.6-.2-4.5 2.3-7.4 5.5-10m-5.5 10.2c.1.2.2.3.3.4l-.3-.4m215.4-2.4c-1.3-.5-2.4.2-2.8 1.3-.6 1.4-.9 2.8-1.3 4.3-2.2 7.7-4.8 15.2-10.1 21.4-1.7 2-3.4 3.6-6.1 1.5-.6-3.1-.7-6.2-.2-9.3l2.3-14.4c.4-2.4-.3-4.6-3-4.3-4.6.5-9 1.6-11 6.7-1.2 3.1-2.7 6.2-4.1 9.2-.8 1.6-1.1 4.1-3.5 3.6-2.4-.5-2.2-3-2.6-4.8-.1-.6-.1-1.2 0-1.7.8-7.4 4-13.5 10.2-17.8 3.4-2.4 7.2-3.9 11.5-2.9 1.1.3 2.5.8 3.2-.4.6-1.1.3-2.5-.4-3.6-1.1-1.8-2.9-2.7-4.7-3.4-5.5-2.3-10.8-1.5-15.9 1-10.1 4.9-15.1 13.2-16.8 24-1 6.7-3.5 12.7-8.4 17.5-1 .9-1.9 2.3-3.5 1.6-1.6-.7-1.6-2.2-1.5-3.6.2-4.7.8-9.4 1.8-14.1 1.2-5.8 2-11.6 1.6-17.6-.4-6.7-4.3-9.6-10.8-8.3-6.6 1.4-10.7 5.8-13.4 11.7-1.4 3.1-2.5 6.2-3.8 9.3-.1 1.5-.5 2.9-2 4.1v-4.1c-.1-3.7-.1-7.4-.4-11-.2-2-.7-4.2-3.5-3.4-5.3 1.3-9.2 6.4-8.7 11.7.3 2.9-.3 5.4-2.1 7.7-2.6 1.7-5.2 3.3-8.5 3.8-2.5.4-3.5.1-2.6-2.7 1-3.2 1.6-6.6.6-9.9-.8-2.8-2.4-5-5.5-5.7-3-.7-5.6.2-7.5 2.5-2.5 3-3.1 6.4-1.7 10.1 1.1 2.8 3.3 4.8 5.7 6.4 1.7 1.2 2.3 2.2.2 3.5-2.9 1.8-5.3 5.1-9.3 3.6-4-1.5-4.6-5.2-5-8.8 0-.2-.1-.4-.2-.7 0-.4 0-.9.1-1.3.1 0 .2-.1.2-.1l-.2-.5.1-1.5c.9-2.4 1.9-4.8 2.8-7.1l.1-.2c3.4-4.9 7.7-8.6 13.3-10.8h.3l.2-.2c1.5-.1 3-.1 4.4-.9-.7-1.1-1.5-1.8-2.8-2-6.6-3.8-13.3-3.6-19.9.1-4.4 2.2-7.7 5.4-9.8 9.8-1.7 2-2.1 4.5-3 6.9-2 5.9-3.8 11.8-7.8 16.8-3.6 1.1-6.3.1-8.4-3.5-4.2-7.3-5.4-15.1-4.6-23.4 3.8-3.3 7.1-7 10.2-10.9 4.4-5.6 8.2-11.5 9.7-18.5 1.1-5-.1-7.7-4.4-10-5.1-2.4-9.6-.6-13.6 2.5-6.2 4.9-10.1 11.4-12.9 18.6-3 7.7-2.7 15.9-3 23.9-.3 8.1-4.9 13.7-10.6 18.6-2.4 2.1-5.5 3.4-8.7 1.8-3.3-1.6-4.2-4.7-4.1-8.2 0-.9 0-1.9-.1-2.8-.7-3.3.6-5.2 4-5.6.4 0 .8 0 1.2-.1 2.8 0 5.1-1.4 7.1-3.1 2.6-2.2 3.7-5.2 2.7-8.3-.9-2.8-3.4-4.2-6.4-4.4-4.4-1.3-8.6-.5-12.5 1.8-5.6 3.2-8.2 8.5-10.8 14.1-3.9 8.4-9.6 15.3-18.7 18.6-3.7 1.4-6.5 0-7.7-3.6-2.8-8.6 4.2-25 16-23.3 1 .1 2.2.1 2.6-1.2.5-1.3-.2-2.2-1.1-3-1.6-1.4-3.5-1.8-5.5-2-11.9-1.5-25.1 8.9-27.1 21.2-.3 1.8-.2 3.7-1.6 5.2-2.9 3.2-5.9 6.3-9.5 8.7-1.5 1-3.4 1.9-4.9.8-1.6-1.2-.1-3 .4-4.4 1.6-4.2 4.2-8 5.3-12.4.9-3.4 1.2-6.9-2.3-9.4-1.4-.4-2.7-.7-4.1-.8-.7-.1-1.4-.2-2.1-.2l2.1.2c1.4.2 2.8.4 4.1.8-2.3-2.5-5.5-2.6-8.4-2.4-5.2.2-8.4-.6-9-6.7-.5-4.3-5.4-5.3-8.2-2.2-2.7 2.9-2 6.6 2 8.9 2.6 1.5 2.9 3.1 2.1 5.7-2 6.7-5 12.9-8.2 19.1l-3.6 5.5c-.7 1.1-1.6 1.6-2.9 1.3-1.4-.3-2-1.2-2.2-2.4-.2-1-.2-2.1-.1-3.1.8-6.3 1.6-12.6 2.5-18.9.2-1.4.5-2.8-.9-3.8-3.1-2.2-7.9-.8-9.7 2.6-2.5 4.8-5.6 9.3-9.4 13.3-.9.9-1.8 2.2-3.2 1.8-1.6-.4-1.7-2.1-2-3.4-2.5-13 10.5-25.5 23.5-22.7.8.2 1.6.5 2.2-.3.5-.7.3-1.5.1-2.3-.6-1.7-2-2.8-3.5-3.8-4-2.5-8.3-3-12.8-1.9-10.6 2.6-20.9 14.8-21.6 25.6-.2 2.2.1 4.4.6 6.5 2.2 8.3 11.5 11.6 18.6 6.6 4.5-3.2 4.5-3.2 6.6 1.9.7 1.8 1.5 3.7 2.5 5.3 3 5 9.3 5.6 13.3 1.2 1.9-2 3.7-4.2 4.8-6.8 4-6 7.3-12.3 9.6-19.1.3-.3.5-.6.8-.8l2 .9 1.4 1.7c.3 5.8.4 11.5 1.3 17.3.8 5.6 2.8 7.3 8.5 7.5 3 .1 5.5-.8 7.7-2.7 2.8-2.3 5.4-4.8 7.7-7.6 1.7-2 2.6-2.5 4.4.2 5.5 8.2 15.6 10.1 24 4.8 4.8-3.1 9-6.9 13.5-10.6.4.6.8 1 1.1 1.4 9.6 14.2 24.7 14.2 34.6.2 1.4-1.9 2.9-3.8 4.5-6 1.9 3.1 3.6 5.8 5.4 8.5 5.2 7.8 11.9 10.3 19.4 7.4 4.8-1.6 7.1-5.2 8.4-9.7 2.6-.9 2.7 1.6 3.6 2.8 3.4 4.8 7.3 8.5 13.9 7.5.8.1 1.6.5 2.2-.5 5.1-1.2 9-4.4 13-7.6 1.2-.9 2.3-1.7 3.9-1.9 4.5-.4 8.9-1.5 12.7-4.2l1.3-1.7c1.3-.2 1.9.5 2 1.7.2 2.5 1.7 4.4 3.1 6.4 5.1 3.1 8.7 1.7 10.1-4 1.5-6.3 3.5-12.4 6.5-18.2.9-1.7 2-3.1 4.3-2.5 2.5.6 2 2.5 1.9 4.2-.4 4.5-.8 9-1.1 13.5-.3 4.4-.5 8.8.5 13.1 1.6 7 6.9 9.8 13.8 7.4 4.7-1.6 7.2-5.3 9.5-9.2 2.8-4.7 2.9-4.6 7.4-1.7 4.7 3.1 8.7 3.5 12.2.3 2.4-2.2 3.3-1.6 4.6.9 2 3.7 3.9 7.7 8.6 9 4.6 1.7 10 .3 13.3-4.1 6-8.1 9-17.6 12-27.1-.1-1.4-.4-2.4-1.6-2.8" fill-rule="evenodd" clip-rule="evenodd" fill="#fff" class="logo-word"/><path d="M377 93.4c-.3.2-.6.4-.8.6 0-.3-.3-.8 0-1 .2-.1.5.3.8.4" fill-rule="evenodd" clip-rule="evenodd" fill="#3C4C63"/><path d="M265.2 260.1c.2 0 .4 0 .5.2.1 1.1.8 1.2 1.6 1.5l8.6 1.8c4 1 7.9 2.7 12.1 2.6 2.7-.1 4 1.4 4 4.2 0 2.6-.1 5.1 0 7.7.1 2.1-1 2.8-2.6 3.5-2.8 1.3-5-.9-7.5-.9-4.5.1-8.8-1.5-13.2-2.4-3.4-.7-6.6-2.5-9.9-3.2-4.8-1-9.2-2.9-13.7-4.6-1.5-.6-2.4-1.6-2.7-3.4-.5-3.9-1.2-7.7-2.8-11.3-1-2.3-.5-3.2 1.8-2.7 2.2.5 4.5 1.3 6.6 2.1 5.6 2.2 10.7 6.3 17.2 4.9" fill-rule="evenodd" clip-rule="evenodd" fill="#0B96D2"/><path d="M180 241.1c.3-3 3.8-3 4.9-5.3l2.7-1.9.8-.8c.2-.2.5-.5.8-.7h.1c4.2-3.9 8.3-2.6 12.4.2.4.2.9.3 1.3.4 5.3 2.7 10.5 5.5 15.8 8 2.1 1 3.3 2.3 3.8 4.5 1.2 4.8 2.6 9.6 3.9 14.3.3 1 1 2.1-.1 2.9-.8.6-1.8 0-2.7-.4l-31.7-15.6c-2-1-4-1.8-6-2.7-.8-.7-1.7-1.3-2.9-1.3l-.2-.2h-.2c-.7-.7-1.3-1.3-2.4-1.2 0-.1-.1-.2-.3-.2" fill-rule="evenodd" clip-rule="evenodd" fill="#E8753D"/><path d="M265 259.7c-6.5 1.3-11.6-2.6-17.3-4.6-2.2-.8-4.4-1.5-6.6-2-2.3-.5-2.8.4-1.8 2.5 1.5 3.4 2.3 7 2.8 10.7.2 1.7 1.2 2.7 2.7 3.2 4.5 1.6 8.9 3.4 13.6 4.4 3.3.6 6.5 2.3 9.9 3 4.4.9 8.7 2.4 13.2 2.3 2.6-.1 4.7 2.1 7.5.8 1.7-.8 2.7-1.3 2.6-3.4-.1-2.4-.1-4.9 0-7.3 0-2.7-1.2-4.1-4-4-4.2.1-8-1.6-12-2.5-2.8-.6-5.7-1-8.5-1.7-.9-.2-1.5-.4-1.6-1.4 8.4 1.7 16.7 3.9 25.3 4.4 1.8.1 2 1.2 2 2.6l.2 13.2c.1 1.8-.7 2.2-2.3 2-12.5-1.4-24.9-3.7-36.8-7.6-1.3-.4-2.5-1.2-3.9-.7l-.1-.1c-1.5-1.8-3.9-1.7-5.8-2.6-.9-.4-2.1-.5-2.4-1.7-1.8-6.4-3.5-12.8-5.6-20.2 10 4.4 19.4 7.7 28.9 10.7" fill-rule="evenodd" clip-rule="evenodd" fill="#3398BA"/><path d="M189 234l-1 1c0-.6.4-1 1-1" fill-rule="evenodd" clip-rule="evenodd" fill="#F4EBDD"/><path d="M189 234l-1 1c0-.6.3-.9 1-1" fill-rule="evenodd" clip-rule="evenodd" fill="#F4EBDD"/><path d="M314.2 282c-1.6 0-3.8-.1-6.1 0-2 .1-2.8-.6-2.8-2.7 0-3.9-.1-7.8-.3-11.7-.1-1.7.7-2.2 2.2-2.2 10.9.2 21.6-1.4 32.2-3.3 1.5-.3 2.8.1 3.2 1.7 1.1 4 3.5 7.5 5.1 11.3.7 1.8.3 2.3-1.4 2.7-10.4 2.3-20.9 3.7-32.1 4.2" fill-rule="evenodd" clip-rule="evenodd" fill="#E8753D"/><path d="M389.6 259c-.8-3.4-3.8-5.4-5.1-8.5-.4-1-1.1-2.4.4-2.5 4-.3 6.6-3.5 10-4.9 9.8-4.1 18.8-10.1 28.8-14 2.7-1.1 5-3.3 8-3.8 2-.4 3.6-.5 4.5 2.3 1 3 2.6 5.9 4.1 8.7 1.6 2.8.1 3.7-1.8 4.4-7.3 2.7-14 6.6-20.8 10.2-7.2 3.7-14.4 7.3-21.7 10.9-1.5.8-3.1.6-4.4-1-.4-.9-.8-1.9-2-1.8z" fill-rule="evenodd" clip-rule="evenodd" fill="#F9DE4F"/><path d="M327 13.2l1.1-3.7c2.4-7.2 2.4-7.2 9.4-5.8 7.3 1.5 14.6 3.2 21.7 5.7 1.7.6 2.3 1.3 1.7 3.2-1.3 4.2-2.4 8.4-3.4 12.7-.6 2.6-2.2 1.5-3.4 1.1-6.2-2-12.4-3.7-18.7-5-.1-2.7-1-3.6-3.7-2.9-3.7 1-4.2.3-4.4-3.9-.2-.4-.2-.9-.3-1.4" fill-rule="evenodd" clip-rule="evenodd" fill="#0E95CF"/><path d="M326.9 13l.2 1.5c.2 4.6.6 5.4 4.3 4.3 2.7-.8 3.6.2 3.7 3.2-2.5-.4-4.9-1.1-7.4-1.3-2.4-.2-3.2-1.1-2.1-3.9.4-1.2.3-2.8 1.3-3.8" fill-rule="evenodd" clip-rule="evenodd" fill="#3398BA"/><path d="M411.8 33.2c1.6-.5 3-.1 4.4.6 13.9 7.2 27.8 14.2 43 18.1 1.3.3 2 1.1 2.2 2.4.8 4.8.3 9.6.5 14.4.1 1.7-1 1.4-2.1 1.3-4.6-.6-8.8-2.8-13.4-3.1-2.9-1.9-6.3-2.5-9.4-3.8-13.6-5.5-26.6-12.3-39.6-19.1-.2-.1-.3-.4-.5-.7 5-3.4 10-6.8 14.9-10.1" fill-rule="evenodd" clip-rule="evenodd" fill="#E8753D"/><path d="M504.9 215.1c1.7 0 1.7 2.5 3.7 2.6 1 .1-.4 3.7-2.2 4.1-1.1.2-2.2.1-3.3.1-1 0-2.3-.3-2.9.1-6.9 5.2-15.7 3.7-23.2 6.9-4 1.7-8.9 2.3-13.4 3.2-1.9.4-3.6-2.2-5.8-.7-.6.4-2.9-.3-.9 1.8.4.4-1 .8-1.7.7-1.3-.1-3.5.7-3.5-1 0-3.1-.4-5.3-3.8-6-.3 0-.4-.9-.6-1.3-.2 0-.2 0-.3-.2-.2-1.5 1.6-2.8.2-4.7-.9-1.1.6-1.6 1.8-1.9 3-.7 6.1-2.4 9-2.3 5.7.2 10-3.8 15.6-3.9 5.6-.1 11.2-2 16.6-3.9 6.1-2.1 13.1.6 14.7 6.4 0 .1-.1.2-.2.3.1-.1.2-.2.2-.3" fill-rule="evenodd" clip-rule="evenodd" fill="#0B96D2"/><path d="M502.6 215.3c-.1.1-.1.2-.2.4l.2-.4z" fill-rule="evenodd" clip-rule="evenodd" fill="#3398BA"/></g></svg>
