<?xml version="1.0" encoding="UTF-8"?>
<svg width="614px" height="282px" viewBox="0 0 614 282" version="1.1" xmlns="http://www.w3.org/2000/svg" xmlns:xlink="http://www.w3.org/1999/xlink">
    <!-- Generator: Sketch 56.3 (81716) - https://sketch.com -->
    <title>logo</title>
    <desc>Created with Sketch.</desc>
    <defs>
        <polygon id="path-1" points="0.542570353 0.550292683 78.8393788 0.550292683 78.8393788 28.4767066 0.542570353 28.4767066"></polygon>
    </defs>
    <g id="Welcome" stroke="none" stroke-width="1" fill="none" fill-rule="evenodd">
        <g id="v1-Homepage" transform="translate(-140.000000, -246.000000)">
            <g id="logo" transform="translate(140.000000, 246.000000)">
                <path d="M536.289835,70.0166812 C537.691012,69.8582098 538.97805,70.8678373 540.368023,71.3934459 C547.121122,73.9469142 553.839209,76.5986204 560.545392,79.2790092 C569.731819,82.9518159 578.056252,88.2014484 586.332369,93.418813 C592.016905,97.0027037 597.127944,101.775488 601.17042,107.478306 C605.247208,113.227015 605.278719,113.172518 598.884842,116.256615 C596.071285,117.612585 593.23882,118.957081 590.558308,120.558287 C589.180939,121.381478 588.444989,120.984941 587.65442,119.93946 C582.140743,112.649778 574.842158,107.494081 567.114328,103.203881 C559.832549,99.1610692 552.225159,95.4222925 544.346778,92.9168676 C538.084546,90.9255782 532.353095,87.1911039 525.606999,86.7300311 C523.628825,86.5952229 523.783578,84.7394588 524.451605,83.7620993 C527.475935,79.3385256 530.740446,75.0884816 533.882416,70.7488045 C534.486721,69.9134238 535.27659,70.0410614 536.289835,70.0166812" id="Fill-1" fill="#F9DE4F"></path>
                <path d="M93.4781779,208.143859 C93.1878928,211.054977 94.4306757,215.062838 92.3435541,216.576537 C90.4839154,217.924417 86.9279234,215.695152 84.1939405,214.883947 C66.1683546,209.536462 48.3597847,203.630285 32.2036067,193.791932 C26.0615655,190.051032 20.3821662,185.736991 15.2254196,180.730089 C13.7077032,179.256297 13.3999731,178.433395 15.4529026,177.228629 C18.9419057,175.183071 22.315074,172.943485 25.7070828,170.741054 C26.7237783,170.081219 27.5436941,169.543856 28.730653,170.584868 C42.4103365,182.571985 59.0424146,188.929519 76.0450247,194.537085 C81.1040793,196.204905 86.2245403,197.706219 91.3645398,199.116023 C93.3790902,199.668523 94.3169342,200.478352 93.9045341,202.673215 C93.5681942,204.460755 93.6058754,206.317788 93.4781779,208.143859" id="Fill-3" fill="#494645"></path>
                <g id="Group-7" transform="translate(240.000000, 0.000000)">
                    <mask id="mask-2" fill="white">
                        <use xlink:href="#path-1"></use>
                    </mask>
                    <g id="Clip-6"></g>
                    <path d="M61.8505107,18.4290756 C44.676475,18.8909537 28.0801268,22.329222 11.9352071,28.0832463 C10.28185,28.6724415 9.26260893,28.8054171 8.20668929,27.0024659 C6.13011786,23.4573927 3.84969821,20.0170024 1.43243929,16.6947341 C-0.129926786,14.5480268 0.411082143,13.6016366 2.69361786,12.7733683 C13.1872161,8.96588049 23.8381089,5.70868537 34.8233411,3.68929512 C48.6102518,1.15497805 62.4937964,-0.051704878 76.5311089,0.844465854 C78.8524393,0.992295122 79.3045732,1.43012439 78.4137071,3.66595366 C76.7624661,7.81083171 75.3397607,12.0533195 73.985475,16.3078317 C73.4113143,18.1129049 72.4506179,18.5818561 70.6491357,18.4750512 C67.7254304,18.3024659 64.7840911,18.4290756 61.8505107,18.4290756" id="Fill-5" fill="#494645" mask="url(#mask-2)"></path>
                </g>
                <path d="M162.932798,67.3226223 C163.356657,69.2583442 161.673768,68.9132897 160.73333,69.1326214 C144.273918,72.9794673 127.79917,76.7620852 111.336969,80.5973154 C107.164603,81.5689344 102.982476,82.5405534 98.8895829,83.7793334 C96.9369013,84.3703675 96.1986329,83.760885 95.6067633,82.1100893 C94.2633797,78.3623184 92.9109334,74.6131811 91.3904769,70.9323713 C90.5797063,68.9679518 90.9701031,68.2744263 93.142383,67.7066236 C108.489163,63.6957914 123.961429,60.2076655 139.444848,56.7578032 C140.008832,56.6320804 140.604187,56.5746851 141.129829,56.35672 C146.665099,54.0609114 151.538786,54.3683858 155.174357,59.7027243 C155.72161,60.6101153 156.423627,61.3651357 157.383585,61.8673438 C157.994277,62.5355881 158.60497,63.2031491 159.214965,63.8707101 C160.454475,65.0213475 161.693985,66.1719849 162.932798,67.3226223" id="Fill-8" fill="#494645"></path>
                <path d="M0.00176034506,140.162777 C-0.106127602,127.716086 4.74745564,115.650267 13.9289261,105.279778 C15.0023081,104.067725 15.8434217,103.487651 17.3785916,104.573449 C20.5581937,106.823603 23.8814174,108.861928 27.0727016,111.096651 C29.6922484,112.930863 29.5500013,114.027182 27.2005179,116.104787 C22.6135622,120.160395 19.6140024,125.388776 17.8664925,131.227393 C15.0744624,140.556974 15.9320685,149.660699 20.6131685,158.232046 C21.5869087,160.015055 21.1464235,160.965479 19.675849,161.897665 C16.3175789,164.025772 12.9407549,166.127927 9.63814683,168.343711 C8.36067108,169.200846 7.82604163,169.428106 6.83993206,167.723656 C2.18975539,159.686791 -0.0119833424,151.050913 0.00176034506,140.162777" id="Fill-10" fill="#E8753D"></path>
                <path d="M604.999082,170.874503 C604.414026,171.67456 603.767752,172.633791 603.049129,173.532983 C594.017294,184.836409 582.320362,192.61358 569.531233,198.912111 C566.210818,200.54783 562.754052,201.903599 559.416246,203.504411 C557.714646,204.320526 556.572362,204.194164 555.265205,202.632447 C552.364972,199.169721 549.378477,195.748883 546.12902,192.623354 C543.971759,190.549209 545.263611,190.233654 547.024343,189.550184 C555.331989,186.321332 563.444849,182.679187 571.112483,178.081999 C576.608246,174.786825 581.727654,171.024601 586.097134,166.308033 C587.041153,165.289461 587.902388,164.696748 589.372331,165.159609 C593.998511,166.614512 598.659475,167.9633 603.298178,169.379806 C603.99454,169.592736 605.035256,169.44194 604.999082,170.874503" id="Fill-12" fill="#494645"></path>
                <path d="M472.668796,62.0733893 C472.771617,59.0553871 470.900004,54.9937634 473.005048,53.3536846 C474.49942,52.1907716 478.357972,54.2144403 481.154276,54.8466135 C494.680746,57.9060462 508.123847,61.3140671 521.552359,64.7935199 C524.699503,65.6085591 524.466767,66.6343226 522.78968,68.8301424 C520.224027,72.1895895 517.809132,75.6776142 515.472047,79.2113554 C514.436894,80.7778592 513.542077,81.3300286 511.545411,80.8100036 C499.809271,77.7555712 488.048121,74.7911431 476.230003,72.0952993 C473.368394,71.4424108 472.324208,70.3037846 472.63406,67.4136458 C472.823027,65.6535612 472.668796,63.8549034 472.668796,62.0733893" id="Fill-14" fill="#494645"></path>
                <path d="M108.683735,202 C111.594241,202.931544 114.484962,203.398845 117.299177,204.194252 C123.983515,206.083343 130.781952,207.423297 137.505861,209.132657 C139.426413,209.621373 141.787531,210.604159 140.744154,213.589994 C139.168537,218.100868 140.308864,223.124167 138.318402,227.51726 C137.441887,229.45071 136.021259,230.577281 134.677137,229.69545 C130.476589,226.938295 125.50571,227.776532 121.315056,225.45685 C118.826649,224.07942 116.276246,224.019764 113.682314,223.793379 C108.192385,223.316135 106.856177,221.660313 107.011826,215.342948 C107.123286,210.816778 106.48618,206.163648 108.683735,202" id="Fill-16" fill="#F9DE4F"></path>
                <path d="M613.983102,141.79504 C614.151694,147.487929 612.90136,152.942655 611.220256,158.344606 C610.750263,159.857477 610.049746,160.287793 608.52416,159.820941 C604.285274,158.523904 600.030561,157.275583 595.762085,156.075299 C594.361739,155.682197 593.543551,155.352694 594.270905,153.578656 C597.145228,146.571816 597.33584,139.394474 595.262502,132.140676 C594.88403,130.815222 595.021656,129.988421 596.5961,129.288143 C600.543218,127.532373 604.385741,125.534382 608.184223,123.481586 C610.082088,122.455865 610.682826,123.135845 611.247093,124.884172 C613.0266,130.395055 614.15307,135.988484 613.983102,141.79504" id="Fill-18" fill="#43558A"></path>
                <path d="M178.324952,45.3233189 C178.745059,45.2613935 179.165853,45.1987564 179.58596,45.1361193 C180.803034,45.1895032 181.731114,44.4442639 182.74294,43.9211017 C187.443746,41.4924901 192.166517,39.1094327 196.841924,36.6295725 C198.806542,35.5875188 199.942616,35.6465969 200.387435,38.2901677 C200.954442,41.661895 201.65668,45.0357576 202.637616,48.3000052 C203.569814,51.401254 202.720676,53.1095389 199.891132,54.4263418 C194.607531,56.8848484 189.452983,59.6430167 184.245578,62.2766225 C182.424428,62.9400064 180.488641,63.3827369 178.811645,64.3230054 C176.722093,65.4953158 175.386949,65.1387114 173.825277,63.303017 C171.114488,60.1170657 168.201884,57.0990958 165.210337,54.1914526 C163.170896,52.2098422 163.875193,51.5364932 166.082814,50.6795037 C170.228282,49.070157 174.6346,48.0615571 178.324952,45.3233189" id="Fill-20" fill="#E8753D"></path>
                <path d="M85,85.4349537 C84.7543876,87.2474636 83.4014497,87.4688603 81.958822,87.8871318 C78.7886284,88.804947 75.688807,89.973585 72.5600088,91.0399322 C71.2112105,91.0504415 70.0521408,91.5583927 69.0310556,92.4271644 C68.8164897,92.3767196 68.627451,92.4257631 68.4639394,92.5756963 C66.839862,93.1165768 65.0709009,93.4038319 63.6255134,94.2557886 C61.1645601,95.7067775 59.7709168,94.9522072 58.337948,92.7200245 C56.399266,89.6989411 54.2701654,86.7815498 51.9934214,84.0147922 C50.6170261,82.3410055 50.5238866,81.5794291 52.6529872,80.5971566 C60.6022734,76.9308 68.8385672,74.0757641 77.093489,71.2424474 C79.1073726,70.5509332 79.6869074,71.39168 80.2905895,73.0906891 C81.7656437,77.2404751 83.4186978,81.3244025 85,85.4349537" id="Fill-22" fill="#0E95CF"></path>
                <path d="M183,224.546321 C181.65598,225.213652 180.435196,226.033885 179.452714,227.147614 C176.303732,229.418481 173.120706,231.648531 170.022108,233.980948 C168.878942,234.841351 167.905992,235.268961 166.352948,234.818027 C161.604623,233.438013 156.805914,232.203776 151.994269,231.036272 C150.418076,230.653367 149.703853,230.21863 150.113731,228.451824 C151.01451,224.568997 151.69469,220.636931 152.368743,216.710048 C152.590704,215.415556 152.995816,214.756648 154.537966,215.082539 C164.166022,217.118221 173.538755,219.896389 182.551993,223.727384 C182.783486,223.825863 182.854296,224.265783 183,224.546321" id="Fill-24" fill="#494645"></path>
                <path d="M209.200178,31.3443177 C208.547766,27.5074356 209.342611,25.0705448 213.795546,24.1921883 C217.192394,23.5212117 219.858319,20.3765396 223.56574,20 C226.116329,20.0233568 228.666918,20.0474213 231.216813,20.0707781 C232.561239,23.4886537 236.051885,25.2949114 237.389363,28.7948897 C238.161279,30.8163129 238.526046,32.8922353 236.463203,33.6148799 C230.722814,35.6278097 225.752952,39.231124 220.105666,41.376409 C219.690874,41.5243352 219.241342,41.6113923 218.866153,41.829389 C214.939872,44.1141068 212.424717,43.0396949 211.747293,38.7356772 C211.611808,37.8764307 211.474934,37.118397 210.457061,36.9768408 C210.457061,36.9768408 210.477904,36.9966587 210.476515,36.9973664 C210.05547,35.1118372 211.331806,32.8292427 209.200178,31.3443177" id="Fill-26" fill="#F9DE4F"></path>
                <path d="M527.588138,217 C526.311033,216.763885 525.321312,216.634781 524.439535,215.548099 C521.530652,211.967018 518.039292,208.925827 514.71896,205.723774 C512.125499,203.223853 512.410779,202.641159 515.956112,201.687033 C521.114297,200.298648 526.252154,198.833629 531.364078,197.289905 C533.507539,196.642315 534.637447,197.022032 536.103103,199.015894 C538.458948,202.217947 541.308251,205.131415 544.365031,207.801173 C545.567135,208.850574 547.320175,210.656648 544.421106,211.679124 C538.876004,213.633633 533.206136,215.245706 527.588138,217" id="Fill-28" fill="#E8753D"></path>
                <path d="M381.274743,37 C376.565927,35.11965 371.870011,33.2062003 367.14041,31.3779648 C365.724898,30.8307619 365.897626,29.9955203 366.235916,28.8736485 C367.58334,24.4037679 368.864826,19.9148725 370.17283,15.4337238 C370.496069,14.3280499 370.792072,13.6068969 372.362394,14.2308633 C381.040377,17.67958 389.577884,21.409293 398,25.6291645 C396.938545,27.7567066 394.586287,28.0257304 393.357838,29.573674 C391.74953,30.0222818 390.410707,30.904004 389.233144,32.0455947 C387.996095,32.7970305 386.759761,33.547762 385.523428,34.2991977 C384.1072,35.1992304 382.690971,36.0999673 381.274743,37" id="Fill-30" fill="#43558A"></path>
                <path d="M359.714091,270.747727 C357.835786,267.129778 355.957481,263.513092 354.079176,259.895775 C353.70863,258.564875 354.70136,258.420789 355.754234,258.098491 C360.645294,256.603283 365.548797,255.124505 370.350678,253.411904 C372.137729,252.774892 373.15742,252.739502 374.349249,254.301698 C376.839368,257.568912 379.488491,260.745124 382.259285,263.818327 C383.594216,265.299633 382.999684,265.898095 381.471876,266.473807 C375.322621,268.790559 369.094557,270.907612 362.785608,272.83887 C360.39089,273.57194 360.587915,271.615403 359.714091,270.747727" id="Fill-32" fill="#494645"></path>
                <path d="M448.629562,224.916274 C446.634325,224.160099 446.24414,222.128917 445.285111,220.648996 C444.401118,219.284295 445.72675,218.399792 447.155288,218.038953 C452.63933,216.654934 458.116226,215.241937 463.610987,213.893795 C468.889217,212.600157 474.190314,211.299621 479.460683,210.100505 C485.38565,208.753053 491.422812,207.883039 497.299184,206.132661 C499.908285,205.355789 501.521911,208.181783 503.164837,209.654804 C506.880178,212.985834 510.150308,216.780503 514,220.802162 C507.914243,222.295882 502.309429,223.632296 496.726768,225.049432 C482.806563,228.583994 468.52833,230.679341 454.753909,234.807251 C453.486877,235.186718 452.338472,235.141182 451.730325,233.406673 C450.759863,230.642084 448.493068,228.299739 448.889686,225.090138 C449.06334,225.508932 449.176966,226.256137 449.422797,226.300293 C452.712937,226.881222 453.120988,228.923444 453.12599,231.765306 C453.128849,233.270755 455.277016,232.556667 456.484019,232.660158 C457.110032,232.713284 458.482829,232.392462 458.08907,232.000576 C456.219608,230.137048 458.410652,230.780762 458.985211,230.392326 C461.088356,228.97381 462.758438,231.389979 464.58931,231.025001 C468.919231,230.162576 473.62433,229.639602 477.441149,228.093447 C484.718903,225.148093 493.184366,226.5604 499.799661,221.795676 C500.422816,221.347215 501.654117,221.683905 502.60314,221.661137 C503.672221,221.63492 504.768458,221.74945 505.803951,221.558336 C507.486896,221.246484 508.878988,217.887166 507.876367,217.827142 C505.940445,217.710542 505.963313,215.462718 504.283227,215.430291 L504.2868,215.43374 C502.751068,210.075667 496.021432,207.594644 490.271549,209.539584 C485.118379,211.283062 479.657205,212.987904 474.291077,213.114853 C468.837049,213.242491 464.700792,216.92677 459.253911,216.730137 C456.385401,216.625266 453.474728,218.19281 450.542617,218.831004 C449.362054,219.088352 447.956384,219.574759 448.774631,220.59311 C450.156004,222.311751 448.459481,223.499827 448.629562,224.916274" id="Fill-34" fill="#3398BA"></path>
                <path d="M24,97.9013705 C24.0708192,96.774938 24.8710761,96.5162536 25.4036364,96.1360546 C29.0012515,93.5685935 32.6604793,91.0973003 36.2715501,88.5492219 C37.6673964,87.5636866 38.5037711,87.9491039 39.4463746,89.3483852 C41.960456,93.0832807 44.5871399,96.7369181 47.2563154,100.35179 C48.288151,101.750326 48.3816324,102.714987 46.6663915,103.415746 C46.5573299,103.460476 46.4355209,103.499986 46.3505379,103.579008 C41.1000028,108.467174 36.1242461,107.971424 31.1088308,103.020638 C29.4212094,101.353726 27.1996112,100.289169 25.2350868,98.9279077 C24.7676801,98.6043659 24.3526796,98.1973293 24,97.9013705" id="Fill-36" fill="#43558A"></path>
                <path d="M140.352755,172.032821 C134.194273,175.316672 127.702634,177.214212 120.663669,177.021708 C114.540882,176.855294 112.047813,173.596828 113.663198,167.574907 C115.476657,160.816112 120.508989,156.468905 125.647007,152.490488 C135.329522,144.992703 146.964777,142.411175 158.663024,140.21818 C160.798441,139.817659 161.740516,140.976914 161.368165,143.080355 C161.022411,145.035012 160.533176,146.962873 160.106233,148.902721 C155.929187,158.699978 149.257673,166.334561 140.352755,172.032821 M159.079469,120.81335 C153.248543,119.988333 147.478509,120.381098 141.781965,121.954272 C140.716707,122.248316 139.422578,123.161476 138.493102,122.247611 C137.471238,121.244898 138.675778,120.099746 139.009633,119.058249 C141.490804,111.3186 138.312526,105.379886 130.323786,103.880047 C115.577444,101.112361 102.386995,104.944108 90.788135,114.369049 C84.4637746,119.507426 79.172477,125.578707 76.0816874,133.259829 C73.4759333,139.736567 75.670142,145.326941 81.6711453,148.365402 C82.5082342,148.788488 83.4377108,149.425232 84.2831986,148.836437 C85.2329725,148.175013 84.6485501,147.128581 84.3804856,146.262666 C83.5531955,143.59652 83.4629075,140.924028 84.5015696,138.319935 C87.202511,131.543511 90.4577788,125.057606 95.0939634,119.390372 C102.172124,110.737562 111.044146,106.273302 122.395939,107.927567 C127.082517,108.611556 129.023359,111.355973 128.319253,116.091713 C127.879011,119.051903 126.38121,121.579136 125.139575,124.224127 C124.460665,125.66967 123.397506,127.412078 124.679036,128.830826 C125.85418,130.13111 127.675338,129.834244 129.296323,129.299041 C129.84785,129.117114 130.401476,128.922495 130.969801,128.811082 C136.874917,127.650417 142.566561,125.157031 148.778236,125.8932 C152.384158,126.162565 155.817902,127.040468 158.399159,129.731999 C160.028543,131.431393 161.807007,133.357844 159.934755,136.040913 C155.310469,137.092986 150.686183,138.14506 146.061897,139.197133 C143.542931,140.065164 140.99037,140.846462 138.5092,141.815329 C127.720132,146.027853 117.881538,151.482134 111.933028,162.169986 C107.556509,170.031625 109.029813,177.114081 115.9078,180.388765 C118.007521,181.584688 120.338912,181.743345 122.664703,181.896361 C134.227868,182.655095 144.783167,179.182266 154.681253,173.62997 C163.381098,168.749675 170.305279,161.913314 174.926765,152.871266 C182.607545,137.843258 175.362807,123.117052 159.079469,120.81335" id="Fill-38" fill="#FFFFFF"></path>
                <path d="M119.648943,109.084461 C114.112514,108.192898 106.998611,114.506278 107,121.101056 C107.72972,129.457368 111.157529,137.590788 116.174615,145.127977 C116.478029,145.58351 116.850179,146.15815 117.547961,145.959638 C118.358221,145.729782 118.495,145.060413 118.457507,144.314426 C117.902753,133.266709 118.521383,122.308845 120.886204,111.474964 C121.103523,110.479618 121.157679,109.327551 119.648943,109.084461" id="Fill-40" fill="#3C4C63"></path>
                <path d="M436.623495,146.009362 C436.595431,146.016307 436.567367,146.022557 436.539302,146.027418 C436.567367,146.022557 436.595431,146.016307 436.623495,146.009362 M420.11329,146.739971 C417.70678,147.159446 416.084665,143.851564 414.668122,141.644457 C414.31802,141.099278 414.278028,140.347139 414.144022,139.681118 C413.528011,136.641311 414.814757,133.952919 417.183381,133.682066 C420.260627,133.330651 421.028185,135.650266 421.675768,137.917099 C421.892564,138.674794 421.857484,139.504022 421.955709,140.474927 C421.484229,142.600777 422.137425,146.385778 420.11329,146.739971 M365.590744,115.491838 C365.656695,115.428639 365.73738,115.373774 365.826484,115.320992 C365.73738,115.373079 365.656695,115.428639 365.590744,115.491838 C365.493221,115.584206 365.419552,115.687686 365.363423,115.7995 C365.419552,115.687686 365.493221,115.584206 365.590744,115.491838 M371.89959,100.929656 C373.479608,97.9481862 375.348688,95.2125682 377.824657,92.8964255 C377.766424,92.5054246 377.228993,91.9574676 377.753795,91.7782877 C378.154412,91.6407776 378.749375,92.0567804 379.258039,92.2276263 C379.256636,92.2290153 379.255233,92.2297098 379.25383,92.2310988 C382.75204,93.0026834 384.060536,94.9958856 383.271229,98.7649129 C382.16269,104.06183 379.077025,108.446181 376.151326,112.844421 C373.35402,117.048203 370.343427,121.126281 366.472663,124.958507 C364.917202,121.438804 366.523179,118.25593 366.49301,115.089031 L366.492308,115.089031 C367.945335,110.238674 369.509918,105.439015 371.89959,100.929656 M360.780529,124.477222 C360.490064,124.547366 360.264147,124.530003 360.092955,124.446664 C360.263445,124.529309 360.487959,124.546671 360.777021,124.475833 C361.313049,124.212619 361.99501,124.064691 362.164097,123.447285 C361.99501,124.064691 361.31375,124.212619 360.780529,124.477222 M251.107499,131.900685 C251.811211,131.954161 252.515624,132.001386 253.219335,132.052085 C252.515624,132.001386 251.811211,131.954161 251.107499,131.900685 M237.384777,125.333535 C237.177101,124.122334 237.791007,122.638892 239.138092,122.859741 C241.816124,123.298663 242.191483,125.664809 242.500892,127.978174 C242.423013,128.630999 242.687519,129.949152 241.499699,129.590098 C239.446097,128.969913 237.771362,127.589951 237.384777,125.333535 M335.787199,125.027262 C338.24633,124.623066 340.586188,124.88489 341.544583,127.488554 C342.579452,130.298483 340.591099,132.112506 338.506626,133.341763 C336.03206,134.801592 333.262819,135.723188 330.255733,134.926602 C330.075421,130.517944 332.641196,127.614258 335.787199,125.027262 M330.349047,135.15648 C330.425522,135.331493 330.513925,135.481504 330.623375,135.587067 C330.513925,135.481504 330.425522,135.331493 330.349047,135.15648 M545.721208,132.766026 C544.384647,132.262517 543.370124,132.970902 542.873387,134.095985 C542.275618,135.450946 541.939549,136.922582 541.528407,138.354632 C539.325363,146.030891 536.73012,153.523803 531.403523,159.749956 C529.730192,161.70635 527.967054,163.357166 525.262361,161.282708 C524.620391,158.187341 524.5804,155.082251 525.077839,151.963966 C525.841888,147.171947 526.613655,142.380622 527.344729,137.583742 C527.706057,135.212039 527.06549,132.968124 524.308878,133.252173 C519.728089,133.725124 515.305863,134.887015 513.347679,139.930442 C512.135303,143.054283 510.689993,146.093396 509.254506,149.126258 C508.500981,150.715263 508.160702,153.208502 505.72753,152.729995 C503.375745,152.267461 503.497824,149.773527 503.105626,147.893528 C502.989861,147.337932 503.021434,146.735804 503.081772,146.164929 C503.866168,138.766468 507.0683,132.636155 513.250857,128.330283 C516.632601,125.974554 520.447937,124.477222 524.776148,125.446043 C525.914154,125.700228 527.250012,126.203043 527.939692,124.996704 C528.582363,123.872316 528.282777,122.50416 527.570647,121.361715 C526.471229,119.594223 524.69406,118.693463 522.851641,117.919795 C517.388932,115.625181 512.063037,116.410656 506.926576,118.876115 C496.80099,123.736889 491.792221,132.125701 490.169405,142.875103 C489.166108,149.528371 486.695049,155.568398 481.72978,160.375002 C480.769982,161.302848 479.868418,162.647391 478.195788,161.949423 C476.579286,161.274374 476.61156,159.704119 476.677511,158.361659 C476.90834,153.623811 477.452085,148.915825 478.453979,144.265483 C479.700734,138.476168 480.426195,132.624349 480.053642,126.702385 C479.636888,120.050507 475.778052,117.080844 469.260127,118.420526 C462.624332,119.78521 458.527651,124.175811 455.900135,130.072772 C454.536212,133.134803 453.384174,136.289896 452.136016,139.402625 C452.03288,140.927043 451.606303,142.325757 450.14626,143.502927 L450.14626,139.401931 C450.019269,135.724577 450.004535,132.038889 449.71828,128.374036 C449.563926,126.397502 449.065786,124.214702 446.170957,124.932116 C440.898384,126.240546 436.97079,131.347866 437.456302,136.664924 C437.723614,139.608891 437.164434,142.09449 435.36341,144.371741 C432.740103,146.070477 430.132231,147.670595 426.884495,148.150491 C424.34959,148.524824 423.360325,148.278973 424.272414,145.463488 C425.314299,142.247974 425.823666,138.905367 424.828788,135.560676 C423.993876,132.752831 422.393511,130.573504 419.325386,129.824143 C416.284623,129.081727 413.722356,130.050548 411.783115,132.311131 C409.2433,135.27246 408.659563,138.710908 410.107679,142.366732 C411.216217,145.162772 413.386286,147.124721 415.799111,148.784566 C417.518047,149.965903 418.054776,150.977088 415.983634,152.268155 C413.105644,154.062732 410.681593,157.366447 406.689452,155.874671 C402.714149,154.389839 402.084107,150.692345 401.649111,147.043465 C401.62245,146.81706 401.527031,146.599683 401.463185,146.377444 C401.487741,145.94894 401.512999,145.520437 401.537555,145.091933 C401.615433,145.061375 401.762069,145.010677 401.760666,145.004427 C401.708747,144.837053 401.642095,144.674541 401.578248,144.509946 C401.626659,144.025882 401.675772,143.539735 401.724884,143.054283 C402.671351,140.677719 403.619222,138.301155 404.565689,135.924592 C404.566391,135.924592 404.649882,135.717632 404.649882,135.717632 C408.030222,130.822133 412.364747,127.078802 417.987422,124.887668 L418.266662,124.916837 L418.500297,124.760576 C419.97788,124.672375 421.466689,124.627927 422.8692,123.871621 C422.138828,122.803487 421.323561,122.029125 420.076806,121.832583 C420.076806,121.832583 420.070492,121.838139 420.068387,121.839528 C413.423472,118.041331 406.804515,118.274682 400.209414,121.968704 C400.210116,121.967315 400.210817,121.965926 400.211519,121.963842 C395.839808,124.130668 392.524717,127.33646 390.400954,131.716643 C388.729728,133.729986 388.261756,136.251005 387.441578,138.619234 C385.413234,144.483555 383.592565,150.43816 379.667778,155.443389 C376.084673,156.549721 373.402431,155.548952 371.284281,151.912574 C367.059908,144.661346 365.904362,136.763542 366.677532,128.520575 C370.457788,125.263391 373.774984,121.548534 376.835392,117.662831 C381.214118,112.1027 384.98806,106.134205 386.578602,99.1170222 C387.718011,94.0923469 386.470555,91.4435409 382.129715,89.1142028 C376.985536,86.6945803 372.530334,88.5252706 368.548717,91.6442501 C362.350023,96.498774 358.416115,103.052728 355.613197,110.238674 C352.611724,117.933685 352.924641,126.13151 352.628563,134.173768 C352.328977,142.320201 347.753099,147.883111 342.02378,152.802917 C339.605342,154.880848 336.565281,156.244142 333.309125,154.648886 C329.973688,153.014738 329.111413,149.930483 329.229283,146.467729 C329.260154,145.547522 329.273484,144.599536 329.091067,143.705025 C328.409807,140.365891 329.682521,138.484502 333.137933,138.115725 C333.535042,138.092807 333.932853,138.069888 334.330664,138.04697 L334.330664,138.05461 C337.177784,138.060166 339.423626,136.6427 341.475124,134.932852 C344.104745,132.741719 345.166977,129.770667 344.168591,126.589183 C343.277551,123.752168 340.798775,122.378456 337.775552,122.147884 C333.35052,120.859594 329.197009,121.690211 325.316423,123.917458 C319.754788,127.110054 317.108328,132.410444 314.539045,137.996966 C310.681613,146.383 304.936157,153.26684 295.848949,156.635838 C292.145869,158.008161 289.349266,156.637227 288.167059,153.018905 C285.371858,144.464803 292.336005,127.98998 304.165091,129.683855 C305.209783,129.833171 306.336563,129.755388 306.811551,128.525436 C307.315304,127.220479 306.589843,126.307912 305.683368,125.501603 C304.125099,124.114695 302.171827,123.746612 300.191893,123.499372 C288.242832,122.008984 275.043508,132.356968 273.072695,144.725239 C272.785738,146.525372 272.82573,148.403982 271.444968,149.920761 C268.548035,153.104328 265.553578,156.173998 261.993626,158.645014 C260.492188,159.687451 258.601359,160.538903 257.118163,159.436044 C255.475702,158.214426 256.970825,156.433045 257.49282,155.030164 C259.064419,150.80902 261.670186,146.99624 262.777321,142.59661 C263.645208,139.14844 263.961633,135.683602 260.51464,133.183418 C259.155628,132.768804 257.77206,132.517397 256.375863,132.344467 C255.678466,132.257655 254.977561,132.190984 254.274551,132.133341 C254.977561,132.190984 255.678466,132.257655 256.375863,132.344467 C257.77206,132.517397 259.155628,132.768804 260.51464,133.183418 C258.197233,130.721431 254.977561,130.629063 252.081329,130.767268 C246.921715,131.013119 243.717478,130.140138 243.059371,124.019549 C242.594205,119.692842 237.668928,118.696241 234.85338,121.770078 C232.183768,124.683487 232.809601,128.367091 236.825596,130.697818 C239.383654,132.18265 239.731651,133.75846 238.92761,136.374625 C236.880322,143.035532 233.921647,149.284603 230.712499,155.440611 C229.505034,157.278246 228.291956,159.110326 227.092911,160.953517 C226.39411,162.026512 225.511489,162.553635 224.148969,162.266808 C222.788554,161.980676 222.161318,161.097972 221.982408,159.884688 C221.832265,158.865863 221.74737,157.801201 221.874361,156.785849 C222.662967,150.477051 223.522435,144.175893 224.350331,137.871957 C224.530643,136.499634 224.816197,135.050916 223.444556,134.080706 C220.336439,131.882628 215.572531,133.257034 213.756072,136.722567 C211.219062,141.56459 208.167074,146.067005 204.328585,150.009656 C203.44877,150.913195 202.575971,152.184121 201.146097,151.772286 C199.58362,151.322947 199.414532,149.672131 199.159148,148.353979 C196.641082,135.372468 209.624311,122.844463 222.622274,125.693283 C223.450169,125.875241 224.241582,126.17318 224.84356,125.370343 C225.38941,124.643206 225.186646,123.823701 224.913721,123.043783 C224.304025,121.301988 222.935892,120.206768 221.45901,119.257393 C217.494933,116.712067 213.153392,116.264812 208.661707,117.353086 C198.028158,119.930359 187.781194,132.16112 187.045911,142.991778 C186.895767,145.214859 187.11537,147.405298 187.682969,149.52976 C189.90636,157.854678 199.216679,161.136169 206.254495,156.123995 C210.755301,152.918898 210.760212,152.939733 212.822233,158.04358 C213.556114,159.861075 214.302623,161.705655 215.317848,163.374528 C218.362119,168.383925 224.619046,168.925631 228.62101,164.575311 C230.506928,162.525855 232.281291,160.376391 233.384216,157.778283 C237.393898,151.811872 240.676715,145.485712 243.032008,138.699796 C243.285288,138.423387 243.538568,138.147672 243.791848,137.871957 C244.466092,138.169896 245.139634,138.467834 245.813878,138.765079 C246.27343,139.326925 246.733684,139.888772 247.193236,140.450619 C247.532814,146.217016 247.639458,151.996608 248.472967,157.730363 C249.281919,163.298828 251.308159,165.07882 256.930132,165.268418 C259.91196,165.369814 262.407574,164.473915 264.65482,162.60086 C267.431779,160.284718 270.034739,157.789395 272.328992,155.016969 C273.995308,153.001543 274.957211,152.519563 276.737888,155.171841 C282.256725,163.392585 292.344424,165.243416 300.717396,159.931914 C305.547256,156.867105 309.753387,153.018905 314.250685,149.306826 C314.675859,149.869368 315.028065,150.295094 315.336772,150.750683 C324.915806,164.912141 340.044548,164.993397 349.932289,150.950003 C351.304631,149.001943 352.783618,147.12611 354.403628,144.964146 C356.349884,148.015065 358.030232,150.776379 359.83757,153.454354 C365.074361,161.216036 371.717172,163.741222 379.192088,160.886151 C383.958803,159.334648 386.277613,155.687157 387.638729,151.218773 L387.642238,151.212522 C390.245198,150.342319 390.372189,152.834169 391.218326,154.015506 C394.649884,158.809609 398.555026,162.530716 405.130482,161.53481 C405.918386,161.620927 406.775048,162.019567 407.332825,161.061164 C412.446134,159.849963 416.382146,156.618476 420.361659,153.509913 C421.573333,152.564011 422.68117,151.775758 424.295567,151.616024 C428.831453,151.168769 433.180712,150.074939 436.966581,147.382379 C437.399472,146.825394 437.833065,146.267714 438.266658,145.710728 C439.607428,145.489184 440.209406,146.168401 440.299212,147.398353 C440.484436,149.938123 442.031478,151.829234 443.376458,153.818964 C448.461702,156.951139 452.099532,155.552425 453.442407,149.794362 C454.914378,143.480009 456.955351,137.381643 459.918236,131.59719 C460.812784,129.851923 461.922024,128.485155 464.26118,129.072004 C466.716101,129.688716 466.286017,131.526351 466.149203,133.230643 C465.787876,137.717779 465.353582,142.199359 465.019617,146.688578 C464.69337,151.069456 464.550242,155.451723 465.568273,159.783986 C467.212137,166.778251 472.481904,169.538176 479.345721,167.166474 C484.012808,165.553161 486.502809,161.904976 488.865118,157.998438 C491.695399,153.318927 491.745915,153.349485 496.250229,156.339983 C500.987476,159.484659 504.970497,159.824267 508.401353,156.628199 C510.809266,154.384283 511.668033,155.071834 512.993367,157.488678 C515.028026,161.199368 516.884477,165.207997 521.565596,166.505314 C526.177958,168.220024 531.542441,166.832422 534.834379,162.377927 C540.828905,154.266914 543.857741,144.775243 546.860617,135.313436 C547.226154,134.161962 546.881665,133.203558 545.721208,132.766026" id="Fill-42" fill="#FFFFFF"></path>
                <path d="M377,93.4161552 C376.723861,93.6107701 376.448533,93.8053851 376.172394,94 C376.139193,93.658666 375.828638,93.1803134 376.1315,93.0238939 C376.3631,92.9038511 376.706451,93.2676173 377,93.4161552" id="Fill-44" fill="#3C4C63"></path>
                <path d="M265.221204,260.129821 C265.419809,260.080091 265.586693,260.134209 265.723924,260.294368 C265.810124,261.362829 266.47628,261.542734 267.353454,261.758474 C270.195305,262.456155 273.108875,262.868621 275.914867,263.535586 C279.927662,264.489961 283.771506,266.226119 287.993941,266.131778 C290.710284,266.071078 291.988807,267.505932 291.961223,270.363206 C291.936397,272.921369 291.868126,275.485383 291.992944,278.036965 C292.097764,280.173155 291.026122,280.790391 289.34832,281.582412 C286.534742,282.909761 284.362495,280.643395 281.803381,280.699707 C277.267177,280.799898 272.955093,279.198303 268.55681,278.259286 C265.141899,277.530159 261.975935,275.747928 258.63826,275.073649 C253.857937,274.105379 249.450688,272.212718 244.953792,270.48168 C243.476664,269.912711 242.513979,268.890324 242.283652,267.085422 C241.790586,263.219655 241.046505,259.384604 239.49421,255.829649 C238.503941,253.562552 238.955631,252.597938 241.269247,253.153743 C243.51804,253.693458 245.727526,254.458421 247.909427,255.263606 C253.566925,257.350067 258.709289,261.465214 265.221204,260.129821" id="Fill-46" fill="#0B96D2"></path>
                <path d="M180,241.134851 C180.289684,238.1743 183.7666,238.086776 184.883753,235.872268 C185.791571,235.222781 186.69939,234.573988 187.607208,233.923112 C187.857422,233.650119 188.108341,233.377126 188.359259,233.104133 C188.359259,233.104133 188.33741,233.153452 188.336705,233.152063 C188.586214,232.911718 188.837133,232.672068 189.088051,232.433112 C189.088051,232.433112 189.181794,232.464371 189.179679,232.463676 C193.387502,228.513961 197.507926,229.871285 201.629055,232.636641 C201.995565,232.881848 202.507271,232.915886 202.951312,233.047867 C208.22413,235.736813 213.440562,238.542459 218.797254,241.057746 C220.908214,242.0483 222.089505,243.353526 222.6435,245.545806 C223.857918,250.348538 225.233038,255.111675 226.527807,259.894262 C226.790707,260.864673 227.477915,262.024719 226.462962,262.769372 C225.687652,263.336892 224.643097,262.728388 223.812809,262.32133 C213.248143,257.142104 202.698984,251.933703 192.132908,246.760034 C190.167143,245.797265 188.142877,244.950501 186.1461,244.050249 C185.296782,243.362557 184.399536,242.775587 183.249962,242.725573 L183.070935,242.574142 C183.070935,242.574142 182.835523,242.574836 182.834113,242.575531 C182.172985,241.907983 181.497759,241.270305 180.443337,241.349494 C180.336203,241.195979 180.188189,241.124431 180,241.134851" id="Fill-48" fill="#E8753D"></path>
                <path d="M264.955462,259.681119 C258.460927,260.952134 253.332286,257.035376 247.689888,255.049502 C245.51381,254.283134 243.310221,253.55505 241.067429,253.041354 C238.759988,252.512345 238.309504,253.430455 239.29713,255.588256 C240.845282,258.971829 241.587377,262.621995 242.079127,266.301395 C242.308839,268.019284 243.268955,268.992383 244.742141,269.533921 C249.227036,271.181508 253.622522,272.982924 258.390087,273.904514 C261.718854,274.546286 264.876369,276.242597 268.282166,276.936574 C272.668711,277.830322 276.969286,279.354704 281.493383,279.259343 C284.045667,279.205746 286.212117,281.362852 289.018186,280.099494 C290.69151,279.345655 291.760292,278.758176 291.655752,276.72497 C291.531267,274.296399 291.599356,271.855995 291.624115,269.421159 C291.651626,266.701632 290.376515,265.335953 287.667421,265.393726 C283.456255,265.483518 279.622671,263.83106 275.620585,262.922695 C272.822082,262.287883 269.916288,261.895303 267.082021,261.231256 C266.207188,261.025917 265.54281,260.854685 265.45684,259.837734 C273.83653,261.587642 282.159137,263.689759 290.745843,264.188837 C292.505138,264.291159 292.747918,265.436186 292.774741,266.778896 C292.862774,271.174547 292.869652,275.572286 292.997576,279.967242 C293.049845,281.741512 292.256168,282.141749 290.689447,281.960076 C278.182498,280.514349 265.835797,278.289029 253.840542,274.317281 C252.557867,273.892681 251.330899,273.150676 249.890726,273.591285 C249.889351,273.591981 249.807507,273.516806 249.807507,273.516806 C248.270359,271.764114 245.918214,271.862955 244.022054,270.919787 C243.118335,270.470825 241.916127,270.407483 241.58669,269.231829 C239.79507,262.837775 238.046779,256.431887 236,249 C246.08534,253.352495 255.454719,256.709617 264.955462,259.681119" id="Fill-50" fill="#3398BA"></path>
                <path d="M189,234 C188.666041,234.333333 188.332083,234.6657 188,235 C188.042214,234.360386 188.375235,234.025121 189,234" id="Fill-52" fill="#F4EBDD"></path>
                <path d="M189,234 C188.666354,234.333333 188.332709,234.665818 188,235 C188.030928,234.419847 188.344892,234.070399 189,234" id="Fill-54" fill="#F4EBDD"></path>
                <path d="M314.173653,281.966184 C312.58438,281.966184 310.34785,281.881915 308.120719,281.991127 C306.150074,282.088879 305.322202,281.39046 305.330931,279.321493 C305.347045,275.406028 305.218802,271.483822 305.007302,267.572403 C304.913302,265.843207 305.731774,265.397594 307.180718,265.420515 C318.048471,265.591075 328.736281,264.020979 339.387163,262.081449 C340.872364,261.811115 342.174265,262.17583 342.593909,263.749297 C343.672224,267.794872 346.114212,271.209443 347.657828,275.043335 C348.399757,276.886462 347.937142,277.323311 346.250512,277.711622 C335.899759,280.095417 325.43285,281.533379 314.173653,281.966184" id="Fill-56" fill="#E8753D"></path>
                <path d="M389.583672,258.993595 C388.767217,255.627672 385.740547,253.600803 384.50715,250.467667 C384.099968,249.432431 383.454335,248.065244 384.863434,247.947795 C388.898296,247.610218 391.455731,244.489038 394.893765,243.041676 C404.730267,238.902139 413.698022,232.940389 423.674667,228.997067 C426.346447,227.940733 428.677283,225.746482 431.676063,225.19159 C433.653403,224.824475 435.279341,224.71195 436.203169,227.460389 C437.211361,230.459901 438.762695,233.372909 440.327276,236.128381 C441.912774,238.920424 440.440924,239.829772 438.549343,240.540794 C431.289798,243.266728 424.593614,247.123545 417.745434,250.693421 C410.573043,254.433493 403.319076,258.013919 396.054651,261.566917 C394.510987,262.321542 392.935947,262.14783 391.701155,260.585834 C391.171261,259.915603 390.783602,258.861378 389.596919,259.003441 L389.583672,258.993595 Z" id="Fill-58" fill="#F9DE4F"></path>
                <path d="M327,13.2423542 C327.356952,11.9992937 327.666356,10.7375513 328.079563,9.51532828 C330.521974,2.29048826 330.524653,2.32354074 337.433991,3.75054544 C344.740464,5.25874427 351.99537,6.96022822 359.088877,9.42335617 C360.806668,10.0190193 361.355825,10.7432996 360.77921,12.6660914 C359.526863,16.8501037 358.344835,21.0664499 357.332912,25.3237525 C356.70406,27.9729802 355.162401,26.7830911 353.969658,26.4051432 C347.788958,24.4478619 341.567406,22.6853027 335.227316,21.4249974 C335.144273,18.7470284 334.272988,17.8309 331.516485,18.5472765 C327.804984,19.5115465 327.320788,18.8203186 327.15872,14.6348693 C327.141308,14.1692605 327.054916,13.7065259 327,13.2423542" id="Fill-60" fill="#0E95CF"></path>
                <path d="M326.897225,13 C326.95131,13.5105374 327.036394,14.0194942 327.053542,14.5316122 C327.213158,19.1351423 327.690024,19.8954162 331.345342,18.8348261 C334.060118,18.0468915 334.918214,19.0545311 335,22 C332.529264,21.5566386 330.069081,20.9251844 327.584494,20.7252371 C325.221926,20.5347734 324.370426,19.6354057 325.484434,16.8661749 C325.992959,15.6024763 325.859067,13.995785 326.897225,13" id="Fill-62" fill="#3398BA"></path>
                <path d="M411.830662,33.2329634 C413.396813,32.7254849 414.809392,33.1015251 416.231879,33.8367364 C430.092986,41.0039919 444.018494,48.028563 459.278025,51.9014253 C460.615587,52.2409158 461.264553,52.9543378 461.473325,54.2673155 C462.235524,59.0342398 461.805947,63.8405253 461.997027,68.6264273 C462.062844,70.2845184 461.026056,70.0427281 459.860466,69.8937178 C455.290108,69.3089226 451.109696,67.1131291 446.491214,66.7567696 C443.600948,64.8828946 440.196887,64.2742015 437.06034,63.0055052 C423.432775,57.4942322 410.437899,50.702314 397.467085,43.8590857 C397.29299,43.7670086 397.215142,43.4956973 397,43.16675 C401.944026,39.854785 406.888052,36.5435228 411.830662,33.2329634" id="Fill-64" fill="#E8753D"></path>
                <path d="M504.916852,215.136675 C506.662158,215.172011 506.638403,217.621478 508.649476,217.748537 C509.691018,217.813946 508.244886,221.474614 506.49661,221.814442 C505.42092,222.022699 504.28287,221.897895 503.171546,221.926465 C502.185682,221.951275 500.906582,221.584381 500.25998,222.073072 C493.387141,227.26522 484.593055,225.726221 477.032783,228.935789 C473.067798,230.620644 468.18005,231.191284 463.682044,232.131073 C461.780099,232.52804 460.045186,229.895126 457.860398,231.441643 C457.263534,231.864173 454.987435,231.162714 456.929469,233.193411 C457.338513,233.620451 455.912425,233.970053 455.262111,233.912162 C454.008252,233.799387 451.776695,234.577533 451.773726,232.937036 C451.768529,229.840242 451.344637,227.614821 447.926777,226.981779 C447.671403,226.933662 447.553366,226.119429 447.372971,225.663067 C447.218558,225.695396 447.127989,225.632242 447.102749,225.473605 C446.926065,223.930095 448.688446,222.635442 447.25345,220.762629 C446.403439,219.652926 447.863676,219.122885 449.090067,218.842452 C452.136001,218.147008 455.159664,216.438847 458.139528,216.553125 C463.797854,216.767397 468.094677,212.752617 473.760427,212.613528 C479.334865,212.475191 485.008038,210.617416 490.361993,208.717538 C496.33434,206.598125 503.325216,209.301711 504.920564,215.140434 C504.868598,215.232157 504.815148,215.323881 504.76244,215.415604 C504.813663,215.322377 504.865629,215.22915 504.916852,215.136675" id="Fill-66" fill="#0B96D2"></path>
                <path d="M502.6015,215.3145 C502.5325,215.4375 502.4625,215.5615 502.3935,215.6855 C502.4645,215.5635 502.5365,215.4415 502.6065,215.3195 L502.6015,215.3145 Z" id="Fill-68" fill="#3398BA"></path>
            </g>
        </g>
    </g>
</svg>