<svg id="Layer_1" xmlns="http://www.w3.org/2000/svg" viewBox="0 0 65 69"><style>.st0{fill:#fff}</style><path class="st0" d="M35.3 31.4c10.1-5.1 15.7-16.6 12.9-28l-8.2 2c2.2 8.7-3.1 17.6-11.9 19.7-8.8 2.2-17.7-3.1-19.9-11.8l-8.2 2C2.8 26.4 12.7 33.8 23.7 34 11 39.9 3.9 54.5 7.5 69l9.8-2.4c-2.7-10.8 3.6-21.6 14-24.2 10.4-2.6 21.1 4 23.8 14.8l9.8-2.5c-3.5-14.1-16-23.6-29.6-23.3z"/><path class="st0" d="M35.8 8.4c1.5 5.9-2.1 11.9-8.1 13.4-5.9 1.5-12-2.1-13.5-8S16.3 1.9 22.3.4s12.1 2.1 13.5 8z"/></svg>