<?xml version="1.0" encoding="utf-8"?>
<!-- Generator: Adobe Illustrator 23.0.6, SVG Export Plug-In . SVG Version: 6.00 Build 0)  -->
<svg version="1.1" id="Layer_1" xmlns="http://www.w3.org/2000/svg" xmlns:xlink="http://www.w3.org/1999/xlink" x="0px" y="0px"
	 viewBox="0 0 68 43" style="enable-background:new 0 0 68 43;" xml:space="preserve">
<path style="fill:#FFFFFF;" d="M17,17.2c-4.7,0-8.5,3.9-8.5,8.6s3.8,8.6,8.5,8.6s8.5-3.9,8.5-8.6C25.5,21,21.7,17.2,17,17.2L17,17.2
	z M17,31.9c-3.4,0-6.1-2.8-6.1-6.2s2.7-6.2,6.1-6.2s6.1,2.8,6.1,6.2S20.4,31.9,17,31.9z"/>
<ellipse style="fill:#FFFFFF;" cx="17" cy="25.8" rx="4.2" ry="4.3"/>
<path style="fill:#FFFFFF;" d="M51,17.2c-4.7,0-8.5,3.9-8.5,8.6s3.8,8.6,8.5,8.6s8.5-3.9,8.5-8.6S55.7,17.2,51,17.2z M51,31.9
	c-3.4,0-6.1-2.8-6.1-6.2s2.7-6.2,6.1-6.2s6.1,2.8,6.1,6.2S54.4,31.9,51,31.9z"/>
<ellipse style="fill:#FFFFFF;" cx="51" cy="25.8" rx="4.2" ry="4.3"/>
<path style="fill:#FFFFFF;" d="M63,13.6l5-5H57.8C52.2,3.9,42.7,0,34,0c-8.8,0-18.1,3.9-23.8,8.6H0l5,5C1.9,16.7,0,21,0,25.8
	C0,35.3,7.6,43,17,43c4.3,0,8.3-1.6,11.3-4.3L34,43l5.7-4.2l-0.1-0.2c3,2.7,7,4.4,11.3,4.4c9.4,0,17-7.7,17-17.2
	C68,21,66.1,16.7,63,13.6L63,13.6z M48.8,8.7c-8.1,1-14.4,7.7-14.9,16c-0.5-8.3-6.8-15.1-14.9-16c4.1-3,9.2-4.4,14.9-4.4
	S44.8,5.7,48.8,8.7z M17,38.7c-7.1,0-12.8-5.8-12.8-12.9S10,12.9,17,12.9s12.8,5.8,12.8,12.9C29.8,32.9,24.1,38.7,17,38.7z M51,38.7
	c-7,0-12.8-5.8-12.8-12.9S43.9,12.9,51,12.9s12.8,5.8,12.8,12.9C63.8,32.9,58,38.7,51,38.7z"/>
</svg>
