<svg width="68" height="41" xmlns="http://www.w3.org/2000/svg" xmlns:xlink="http://www.w3.org/1999/xlink"><defs><path id="a" d="M0 .228h67.765V41H0z"/></defs><g fill="none" fill-rule="evenodd"><g><mask id="b" fill="#fff"><use xlink:href="#a"/></mask><path d="M51.953 36.468c-6.238 0-11.29-5.066-11.29-11.318 0-4.413 2.517-8.223 6.182-10.091a11.207 11.207 0 0 1 5.108-1.236 11.24 11.24 0 0 1 7.84 3.183 11.316 11.316 0 0 1 3.453 8.144c0 6.252-5.054 11.318-11.293 11.318m-18.067-4.525c0-6.52-2.998-13.033-7.263-17.392-3.144-3.216-6.977-5.258-10.81-5.258 0 0 6.777-6.798 18.073-6.798 11.293 0 18.067 6.798 18.067 6.798-3.853 0-7.705 2.065-10.858 5.31-4.237 4.358-7.21 10.849-7.21 17.34m-18.072 4.525c-6.238 0-11.293-5.066-11.293-11.318a11.3 11.3 0 0 1 3.762-8.423 11.232 11.232 0 0 1 7.53-2.904 11.2 11.2 0 0 1 4.913 1.14 11.315 11.315 0 0 1 6.378 10.187c0 6.252-5.055 11.318-11.29 11.318m47.433-22.645c4.519-1.13 4.519-4.53 4.519-4.53h-11.29C49.698 2.497 42.92.227 33.884.227c-9.036 0-15.816 2.27-22.593 9.066H-.001s.005 3.4 4.52 4.53a28.984 28.984 0 0 0-2.534 4.275C.863 20.404-.001 22.966-.001 25.15-.001 34.493 6.493 41 15.813 41c5.285 0 10.46-2.98 13.55-6.795L33.885 41l4.515-6.795C41.496 38.02 46.67 41 51.953 41c9.315 0 15.812-6.508 15.812-15.851 0-2.081-.782-4.505-1.825-6.727a29.256 29.256 0 0 0-2.694-4.6" fill="#FFF" mask="url(#b)"/></g><path d="M50.5 24a1.5 1.5 0 1 0 0 3 1.5 1.5 0 0 0 0-3" fill="#FFFEE1"/><path d="M50.999 27.668a4.67 4.67 0 0 1-4.669-4.665A4.674 4.674 0 0 1 51 18.333a4.674 4.674 0 0 1 4.668 4.67A4.67 4.67 0 0 1 51 27.668m0-11.668C47.135 16 44 19.14 44 23.003a7 7 0 0 0 14 0A7.007 7.007 0 0 0 50.999 16" fill="#FFF"/><path d="M15.5 24a1.5 1.5 0 1 0 0 3 1.5 1.5 0 0 0 0-3" fill="#FFFEE1"/><path d="M18 27.668a4.67 4.67 0 0 1-4.67-4.665 4.674 4.674 0 0 1 4.67-4.67 4.674 4.674 0 0 1 4.67 4.67A4.67 4.67 0 0 1 18 27.668M18 16c-3.867 0-7 3.14-7 7.003A6.998 6.998 0 0 0 18 30c3.867 0 7-3.132 7-6.997A7.004 7.004 0 0 0 18 16" fill="#FFF"/></g></svg>