<svg width="52" height="54" xmlns="http://www.w3.org/2000/svg" xmlns:xlink="http://www.w3.org/1999/xlink"><defs><path id="a" d="M0 .746h51.749v53.151H0z"/></defs><g fill="none" fill-rule="evenodd"><path d="M17 52h.003H17z" fill="#D7202F"/><path d="M25.875 39.448c-6.448 0-11.691-5.44-11.691-12.123 0-6.684 5.243-12.127 11.691-12.127s11.692 5.443 11.692 12.127c0 6.684-5.244 12.123-11.692 12.123m0-28.127c-8.51 0-15.44 7.182-15.44 16.004 0 8.822 6.93 15.995 15.44 15.995s15.44-7.173 15.44-15.995-6.93-16.004-15.44-16.004" fill="#FFF"/><g><mask id="b" fill="#fff"><use xlink:href="#a"/></mask><path d="M47.927 43.036c0 3.805-2.986 6.9-6.656 6.9H10.478c-3.666 0-6.656-3.095-6.656-6.9V11.608c0-3.804 2.99-6.899 6.656-6.899h30.793c3.67 0 6.656 3.095 6.656 6.9v31.427zM41.27.743H10.478C4.698.743 0 5.616 0 11.608v31.428c0 5.988 4.697 10.861 10.478 10.861h30.793c5.78 0 10.482-4.873 10.482-10.86V11.607c0-5.992-4.702-10.865-10.482-10.865z" fill="#FFF" mask="url(#b)"/></g><path d="M41.52 9.498c-1.352 0-2.436 1.136-2.436 2.529 0 1.401 1.084 2.524 2.436 2.524 1.343 0 2.44-1.123 2.44-2.524 0-1.393-1.097-2.529-2.44-2.529" fill="#FFF"/></g></svg>