<?xml version="1.0" encoding="utf-8"?>
<!-- Generator: Adobe Illustrator 23.0.6, SVG Export Plug-In . SVG Version: 6.00 Build 0)  -->
<svg version="1.1" id="Layer_1" xmlns="http://www.w3.org/2000/svg" xmlns:xlink="http://www.w3.org/1999/xlink" x="0px" y="0px"
	 viewBox="0 0 60 64" style="enable-background:new 0 0 60 64;" xml:space="preserve">
<g>
	<path style="fill:#FFFFFF;" d="M32.6,29.1c9.3-4.7,14.5-15.4,11.9-26L37,5c2,8.1-2.9,16.3-11,18.3c-8.1,2-16.4-2.9-18.4-11L0,14.1
		c2.6,10.3,11.7,17.2,21.9,17.4C10.2,37,3.6,50.5,6.9,64l9.1-2.2c-2.5-10,3.3-20.1,12.9-22.5c9.6-2.4,19.5,3.7,22,13.7l9.1-2.3
		C56.8,37.6,45.2,28.8,32.6,29.1L32.6,29.1z"/>
	<path style="fill:#FFFFFF;" d="M33.1,7.7c1.4,5.5-1.9,11-7.5,12.4c-5.5,1.4-11.1-1.9-12.5-7.4s1.9-11,7.5-12.4S31.8,2.3,33.1,7.7z"
		/>
</g>
</svg>
