<svg xmlns="http://www.w3.org/2000/svg" viewBox="0 0 52 52" enable-background="new 0 0 52 52"><path d="M26 4.7c6.9 0 7.8 0 10.5.2 2.5.1 3.9.5 4.8.8 1.2.5 2.1 1 3 1.9.9.9 1.5 1.8 1.9 3 .4.9.8 2.3.9 4.8.1 2.7.2 3.6.2 10.5s0 7.8-.2 10.5c-.1 2.5-.5 3.9-.9 4.8-.5 1.2-1 2.1-1.9 3-.9.9-1.8 1.5-3 1.9-.9.4-2.3.8-4.8.9-2.7.1-3.6.2-10.5.2s-7.8 0-10.5-.2c-2.5-.1-3.9-.5-4.8-.9-1.2-.5-2.1-1-3-1.9s-1.5-1.8-1.9-3c-.4-.8-.8-2.2-1-4.7-.1-2.7-.1-3.6-.1-10.5s0-7.8.2-10.5c.1-2.5.5-3.9.8-4.8.5-1.2 1-2.1 1.9-3s1.8-1.5 3-1.9c1-.4 2.4-.8 4.9-1 2.7-.1 3.6-.1 10.5-.1m0-4.7c-7.1 0-7.9 0-10.7.2-2.8.1-4.7.5-6.3 1.2-1.7.6-3.2 1.5-4.6 3s-2.4 2.9-3 4.6c-.6 1.7-1.1 3.5-1.2 6.3-.2 2.8-.2 3.6-.2 10.7s0 7.9.2 10.7c.1 2.8.6 4.7 1.2 6.3.7 1.7 1.6 3.2 3 4.6 1.4 1.4 2.9 2.3 4.6 3 1.7.6 3.5 1.1 6.3 1.2 2.8.2 3.6.2 10.7.2s7.9 0 10.7-.2c2.8-.1 4.7-.6 6.3-1.2 1.7-.7 3.2-1.6 4.6-3 1.4-1.4 2.3-2.9 3-4.6.6-1.7 1.1-3.5 1.2-6.3.2-2.8.2-3.6.2-10.7s0-7.9-.2-10.7c-.1-2.8-.6-4.7-1.2-6.3-.7-1.7-1.6-3.2-3-4.6s-2.9-2.4-4.6-3c-1.7-.6-3.5-1.1-6.3-1.2-2.8-.2-3.6-.2-10.7-.2zm0 12.6c-7.4 0-13.4 6-13.4 13.4s6 13.4 13.4 13.4 13.4-6 13.4-13.4-6-13.4-13.4-13.4zm0 22.1c-4.8 0-8.7-3.9-8.7-8.7s3.9-8.7 8.7-8.7 8.7 3.9 8.7 8.7-3.9 8.7-8.7 8.7zm17-22.6c0 1.7-1.4 3.1-3.1 3.1s-3.1-1.4-3.1-3.1 1.4-3.1 3.1-3.1 3.1 1.4 3.1 3.1z" fill="#fff"/></svg>