<svg xmlns="http://www.w3.org/2000/svg" viewBox="0 0 68 43" enable-background="new 0 0 68 43"><path d="M17 17.2c-4.7 0-8.5 3.9-8.5 8.6s3.8 8.6 8.5 8.6 8.5-3.9 8.5-8.6c0-4.8-3.8-8.6-8.5-8.6zm0 14.7c-3.4 0-6.1-2.8-6.1-6.2s2.7-6.2 6.1-6.2 6.1 2.8 6.1 6.2-2.7 6.2-6.1 6.2z" fill="#fff"/><ellipse cx="17" cy="25.8" rx="4.2" ry="4.3" fill="#fff"/><path d="M51 17.2c-4.7 0-8.5 3.9-8.5 8.6s3.8 8.6 8.5 8.6 8.5-3.9 8.5-8.6-3.8-8.6-8.5-8.6zm0 14.7c-3.4 0-6.1-2.8-6.1-6.2s2.7-6.2 6.1-6.2 6.1 2.8 6.1 6.2-2.7 6.2-6.1 6.2z" fill="#fff"/><ellipse cx="51" cy="25.8" rx="4.2" ry="4.3" fill="#fff"/><path d="M63 13.6l5-5h-10.2c-5.6-4.7-15.1-8.6-23.8-8.6-8.8 0-18.1 3.9-23.8 8.6h-10.2l5 5c-3.1 3.1-5 7.4-5 12.2 0 9.5 7.6 17.2 17 17.2 4.3 0 8.3-1.6 11.3-4.3l5.7 4.3 5.7-4.2-.1-.2c3 2.7 7 4.4 11.3 4.4 9.4 0 17-7.7 17-17.2.1-4.8-1.8-9.1-4.9-12.2zm-14.2-4.9c-8.1 1-14.4 7.7-14.9 16-.5-8.3-6.8-15.1-14.9-16 4.1-3 9.2-4.4 14.9-4.4s10.9 1.4 14.9 4.4zm-31.8 30c-7.1 0-12.8-5.8-12.8-12.9s5.8-12.9 12.8-12.9 12.8 5.8 12.8 12.9c0 7.1-5.7 12.9-12.8 12.9zm34 0c-7 0-12.8-5.8-12.8-12.9s5.7-12.9 12.8-12.9 12.8 5.8 12.8 12.9c0 7.1-5.8 12.9-12.8 12.9z" fill="#fff"/></svg>