<?xml version="1.0" encoding="UTF-8"?>
<svg width="180px" height="75px" viewBox="0 0 180 75" version="1.1" xmlns="http://www.w3.org/2000/svg" xmlns:xlink="http://www.w3.org/1999/xlink">
    <!-- Generator: Sketch 56.3 (81716) - https://sketch.com -->
    <title>Group 90</title>
    <desc>Created with Sketch.</desc>
    <defs>
        <polygon id="path-1" points="0.0418878049 0.540454545 30.6396439 0.540454545 30.6396439 40.6917545 0.0418878049 40.6917545"></polygon>
        <polygon id="path-3" points="0.116385572 0.720511296 72.7651959 0.720511296 72.7651959 52.8732395 0.116385572 52.8732395"></polygon>
        <polygon id="path-5" points="0 0.526887273 46.6883597 0.526887273 46.6883597 40.383749 0 40.383749"></polygon>
    </defs>
    <g id="Symbols" stroke="none" stroke-width="1" fill="none" fill-rule="evenodd">
        <g id="Footer" transform="translate(-1065.000000, -316.000000)">
            <g id="Group-90" transform="translate(1065.000000, 316.000000)">
                <g id="Group-3" transform="translate(85.000000, 0.000000)">
                    <mask id="mask-2" fill="white">
                        <use xlink:href="#path-1"></use>
                    </mask>
                    <g id="Clip-2"></g>
                    <path d="M30.6396439,0.540081818 C30.6396439,0.540081818 27.5993756,1.92662727 25.0793024,4.10633636 C22.2386439,6.56559091 19.7654488,11.1859182 16.4424,19.2875182 C14.5022537,24.0166818 10.9100341,34.1653 10.9100341,34.1653 C10.9100341,34.1653 8.49732683,24.5944091 6.9579122,17.9136455 C6.07025366,14.0618818 4.50437561,8.68044545 0.0418878049,8.68044545 C0.0418878049,8.68044545 2.23230244,13.2307 6.29859512,31.4719727 C7.53179024,37.0039909 9.10371707,40.6917545 12.5779854,40.6917545 C15.2371805,31.7485364 17.9409854,24.7912091 21.2247171,16.4115545 C25.7650829,4.82271818 30.6396439,0.540081818 30.6396439,0.540081818" id="Fill-1" fill="#28458C" mask="url(#mask-2)"></path>
                </g>
                <path d="M110.204268,19.9923369 C113.710646,19.8058086 116.67176,17.3535666 117,15 C114.104535,17.076639 111.402152,17.8456702 108.032476,18.4752827 C107.908903,18.8916291 108.040199,20.1075643 110.204268,19.9923369" id="Fill-4" fill="#28458C"></path>
                <g id="Group-8" transform="translate(107.000000, 6.000000)">
                    <mask id="mask-4" fill="white">
                        <use xlink:href="#path-3"></use>
                    </mask>
                    <g id="Clip-7"></g>
                    <path d="M59.9680701,29.4231366 C58.7428742,27.0851648 59.3140804,23.3229113 61.9992763,22.8138127 C64.020699,22.4301225 63.9913485,24.9987563 62.6148845,26.7059535 C61.0201732,28.6826296 59.9582866,29.4059676 59.9680701,29.4231366 M51.6754206,44.5938268 C51.0838948,48.6076437 47.3322969,51.1591085 45.1964825,50.327531 C43.8260392,49.7937986 41.6074412,46.9250803 44.2595237,41.8311085 C45.8113381,38.8496718 48.0939052,37.3843338 51.7950804,35.4151225 C52.4588536,39.7036437 51.776266,43.914531 51.6754206,44.5938268 M45.7699464,28.984207 C44.1624412,29.4149254 43.7876577,25.9385732 44.8916887,23.5916437 C45.7503794,21.7657563 46.7008845,20.5982634 47.6604206,20.3198268 C49.7789258,19.7047282 49.4711216,27.9921366 45.7699464,28.984207 M29.6738227,27.5935169 C26.9382041,25.5944465 31.389699,18.6417423 33.1123485,20.8744606 C34.9207918,23.2176577 31.7772763,29.1305169 29.6738227,27.5935169 M60.5836784,30.2980099 C69.7530804,23.0302915 66.2694,19.321038 63.3238124,19.8458127 C58.4907608,20.7072493 55.4450804,25.7959958 57.8841835,30.8332352 C57.3731835,31.194531 55.9681216,32.1440521 54.3275031,33.0405732 C54.3275031,33.0405732 52.9307196,25.0756437 52.6018433,22.9907282 C51.6543485,17.0009817 48.0570289,17.6817704 45.9754,19.4516718 C45.5863175,19.782362 44.8939464,20.435531 44.1902866,21.5559958 L44.189534,21.5567423 C42.768668,23.7088408 37.2086268,34.4185732 36.5742041,22.5428408 C36.4357299,19.9600239 35.3994309,18.4155592 32.5607093,18.7357986 C27.7269052,19.2814746 23.6389052,29.0207845 22.4535959,28.8020662 C20.8137299,28.5012352 23.6840598,3.90475634 23.4199052,1.89523521 C23.2889567,0.905404225 21.3014,0.264925352 20.1431835,1.11889718 C20.1341526,1.21146056 19.3379258,12.0719817 17.6792454,18.1453338 C16.0581938,24.075362 14.697534,27.5882915 13.762833,27.3232915 C12.0341629,26.8328549 15.0527505,5.34695352 14.7938639,3.38446056 C14.6629155,2.39462958 12.6798742,1.83253099 11.5209052,2.68650282 C11.5209052,2.68650282 10.2520598,12.4250662 8.90946186,17.0741366 C7.15369897,23.1497282 5.23537938,27.8032775 4.4451732,27.571869 C2.82788454,27.0986014 4.4052866,20.6161789 4.03727629,17.821362 C3.90632784,16.831531 1.93683299,16.4702352 0.777863918,17.3249535 C0.777863918,17.3249535 0.705616495,19.1866718 0.430925773,21.0319676 C-0.603115464,27.9689958 1.12103918,29.7209817 2.58254433,30.0083761 C4.95843093,30.4741789 7.63835876,26.0968268 10.166266,15.6095451 C8.92376082,28.2840099 9.80803918,29.2223338 11.1995546,29.8441507 C15.2559464,31.6551085 17.3947711,21.9613338 18.7847814,16.9591789 C17.5038948,29.7366577 18.580833,30.9287845 20.0054619,31.5386577 C22.7185031,32.7016718 24.3102041,28.4497282 26.9577711,24.3552915 C25.9500701,27.1568268 27.6305753,30.4249113 30.0538742,30.770531 C33.0860082,31.2034887 34.9027299,28.3429817 34.9027299,28.3429817 C36.7533175,31.7327423 39.2714412,30.3181648 42.5474103,26.053531 C42.2787402,28.5437845 42.802534,32.7725873 46.0393691,32.5956718 C49.6073381,32.4023338 50.5330082,28.2563901 50.5330082,28.2563901 C50.9047814,30.0613761 51.2750495,32.0850803 51.5602763,34.268531 C48.3332247,35.9249676 44.0849258,38.1830662 42.0740392,42.2879535 C40.2565649,45.997207 41.196534,48.8024746 41.6179773,49.8102211 C43.3308433,53.9039113 49.9422351,54.4555592 53.3002351,47.9806014 C55.0394412,44.6251789 55.1116887,38.7556155 54.5103794,34.0916155 C55.8725443,33.297362 57.7103381,32.2231789 58.4410907,31.7611085 C59.6264,33.2891507 61.6553485,34.2819676 62.8451732,34.5230803 C67.8114309,35.5323197 72.7656474,33.3003479 72.7656474,33.3003479 C69.0253381,34.0841507 63.1906062,33.5653479 60.5836784,30.2980099" id="Fill-6" fill="#28458C" mask="url(#mask-4)"></path>
                </g>
                <g id="Group-11" transform="translate(0.000000, 9.000000)">
                    <mask id="mask-6" fill="white">
                        <use xlink:href="#path-5"></use>
                    </mask>
                    <g id="Clip-10"></g>
                    <path d="M3.71444032,10.9349236 C1.89963387,10.9349236 0.360762903,10.6635782 -7.58064516e-05,9.60056 C-7.58064516e-05,9.60056 15.1020855,6.09096 22.1194887,4.72081455 C36.6477952,1.88286909 46.6883597,0.526887273 46.6883597,0.526887273 C46.6883597,0.526887273 44.2610371,2.09234182 41.5949242,3.03086909 C38.4618435,4.13488727 31.8143758,5.34177818 24.3398597,7.08912364 C24.3398597,7.08912364 21.9390694,30.8952145 21.3727952,34.7782873 C21.1256661,36.4756873 19.0523597,40.4288327 17.0829081,40.383749 C17.0829081,40.383749 19.5996823,12.1470327 20.0575532,8.02243273 C20.0575532,8.02243273 5.46556935,10.9349236 3.71444032,10.9349236" id="Fill-9" fill="#28458C" mask="url(#mask-6)"></path>
                </g>
                <path d="M53.9993845,16 C51.1214795,17.7285059 48.3012826,18.5818448 45.0516482,19.4924823 C44.9010079,19.9304068 44.9497224,20.899025 47.0511926,20.9965689 C49.8331674,21.1254906 54.0585914,17.587988 53.9993845,16" id="Fill-12" fill="#28458C"></path>
                <path d="M74.3826775,31.6490468 C73.4675078,27.0780356 78.5246289,24.5910009 78.9246867,27.0350125 C79.7217943,31.9086947 75.1143621,35.3029875 74.3826775,31.6490468 M28.9498018,33.4575248 C28.1752539,28.7883908 33.6444646,25.4778798 34.0806178,28.4155243 C34.8732135,33.7541574 29.6168154,37.4760293 28.9498018,33.4575248 M82.3838328,28.1611599 C82.3800728,27.0818095 82.4282001,25.8364052 81.1783956,24.9457525 C79.5443251,23.7811108 77.4184542,24.2332303 75.6174423,25.4635387 C72.2861342,27.7377225 69.6797428,31.0557815 68.2103577,32.3336417 C71.7108632,28.7748046 70.2640377,24 66.1581817,24 C63.3968808,24 60.5927165,26.8719778 58.6713865,31.5214872 C58.9338304,28.8646247 59.1594268,27.011614 58.8172722,25.7156388 C58.6172433,24.9563195 57.1681619,24.302671 55.5649229,25.1835115 C55.5649229,25.1835115 55.2829273,26.9738745 53.5856897,30.1960751 C52.1952634,32.8363322 50.3701879,35.283363 48.7714608,34.9067225 C47.1321263,34.5210246 48.627079,28.1060602 48.2586048,25.2793699 C48.1277588,24.2785177 46.0417433,23.9139539 44.8836814,24.7774342 C44.8836814,24.7774342 44.8047226,30.4323245 40.6815709,34.2938326 C38.7444491,36.1075942 37.5450278,35.1376884 37.8608629,29.6465876 C37.9277898,28.4691145 37.9323018,26.8772613 36.5666911,25.9043364 C33.9678196,24.0528353 30.025145,26.2070074 28.3173797,29.090307 C25.535023,33.7873682 27.6082547,37.8126659 30.3913633,38.3878162 C33.0248263,38.9312654 35.1191136,36.0630615 35.1191136,36.0630615 C37.3254472,41.3201773 43.241339,34.3715761 44.522727,29.9273697 C43.5812377,36.346108 45.3469062,37.7137883 46.834339,37.6715201 C52.5742655,37.5084853 55.3964775,27.9007572 55.3964775,27.9007572 C55.2039685,33.2650532 52.9224361,55 52.9224361,55 C55.554395,55 56.2168967,52.9137591 56.4349733,51.3754961 C57.6990656,42.4599109 58.766889,30.3636386 64.2639233,27.4252392 C66.014552,26.4900538 66.6101267,28.1098342 66.4883046,28.9665214 C65.7776757,33.9775754 60.2648496,33.6900002 60.2648496,33.6900002 C61.1349,35.2720411 62.3095057,35.5860339 63.4555359,35.629057 C67.6869739,35.7883178 69.4225628,32.1162621 73.2441673,28.4140148 C71.3521648,32.3781744 72.8230538,35.675854 75.2181365,36.1709966 C77.3462633,36.6102846 79.4939418,34.8501132 79.9503987,34.1323075 C82.1010852,37.2805386 85,34.5368752 85,34.5368752 C84.2043964,34.4274305 82.4018805,33.7277398 82.3838328,28.1611599" id="Fill-14" fill="#28458C"></path>
                <path d="M85.4034786,51 C86.0977205,51 86.6429544,51.2008295 86.6429544,51.491995 C86.6429544,51.6114475 86.457541,51.9421817 86.252655,52.1280796 L85.8987609,52.4729988 C85.8987609,52.4729988 85.9453259,57.6632103 86.0062838,57.8184985 C86.0765546,57.9954376 86.5625239,58.3881377 86.5625239,58.3881377 L86.7360844,58.5613438 L86.8410673,58.6845292 L86.916418,58.8077146 L86.9477435,58.8846122 L86.9731426,58.95927 L86.9993884,59.0869349 C87.0036215,59.3019494 87.000235,59.4714226 86.4837867,59.6744919 L86.2543483,59.752136 L86.0731681,59.8133555 L85.9097672,59.856657 L85.4822158,60 L84.5018108,59.6841974 C84.543296,59.6461219 85.7353601,59.1683119 85.8132507,59.0802157 L85.8386498,59.0503526 L85.8428829,59.0421402 L85.8479628,59.0100373 L85.8479628,58.9697221 L85.8411897,58.9316466 L85.8132507,58.8644546 L85.7573727,58.7912899 L85.635457,58.6673579 L85.5118481,58.5501452 C85.5118481,58.5501452 84.9691541,58.1776027 84.8836438,57.9976773 C84.7710412,57.7565326 84.8379254,53.410701 84.8209927,53.0620489 L83.9311778,53.5435919 L83.7127456,53.654832 L83.4663744,53.7526338 L83.2868874,53.8026545 L83.1361861,53.8302779 L83.008344,53.8429697 L82.8305504,53.8489423 L82.6476769,53.8429697 L82.5164482,53.8377437 L82.4148519,53.8325176 L82.2903963,53.821319 L82.139695,53.8011613 L82,53.7810037 C82,53.7810037 82.496129,53.4009954 82.5071352,53.3927831 C82.6663029,53.2621319 83.2572552,52.8216508 83.5899833,52.5678142 C84.4256135,51.9272501 84.9081963,51.4763169 85.4034786,51" id="Fill-16" fill="#28458C"></path>
                <path d="M83,60 C84.3272962,60.2517703 84.9822122,60.411487 85.2063389,61.209284 L86,64 C85.356727,63.895358 84.3175938,63.0763179 83.9217335,62 C83.6626779,61.2730134 83.5346054,60.5310779 83,60" id="Fill-18" fill="#28458C"></path>
                <path d="M86.2595946,46.4237934 C86.3168091,46.1560242 86.4791972,46.0147015 86.7484418,46.001313 C87.0168451,45.986437 87.4282845,46.0980075 87.9836015,46.3337932 L88.3883099,47.8920612 C88.5380772,47.8838794 88.7349623,47.9485903 88.8031149,48.0274334 L88.8283566,48.0467723 L88.855281,48.0713178 L88.8880952,48.1062766 L88.9251163,48.1546238 L88.9587719,48.2118967 L88.9680272,48.2312356 L88.9764411,48.2528059 L88.9873792,48.282558 L88.9966344,48.3182606 L89,48.3495003 L88.9924275,48.414955 L88.9772825,48.4685088 L88.9554064,48.5228065 L88.9150197,48.5904926 L88.8670605,48.6499969 L88.805639,48.7072697 L88.7408521,48.7518979 L88.6230575,48.8069394 L88.5540636,48.8247907 C88.5793053,49.4280152 88.3992479,49.6013214 88.2402253,49.7017348 L88.0626922,49.5076022 L87.7951303,49.1959486 L85.8464724,50 C85.350894,49.9851239 84.962172,49.9404957 84.6803066,49.8616526 C84.3975997,49.784297 83.9449322,49.4168582 84.0055122,49.3409902 C84.236053,49.0494193 85.0883805,48.6819804 87.1893299,48.0839625 C87.0656457,47.7239617 87.1043496,47.6912343 86.9596306,47.359498 C86.8149116,47.0277617 86.6399026,46.7347032 86.2595946,46.4237934" id="Fill-20" fill="#28458C"></path>
                <path d="M90.9244544,58.715594 L91.0088816,58.6767881 L93.7633167,58.13691 C95.1830996,57.6242641 95.0360557,58.6624912 94.9474072,59.4154612 C94.9291146,59.5672807 94.8693121,60.0615449 94.8693121,60.0615449 C94.2755079,62.6554107 93.7569847,64 92.8444681,64 C92.6566177,64 92.4448463,63.9264731 92.26966,63.8413725 L91.8475244,63.4192736 C91.5970572,63.3260034 91.4500133,63.3178337 91.2874911,63.3117065 C91.1242653,63.3055792 90.776707,63.2967288 90.6768015,63.2967288 C89.901479,63.2967288 88.9411204,63.4560371 87.3412263,63.5949212 L87,63.6085373 L87.0042214,63.5316064 L87.035178,63.3906798 L87.0816129,63.2946863 L87.1491546,63.2232018 L87.2159927,63.1700991 L87.2722775,63.1381013 L87.3630367,63.097253 L87.4284677,63.0754672 L87.4896774,63.0577663 L90.1118433,62.4947408 L90.6331808,62.3892161 C90.6331808,62.3892161 91.0292848,62.347687 91.1390401,62.3429214 C91.6216818,62.3252205 92.1746795,62.3041155 92.5489731,62.6016272 C92.8894959,62.1243831 92.9492984,62.0903428 93.1934336,61.4006877 C93.4368651,60.7110325 93.6064229,59.8824932 93.6064229,58.9504716 L91.884813,59.2738538 C91.884813,59.2738538 90.3623105,59.562515 90.3130613,59.5597918 C90.2947688,59.5584302 90.588153,59.151309 90.6845407,58.9824694 C90.6950941,58.9634069 90.8210312,58.8047794 90.8315846,58.7884401 C90.8393237,58.7775472 90.9244544,58.715594 90.9244544,58.715594" id="Fill-22" fill="#28458C"></path>
                <path d="M87.3873214,60.0037443 C88.1950647,60.0973531 88.5928525,60.0308909 89,60.0908005 L88.8436928,60.9651058 L88.2427992,60.9688502 C87.4406718,61.0334402 87.1860876,61.0381206 87.0063811,60.5719492 C87.0035732,60.5653966 86.9979574,60.4689796 87.0007653,60.4540023 C87.0045092,60.4259196 87.0063811,60.3809875 87.0063811,60.3809875 L87.041948,60.2761457 L87.1037221,60.1965783 L87.1888955,60.0908005 L87.2544135,60 L87.3873214,60.0037443 Z" id="Fill-24" fill="#28458C"></path>
                <path d="M89.4137612,50 C90.3520866,50.2013934 90.76215,50.5506735 90.76215,50.9549466 C90.76215,51.0493265 90.7562071,51.0240595 90.7529054,51.136275 L92.5093767,50.6175569 C92.8732171,50.84719 92.9669836,51.0329772 92.9669836,51.1942406 C92.9669836,51.3294937 92.9055732,51.3480725 92.5305071,51.4424524 L90.76215,51.86902 C90.8176175,52.4308407 90.8195985,52.4613098 90.8585578,52.7741756 L92.5186212,52.387738 C92.8705758,52.6976312 92.9768885,52.8841616 93,53.0588017 C93,53.179935 92.9729266,53.2572225 92.6255943,53.3084998 L90.9391178,53.6020437 L90.9609086,53.9409196 C90.9609086,54.1831863 90.9747755,54.2820251 90.9747755,54.510915 C90.9747755,54.5614491 91.4984152,54.3979563 91.5512414,54.3979563 L92.1924194,54.2641895 C92.3865557,54.3726893 92.3383518,54.3385044 92.4453249,54.4232234 C92.6817221,54.6097538 92.6830428,54.8720855 92.659271,54.97464 C92.6388008,55.0660474 92.548336,55.1165815 92.2320391,55.1165815 L91.9903592,55.0965165 C91.5888801,55.1359034 91.3465399,55.1819786 91.1755151,55.2295402 C91.0876915,55.2540641 91.034205,55.2607524 91.0031696,55.3395262 C90.953645,55.4651184 91.0216587,55.8827682 91.0216587,56.2075244 C91.6185948,56.0849048 91.6113312,56.0953089 91.9639461,56.0269392 C92.3806128,55.9459359 92.6150291,55.9957269 92.7583201,56.195634 C92.9201004,56.4193219 93,56.7180678 92.9768885,56.7946122 C92.9445325,56.9023688 92.8943476,56.9766837 92.729926,56.9766837 L92.5192816,56.9365536 L92.3429741,56.9365536 C91.70972,56.9365536 91.3022979,57.0004645 90.6360275,57.1461217 C90.2305864,57.2345564 89.3596144,57.5771482 88.6524036,57.8045518 C88.5606181,57.8342778 88.1082937,58 88.1082937,58 L88.0666931,57.8699489 L88.0231115,57.7019972 L88,57.5221551 C88,57.3244775 88.0640518,57.1542963 88.2291337,57.0524849 L89.9407026,56.4490478 C89.9407026,56.4490478 89.9076862,55.7935903 89.9076862,55.4836972 L89.860803,55.5007896 C89.699683,55.5431491 88.2885631,56.105713 88.2885631,56.105713 L88.2588484,55.941477 L88.1829107,55.4420808 C88.487982,55.2808175 89.9241944,54.730144 89.9241944,54.730144 L89.9195721,54.3920111 L89.891178,53.8465397 L89.3569731,54.0300975 L88.64514,54.2760799 C88.5243001,54.3206688 88.3955362,54.3682304 88.3149762,54.4016721 L88.2159271,53.6377148 C88.3149762,53.5908964 89.8482567,53.0692058 89.8482567,53.0692058 L89.8310882,52.8522062 C89.7941099,52.5326521 89.7967512,52.3795634 89.7373217,52.1320948 C89.2935816,52.2554575 88.5143951,52.5616349 88.2872425,52.6121691 L88.2542261,52.4405016 L88.1716852,52.0295402 C88.3182779,51.9849512 88.6761754,51.8110543 89.5913893,51.4595448 L89.7188325,51.0589875 L89.7386424,50.9802137 L89.7452456,50.8717139 L89.7280771,50.7944264 L89.5966719,50.4666976 L89.4137612,50 Z" id="Fill-26" fill="#28458C"></path>
                <path d="M92,60 L92,60.3926461 C92,60.5252791 91.9710372,60.767564 91.7369863,60.7393303 L91.4450098,60.7314511 L91.1373777,60.7209455 C90.8383562,60.9612607 90.4861057,61 90.3279843,61 C90.1933464,61 90.0947162,60.8102429 90,60.45174 L92,60 Z" id="Fill-28" fill="#28458C"></path>
                <path d="M91.1627907,46 C91.483168,46.2149254 91.7571963,46.4803674 91.7571963,46.9047072 C91.7571963,47.1499426 91.7124736,47.3786452 91.6116442,47.6560276 L93.7859815,47.4695752 C94.5950561,47.9591274 95,48.343054 95,48.6204363 C95,48.8326062 94.7747601,49.1623421 94.1681574,49.1623421 L93.7721581,49.1540758 L91.2229631,48.9685419 C90.6570174,49.8245695 90.2309319,49.9853042 90.0585461,50 L90.0390307,49.9265212 L90.0195154,49.8300804 L90.0040657,49.7428243 L90,49.675775 L90,49.6096441 L90.0048788,49.5352468 L90.0162628,49.4479908 L90.0308993,49.3285878 L90.0780615,49.0484501 L90.1886486,48.5717566 C90.5635063,47.0204363 90.8993332,46.1846154 91.1627907,46" id="Fill-30" fill="#28458C"></path>
                <path d="M133.399346,52.3472166 C133.504625,52.5707372 133.565122,53.32955 133.613833,53.8626721 C133.613833,53.8626721 133.671973,56.2808907 133.593406,57.0057053 C133.537623,57.5250834 133.532909,58.2824495 133.506197,58.6101351 C133.466913,59.1049187 133.430773,59.4817933 133.400917,59.9027934 C133.30978,61.1657936 133.341207,61.08984 133.341207,61.1267317 L133.350635,61.3444654 C133.377347,61.5527954 133.658616,61.5911339 134.074234,61.4703314 L135.075959,61.1506029 C136.314956,60.7628777 136.300814,60.755644 137.649805,60.4373622 C138.998009,60.118357 140.466421,60.0785718 141.934832,59.8673484 C142.45573,59.9367917 142.807708,59.9338982 143.152616,60.1060597 C143.446456,60.25218 143.825933,60.4872746 143.963425,60.7216458 C143.970496,60.733943 143.985423,60.7766217 143.986995,60.7853021 C143.99878,60.8344911 144.001137,60.9126149 143.999565,60.9451664 C143.979924,61.3061269 143.712797,61.4739483 143.381245,61.4717782 C143.085049,61.4696081 142.729142,61.4573108 142.287597,61.2070256 L141.03053,61.2120891 C140.42478,61.2070256 140.04766,61.2128125 139.502407,61.2714053 C138.956369,61.3285514 138.326264,61.3951012 137.678089,61.5397748 C137.031485,61.6830016 135.922908,61.951371 135.302232,62.145957 C134.680769,62.3390962 134.407357,62.6031254 133.719113,62.9083867 C133.314494,63.0537836 132.873735,63.0118283 132.629392,62.8823454 C132.202775,62.6552079 132.044856,62.5698505 132.007144,62.0649398 C131.994573,61.9043521 132.000859,61.817548 132.008715,61.6613005 C132.018143,61.4956493 132.011072,61.2207695 132.070783,60.908998 L132.376408,57.4484064 C132.376408,57.4484064 132.393692,57.1134871 132.394478,57.0628513 C132.407049,56.2468924 132.46126,55.5039937 132.38505,54.692375 C132.304912,53.8308439 132.181562,52.8557441 132.014215,52 L133.399346,52.3472166 Z" id="Fill-32" fill="#28458C"></path>
                <path d="M139.768954,49.0802681 L139.845219,49.0436409 L139.936333,49.0218204 L140.057818,49 L140.167829,49 C140.526209,49 140.802925,49.2002805 141,49.6008416 L140.132733,50.7830424 L139.326209,51.8678304 C139.604274,51.8678304 139.665017,51.9847257 139.665017,52.1444825 L139.630596,52.2839776 C139.595501,52.3774938 139.542857,52.6416771 139.51991,52.6814214 C137.161755,53.9236284 136.272216,54.8556733 136.084589,55.8383728 L136.069066,56.0098192 L137.521485,54.8112531 L137.586277,54.7754052 L137.686164,54.7333229 L137.773228,54.7138404 L137.889989,54.7037095 L137.968954,54.7029302 C138.246344,54.7029302 138.433296,54.9078865 138.537233,55.3076683 L138.016873,56.8101621 L137.601125,58.2121259 C137.454668,58.457606 137.265692,58.5121571 137.184702,58.5121571 C137.045669,58.5121571 136.828346,58.4155237 136.828346,58.0562656 L136.831046,57.8115648 L136.843195,57.667394 L136.877615,57.4733479 L136.924859,57.2909913 L137.017323,57.0447319 L137.591001,55.8570761 C136.682565,56.2194514 136.308661,56.8514651 135.904387,58.1832918 L135.716085,59 C135.172103,58.3999377 135,57.7312968 135,56.9301746 L135.016873,56.5303928 L135.107987,55.8835723 C135.385377,55.1229738 135.721485,54.1784601 136.588076,53.2970698 L136.543532,52.0236908 L136.485489,50.0247818 C136.565804,49.9717893 136.728459,49.8969763 136.786502,49.8969763 C136.959955,49.8969763 137.282565,49.9990648 137.653093,50.2001247 L137.289314,50.4775561 L137.287964,51.4875312 C137.287964,51.7937968 137.327109,51.9262781 137.385152,52.1195449 C137.443195,52.3128117 137.568054,52.4663342 137.683465,52.6658354 L138.67964,51.951995 L139.109561,50.1393392 L138.529809,50.5757481 L138.48054,50.5944514 L138.412373,50.6154925 L138.316535,50.6380923 L138.232171,50.6513404 L138.169404,50.6474439 C137.983802,50.6474439 137.826547,50.4759975 137.792126,50.2624688 L139.768954,49.0802681 Z" id="Fill-34" fill="#28458C"></path>
                <path d="M140.355892,47 C141.038171,47 141.633413,47.681388 142,48.3292228 C140.294671,48.6389447 139.161719,49.145684 137.278628,49.661887 C137.114881,49.7358761 136.142725,50 135.889729,50 C135.649272,50 135.283422,49.72039 135.055504,49.661887 C134.828324,49.6025237 134.341508,49.1861199 134,49.0088902 L140.355892,47 Z" id="Fill-36" fill="#28458C"></path>
                <path d="M141.701248,56.8561068 C142.450078,57.0678851 142.5078,57.3449376 142.456318,57.6763853 C142.430577,57.8417464 142.266771,58.051349 142.079563,58.2624021 L139.893136,59 L141.383775,57.8439223 C141.017941,57.7220772 140.919657,57.548738 140.863495,57.3681462 C140.857254,57.3478387 140.851014,57.3268059 140.845554,57.3072237 C140.834633,57.2651581 140.823713,57.2245431 140.811232,57.1832028 C140.801092,57.1483899 140.789392,57.1143023 140.775351,57.0816652 L140.75819,57.0294459 L140.74805,56.9474906 L140.74883,56.8111401 L140.773791,56.6914708 L140.842434,56.5340876 L140.933697,56.3832318 L142.035881,55.0726719 C141.715289,55.0726719 141.24259,55.1749347 140.213729,56.0445315 C140.070983,56.6124166 140.070203,56.9177546 140.070203,57.2455759 L140.067083,57.8627792 C139.893136,58.0252393 139.591264,58.0738323 139.443838,58.0984914 C139.136505,58.0984914 139,57.6959675 139,56.8764143 C139.160686,56.578329 139.201248,56.2548593 139.201248,55.9067305 C139.201248,55.5716565 139.212168,55.205396 139.051482,54.8072237 L139.865835,55.2953293 C140.667707,54.66217 141.563963,54.353931 142.460218,54 C142.620905,54 142.74571,54.0805048 142.839314,54.1544822 C142.932137,54.2291848 142.985959,54.4532927 143,54.5903684 C143,54.7644328 142.912637,55.0102988 142.725429,55.2336815 L141.701248,56.8561068 Z" id="Fill-38" fill="#28458C"></path>
                <path d="M46.8480844,60.9909342 C45.3888211,61.649192 43.7183487,62 41.816755,62 C39.5503456,62 37.8222706,61.4513205 36.611907,60.3988963 C35.4022546,59.3243989 34.738048,57.9054001 34.738048,56.1284982 C34.738048,54.834056 34.9343231,53.4836421 35.4712353,52.1884115 C36.0095698,50.8947576 36.3644296,50.3106031 36.3644296,50.1135199 C36.3644296,50.0473 36.2677143,49.98581 36.190911,49.98581 C36.075706,49.98581 35.8516963,50.3366181 35.2948721,50.6219945 C34.738048,50.9073709 34.3753656,50.9625542 33.8000517,50.9255026 C33.465815,50.9050059 33.1479345,50.7426094 33.044819,50.6133228 C33.0305961,50.5951912 33.0085507,50.5731179 33,50.5541979 C32.9978836,50.5486795 33.1970033,50.4469846 33.2951409,50.3831297 C33.3221643,50.3657864 33.4203019,50.3090264 33.4231465,50.3074497 C34.2260257,49.8809618 35.1313095,49.3094206 36.151087,48.5124162 C36.5927062,48.1623965 36.9361878,48 37.1289072,48 C37.3202044,48 37.553459,48.2696098 37.8030698,48.5983445 C38.0526806,48.9278676 38.1870865,49.2786756 38.1870865,49.651557 C38.1870865,49.8715018 38.129484,50.0457233 38.014279,50.1781632 C36.4398107,52.0646433 35.8211172,53.950335 35.8211172,55.8376035 C35.8211172,57.2408356 36.4291435,58.3074497 37.2810916,59.201419 C38.1678856,60.1316516 39.4066949,60.5770595 41.7868871,60.5029562 C44.4501137,60.4201813 45.944223,59.7240836 46.8253279,58.7039811 C47.7135442,57.6752069 48.1245842,56.7497044 48.1530299,54.8640126 C48.1558745,54.6724478 48.1601413,54.3681514 48.1622748,54.348443 C48.1622748,54.348443 48.2789021,54.5510445 48.3059254,54.6007095 C48.3094812,54.6062278 48.3201483,54.6251478 48.323704,54.6322428 C48.4460204,54.8703193 48.5605143,55.3630272 48.6913644,56.1442649 C48.9032847,57.2849823 49,58.1269216 49,58.6748128 C49,59.552227 48.2881469,60.3113914 46.8480844,60.9909342" id="Fill-40" fill="#28458C"></path>
                <path d="M40.6779853,53.6747414 C40.3722948,54.0361398 40.1533758,54.5559775 39.5738375,55.2290166 C39.0197734,55.8712845 38.2483824,56.4212387 37.644962,56.6975252 C37.0351731,56.97774 36.5471827,56.9921435 36.1411875,56.9986906 C36.1340229,56.9993453 36.1061605,57 36.0997919,57 C36.0472513,57 36.0249614,56.9941076 36.0010793,56.984287 C35.997099,56.9823229 36.0050597,56.9738117 36.0098361,56.9679193 C36.0392907,56.9319104 36.8170502,56.2562525 37.0630355,56.040199 C37.5183871,55.6139845 37.8734339,55.4241194 38.6376602,54.4466414 C39.3827809,53.4953516 39.4926384,53.4154773 39.522093,53.2792982 C39.5372183,53.2072803 39.46398,53.1627602 39.3596949,53.1863297 C39.268147,53.2066256 39.233916,53.2459081 39.0022599,53.3428048 C37.9060727,53.9254943 37.1792616,54.2698704 36.792372,54.2698704 C36.5344456,54.2698704 36.3752318,53.8534765 36.3752318,53.4527956 C36.3752318,53.217101 36.4635955,53.0337829 36.5328535,52.9905722 L36.5424063,53.0226529 C36.5527552,53.0730653 36.5646963,53.1044913 36.5710648,53.1306796 C36.572657,53.1378814 36.5822098,53.1627602 36.5822098,53.1627602 C36.5981312,53.223648 36.6435071,53.2583475 36.6578364,53.266204 C36.7907799,53.335603 36.9913893,53.2806076 37.1195564,53.2629305 C37.5725198,53.1987692 38.2014144,52.9251015 39.5985156,52.2153987 C39.7489727,52.1420715 40.1462112,52 40.2743783,52 C40.4463292,52 40.5052384,52.0248789 40.6771893,52.1525468 C40.8491402,52.2802147 40.9876562,52.6671468 40.9972091,52.7948147 C41.007558,52.9218279 41.0059658,53.2878093 40.6779853,53.6747414" id="Fill-42" fill="#28458C"></path>
                <path d="M46.6015991,56.3610581 C46.1988597,56.3820319 45.8766681,56.3610581 45.6350244,56.3191104 C45.3933808,56.2779119 45.1017676,56.2254774 44.4819963,55.7528177 C43.8652083,55.280907 44.2515399,55.5573118 43.209638,54.4936402 C42.7405211,54.0134899 42.5048439,53.7505682 42.1654987,53.5760362 L42.1461075,56.9910213 C42.1625154,57.8082507 42.1393952,58.3610603 42.0722719,58.6419595 C42.0670512,58.6606861 42.0446768,58.7400869 42.0357271,58.7558173 C41.7530636,59.2479527 40.8200506,58.8794129 40.4702639,58.6636824 C40.17343,58.4794125 40.0138259,58.3625584 39.8325931,58.2172399 C39.2329588,57.6809097 39.112137,57.3655536 39.0241309,57.0644296 C39.0204019,57.0516955 38.9972816,56.9078751 39.0002649,56.883156 L39.0010107,56.8809088 C39.0069772,56.8861523 40.0279963,57.4022577 40.2867937,57.4921455 C40.325576,57.5056286 40.3665958,57.5191118 40.4113446,57.5325949 C40.5515576,57.5752916 40.8446624,57.6075014 40.9050733,57.5243552 C40.9856212,57.44046 40.9923336,57.173793 41.0020291,56.4060019 C41.0124705,55.6127426 41.0736273,54.4524417 41.0736273,52.8689193 C41.0736273,49.8681669 40.9960626,48.7258435 40.7454692,48.5872666 C40.6753627,48.5475662 40.6156976,48.5355811 40.5396246,48.5535587 C40.4516186,48.5745325 40.4188027,48.5872666 40.377783,48.5872666 C40.3382549,48.5872666 40.3181179,48.545319 40.3181179,48.4823975 C40.3181179,48.1700376 40.5813902,48 40.9841296,48 C41.3667321,48 41.6769906,48.12809 41.9186343,48.4621728 C42.140141,48.7955065 42.1662445,49.6074924 42.1461075,50.0928862 C42.1259705,50.5962576 42.1304454,50.891389 42.1304454,52.3093681 C42.2512672,52.3722895 42.6942806,52.8809043 43.2387247,53.2764104 C43.7615402,53.6928903 44.7020114,54.3221045 45.0644769,54.5101196 C45.4470794,54.6973858 45.2680841,54.6284718 45.9109756,54.943828 C46.5687833,55.2666748 47.002847,55.4509447 47.3593459,55.628473 C47.7255405,55.8112447 48,55.9633048 48,55.9633048 C48,55.9633048 47.1661802,56.3318445 46.6015991,56.3610581" id="Fill-44" fill="#28458C"></path>
                <path d="M45.0199557,50.8803569 C44.2597007,51.4543514 44.0788248,51.5733502 43.7927384,51.7544735 C43.7833703,51.7605984 43.704102,51.802598 43.6594235,51.8235978 C43.656541,51.8253478 43.4980044,51.8892222 43.4432373,51.905847 C43.4309867,51.908472 43.3128049,51.9417217 43.29551,51.9460966 C43.1939024,51.9697214 43.012306,52.0047211 43.0000554,51.9994711 C42.9957317,51.9977211 43.2450665,51.6643493 43.4778271,51.3231026 C43.7740022,50.8917318 43.8748891,50.8042326 44.1177384,50.4078614 C44.3649113,50.0062403 44.5364191,49.6606186 44.5493902,49.5643696 C44.5594789,49.4899953 44.5652439,49.4593706 44.532816,49.3884963 C44.5248891,49.3701214 44.485255,49.3307468 44.4730044,49.3246219 C44.4139135,49.2869972 44.3656319,49.2668724 44.3656319,49.2668724 C44.3656319,49.2432477 44.4369734,49.1653734 44.5342572,49.0962491 C44.6322616,49.0253748 44.8261087,49 44.9817628,49 C45.1957871,49 45.4249446,49.0638744 45.6973392,49.209123 C45.9502772,49.3552466 46,49.4864953 46,49.6326189 C46,49.8767416 45.564745,50.4419861 45.0199557,50.8803569" id="Fill-46" fill="#28458C"></path>
                <path d="M62.3135335,52.4517926 C61.8885931,53.1327343 61.255717,53.9524366 60.5470512,54.6137488 C59.8072922,55.3143201 59.1951448,55.7739219 58.3621062,55.9654791 C58.2765999,55.9878162 58,56 58,56 C58,56 58.3122275,55.5613815 58.6011352,55.2134649 C58.7449412,55.0510136 58.9230793,54.7998909 59.0545777,54.6442084 C60.328751,53.1374725 60.8171733,52.0564944 61.4228429,50.9037669 C61.6463253,50.4028754 61.7532082,50.0251761 61.8128035,49.8072206 C61.8529655,49.65763 61.8827632,49.453889 61.819929,49.1939669 C61.794018,49.1046186 61.7700503,49.0362537 61.7551515,49.0017328 C61.7551515,49.0017328 61.762277,48.9990253 61.7726414,49.0003791 C61.8270545,49.006471 62.0686746,49.108003 62.1457598,49.1520003 C62.5305381,49.3645407 62.5959634,49.4545658 62.8077858,49.7449476 C62.9794462,49.9818557 63.0364504,50.5179451 62.9775029,50.806973 C62.9651952,50.8678923 62.9133732,51.0696027 62.8991221,51.1122461 C62.772806,51.4926529 62.5927245,51.996252 62.3135335,52.4517926" id="Fill-48" fill="#28458C"></path>
                <path d="M62.7005553,59.2872877 C62.528369,59.59635 62.3751141,59.9411905 62.1632619,60.4040227 C62.0244311,60.7047114 61.7981548,61.1058833 61.6971869,61.3144623 C61.6241655,61.467471 61.5574546,61.5717605 61.3690413,61.8145951 C61.234718,62.0178455 60.9155874,61.9995758 60.7542191,61.9995758 C60.5649043,61.9995758 60.3918165,61.852657 60.2998636,61.6669151 C59.962703,60.9970264 59.966309,59.4212655 60.0411334,57.0309808 C60.0546559,56.5186682 60.0844053,56.0931366 60.0844053,55.5054615 C60.0844053,55.4285765 60.0907158,55.0685113 60.0889128,55 C60.0889128,55 60.5054054,55.0981996 60.6226002,55.1484412 C60.6730842,55.1705171 60.7659385,55.2146689 60.779461,55.22152 C60.9020649,55.2839415 60.9696773,55.3478854 60.9958208,55.3783349 C61.0327822,55.4209642 61.265369,55.6775011 61.3735488,56.4783226 C61.4213283,56.8246855 61.3915788,57.5052315 61.3780563,58.0571285 C61.3582233,58.8967731 61.2806944,59.6130973 61.3888743,59.6321282 C61.4871377,59.6496366 61.4781227,59.5697067 61.5240992,59.5301224 C61.5682726,59.493583 61.6403925,59.4349678 61.7720114,59.345903 C62.0758165,59.1175319 62.3264332,58.9492984 62.5806559,58.854905 C62.7474332,58.7932448 63.0070649,58.71027 62.9998529,58.7277784 C62.9782169,58.7787813 62.891673,58.9333125 62.882658,58.9508209 C62.8150456,59.0809925 62.8150456,59.0809925 62.7005553,59.2872877" id="Fill-50" fill="#28458C"></path>
                <path d="M72.5715425,56.5040655 C72.3515995,56.5660344 71.9334969,56.8084874 71.0719948,57.4266265 C71.032644,57.4560616 70.8105929,57.634222 70.7705393,57.6458412 C70.7670259,57.6466158 70.762107,57.6497142 70.7607016,57.6489396 C70.7578909,57.644292 70.7543774,57.6326728 70.7508639,57.6241521 C70.7234589,57.5544372 70.7051889,57.3259271 70.7789717,57.1640335 C70.8049713,57.107487 70.8724299,56.9758032 71.0010228,56.8309511 C71.0228063,56.8069382 71.1253995,56.6868736 71.1422641,56.6690575 C71.1612369,56.6489177 71.2195604,56.5861742 71.2174523,56.5660344 C71.2174523,56.5660344 71.218155,56.5466691 71.2118308,56.5412468 C71.2062092,56.5358246 71.199885,56.5311769 71.1942635,56.5273039 C71.0431844,56.4250553 70.7951336,56.3344259 69.9329288,56.566809 C70.042549,57.2275516 70.1634122,57.9587838 70.1465476,58.7008605 C70.1156291,60.0680477 69.7270397,60.7961814 68.999752,61.4677686 C68.6287299,61.7365584 68.2598159,61.9123949 67.7609035,61.9766876 C67.351936,62.0301357 66.6225403,62.0161927 66.0660071,61.6668434 C65.6043375,61.3763646 65.431475,61.0556759 65.282504,60.7884353 C65.2803959,60.7837877 65.241045,60.6931582 65.2382343,60.6892852 C65.2002888,60.6249925 65.1616407,60.5235186 65.1349383,60.4468322 C65.1349383,60.4468322 65.3682326,60.7132981 65.493312,60.8116736 C65.5214197,60.8333627 65.5656894,60.8682202 65.5846621,60.8813886 C65.6254183,60.9108237 65.6956877,60.9611734 65.7399574,60.9867356 C65.7483897,60.9913832 65.7947674,61.0161708 65.8024971,61.0200438 C66.3611383,61.3004527 66.9268065,61.260173 67.2683155,61.1842612 C67.5782033,61.1153209 67.8726318,60.989834 68.1656549,60.701679 C68.999752,59.757429 69.086886,58.483195 68.7369447,56.8603863 C68.2485728,56.9595364 68.0237109,57.0927694 67.6428511,57.2624091 C67.1235606,57.4932429 66.96686,57.511059 66.1299522,58.1663793 C66.1095741,58.1826461 65.5403924,58.6644538 65.3387194,58.9812694 C65.3338006,58.9874663 65.0421828,59.3910383 65,59.5281443 C65,59.5281443 64.9929943,58.908456 65.2347208,58.3987624 C65.8678476,57.0633342 67.2149108,56.2221074 68.5415959,55.7124138 C68.4938128,55.5474218 68.4284623,55.3506707 68.3792737,55.2267331 C68.376463,55.2205362 68.2928424,54.9912516 68.282302,54.9711117 C67.8529564,54.1477009 67.7854978,54.0074964 67.4446915,54.0733383 C67.3976111,54.1616439 67.0160486,54.1988252 66.9429684,54.1779107 C66.8881584,54.1577708 66.8171863,54.0392554 66.7989163,53.9571468 C66.7616735,53.688357 66.6787557,52.9919823 66.8986988,52.8060758 C67.3385848,52.2111751 67.5030151,51.9849888 68.605541,50.6913896 C69.1606688,50.0190278 69.3827199,49.8470643 69.4066115,49.7587587 C69.4326111,49.6603832 69.1431014,49.9036109 68.9048884,50.0058594 C67.5486901,50.7409646 66.0610882,50.8889152 65.3998538,50.3931646 C65.3162332,50.3180274 65.1756946,49.9531859 65.1321276,49.8222768 C65.1286141,49.8122068 65.1089387,49.7378442 65.1075333,49.7285489 C65.1040198,49.7091837 65.0822363,49.6146812 65.0822363,49.603062 C65.0822363,49.603062 65.2937471,49.6061605 65.3836918,49.6053859 C65.7814163,49.617005 66.283842,49.5046865 66.650648,49.3807489 C67.2732343,49.1747025 68.1066287,48.9717546 69.4438542,48.2498178 C69.8647676,48.0236316 70.2133035,47.9407483 70.4697866,48.0437714 C70.6897296,48.1266547 70.8387006,48.3102374 70.9644827,48.5805764 C71.1001025,48.8718299 71.1844257,49.0747778 71.1844257,49.3017386 C71.1752907,49.5922175 70.7178373,50.2940145 69.9666581,50.9958114 C68.5373797,52.3157474 68.0335486,52.9300134 68.0251163,53.1747903 C68.0230082,53.2398576 68.1818169,53.3072487 68.3244636,53.362246 C69.0124005,53.6899062 69.166993,54.0609445 69.6251491,55.3398262 C69.8057413,55.2747589 70.0067116,55.236803 70.113521,55.205044 C71.4036661,54.87506 72.1393861,55.0671634 72.7071623,55.4382017 C72.9819154,55.6031937 72.9987801,55.6705848 72.9987801,55.8557167 C73.0170501,56.0207087 72.8280256,56.4420967 72.5715425,56.5040655" id="Fill-52" fill="#28458C"></path>
                <path d="M106.803087,50 C107.48363,50 108.007484,50.1145515 108.375429,50.3436545 C108.741815,50.5727576 108.926567,50.8759372 108.926567,51.2539572 L108.926567,51.4960428 L108.667758,52.9806304 L108.926567,52.8782977 L108.926567,52.7095251 C109.757562,52.8782977 110,53.1173285 110,53.4258539 C110,53.5755346 109.980511,53.8153291 109.818366,53.98792 L108.551606,54.5110386 C108.437792,55.9910442 108.530558,56.3942655 108.410508,57.6207304 C109.138603,57.0937934 109.121453,57.1388503 109.660898,56.6401694 C109.137824,58.630311 108.143124,59.8995418 106.727471,60.6265621 C106.611319,60.6746737 106.40396,60.7777701 106.254287,60.8373369 C106.118647,60.8915579 105.859838,61 105.780324,61 C105.32585,61 105.066261,60.3272008 105,59.8017912 C105.894917,59.4611913 106.447615,59.0549153 107.169473,58.351569 L107.202993,56.608095 L107.249766,54.970772 L105.985345,55.5313107 L105.77097,54.4087059 C105.77097,54.1658567 106.178672,54.0276312 106.819457,53.7580533 L107.292641,53.5068037 C107.376832,52.8530964 107.383848,52.6133019 107.383848,52.1413496 C107.383068,51.2791586 107.390084,50.4719522 106.803087,50" id="Fill-54" fill="#28458C"></path>
                <path d="M111.405947,54 C111.646278,54.7977862 111.908394,55.3380137 111.972342,56.0798401 C111.993423,56.3252024 112.009586,56.6372861 111.993423,56.908476 C111.984991,57.0354617 111.970233,57.2219945 111.966017,57.280824 C111.942827,57.6345188 111.892231,58.08148 111.80931,58.4523932 L111.256969,61 C110.727116,61 109.909146,60.3378088 110.00823,59.1382597 C110.570409,57.8841857 111.362378,56.4407092 111.362378,54.464897 L111.405947,54 Z" id="Fill-56" fill="#28458C"></path>
                <path d="M111.081718,53.1282313 L114.267963,51.7262005 L114.101443,50.2472842 L113.760693,47 C114.237126,47.2547776 114.544726,47.565335 114.790652,48.3085621 C114.832283,48.4359509 114.940212,48.9168625 114.936358,49.4045582 C114.914001,49.9208974 115.057394,50.6709085 115.105962,50.8932736 C115.159156,51.1374983 115.166094,51.234736 115.202328,51.3417727 C115.723475,51.1322219 115.954754,51.0063406 116.271605,51.0063406 C116.573038,51.0063406 116.730307,51.1570966 116.745726,51.4563473 C116.746497,51.4729304 116.744955,51.5068505 116.740329,51.5151421 C116.739558,51.5166497 116.731078,51.5347404 116.729536,51.5362479 C116.31709,52.2757061 116.067309,52.6925464 115.566206,53.197579 C116.002551,55.0873055 116.435813,56.137321 116.913788,57.0682393 C117.155088,56.6657207 117.229097,56.5127034 117.417975,55.9843036 C117.61379,55.4370594 117.658504,54.9320268 117.658504,54.2001064 C118.133396,54.5061411 118.703882,54.9033831 118.683838,55.3873099 C118.677671,55.5606793 118.468749,56.3709928 118.279101,56.7222542 L117.50586,58.2260453 C117.942206,59.22405 118.462582,59.8067219 119.090888,60.5311045 C119.716882,61.2569946 120.651246,61.8585111 121.095301,62.0424334 C121.223275,61.9255975 121.24409,61.6459451 121.257967,61.5276016 L121.290346,60.7338713 C121.726691,61.2931761 121.951802,62.2565069 121.98341,62.7788764 C121.989577,62.8896821 122.004225,63.0366692 121.998828,63.1700882 C121.997286,63.2281293 121.9757,63.3366736 121.965678,63.3653173 C121.841559,63.749745 121.408297,64 121.164684,64 C121.01975,64 120.727568,63.8929632 120.516334,63.7203476 C119.684503,63.1346606 118.927452,62.4193234 118.280643,61.6338846 C117.633064,60.8491997 117.175903,60.1346162 116.653985,59.1426418 C116.150569,59.6371214 115.853762,59.8112446 115.853762,59.8112446 L115.578541,59.933357 L115.159927,60.0207955 C115.249355,59.8692857 115.761251,58.9647497 116.223807,58.206447 C115.498364,56.7833104 115.093627,55.6579169 114.618736,54.102115 C114.455299,54.314681 113.816971,55.2998714 113.510912,55.6330422 C114.708163,55.6330422 115.058935,56.6415998 115.179971,57.4225159 C115.183055,57.4428679 115.18768,57.4948787 115.189222,57.5174921 C115.193848,57.6026693 115.191535,57.8152352 115.190764,57.8762914 C115.175345,59.3800825 114.15695,60.3396444 113.415317,60.8589988 L111.161895,60.4353745 C112.915756,59.9582317 113.619613,59.4464151 114.060584,57.7571942 C114.069064,57.7247816 114.113007,57.3863344 114.089879,57.1782911 C114.07446,57.0343192 114.02435,56.8488893 114.013557,56.8202456 C113.860142,56.4305414 113.756067,56.1938545 113.187893,56.0626968 C112.884148,56.2888308 112.602759,56.6777812 112.093176,57.1692458 C111.868065,57.3961336 111.563548,57.5129694 111.418614,57.5129694 C111.206609,57.5129694 111.100992,57.2333171 111.100992,56.6747661 L111.081718,56.2481266 C111.821809,55.6624396 112.505622,55.0903206 113.026769,54.5249856 C113.548688,53.9596506 113.792301,53.7960803 114.242523,53.1289851 C114.261025,53.1093868 114.316532,52.9804904 114.328096,52.9013435 C114.337347,52.8402873 114.357391,52.7634018 114.212457,52.7634018 C113.8162,52.7634018 113.097695,53.1508447 111.82258,53.7176872 L111.338437,53.9724649 C111.140309,53.9724649 111,53.5842682 111,53.4116526 L111.081718,53.1282313 Z" id="Fill-58" fill="#28458C"></path>
                <path d="M117.886809,49.9965543 C119.441786,49.8917383 120.854297,48.3220341 121,47 C119.716193,48.1665007 118.51738,48.598444 117.023923,48.9526207 C116.968879,49.1859208 116.926787,50.0616416 117.886809,49.9965543" id="Fill-60" fill="#28458C"></path>
                <path d="M42.0684282,72.0581897 C42.046748,71.9885057 42.0115176,71.8829023 41.9627371,71.7399425 C41.8868564,71.5905172 41.7791328,71.3663793 41.6382114,71.0682471 C41.6273713,71.0617816 41.6111111,71.058908 41.5894309,71.058908 C41.5623306,71.058908 41.5433604,71.0617816 41.5325203,71.0682471 C41.4945799,71.1602011 41.3590786,71.420977 41.1266938,71.8512931 C40.953252,72.1724138 40.8509485,72.4475575 40.8184282,72.6767241 C40.9810298,72.6716954 41.1998645,72.674569 41.4756098,72.6853448 C41.7947154,72.7018678 42.0135501,72.7112069 42.1334688,72.7112069 C42.2140921,72.7112069 42.2764228,72.7083333 42.3197832,72.7018678 C42.298103,72.6400862 42.2140921,72.424569 42.0684282,72.0581897 M43.6910569,75 L43.5365854,75 L43.3827913,75 C43.3069106,74.8965517 43.2317073,74.7327586 43.1551491,74.5079023 C43.096206,74.3347701 43.0392954,74.1587644 42.9857724,73.9798851 C42.8285908,73.5581897 42.5846883,73.3477011 42.2547425,73.3477011 L42.1903794,73.3477011 C42.1632791,73.3541667 42.1409214,73.3570402 42.1246612,73.3570402 C42.0325203,73.3570402 41.8922764,73.3498563 41.7025745,73.3347701 C41.5135501,73.3211207 41.3705962,73.3132184 41.2730352,73.3132184 C41.2188347,73.3132184 41.1388889,73.3225575 41.0331978,73.3397989 C40.9281843,73.3570402 40.8536585,73.3649425 40.8102981,73.3649425 C40.7723577,73.3649425 40.7262873,73.3570402 40.6720867,73.3397989 C40.601626,73.3225575 40.5562331,73.3132184 40.5338753,73.3132184 C40.447832,73.4511494 40.299458,73.7320402 40.0880759,74.1566092 C39.9092141,74.5122126 39.74729,74.7852011 39.6009485,74.9748563 C39.4979675,74.9920977 39.3949864,75 39.2926829,75 C39.1741192,75 39.0758808,74.9748563 39,74.9224138 C39.3360434,74.2061782 39.8631436,73.1393678 40.5833333,71.7212644 C40.6266938,71.6479885 40.6883469,71.5352011 40.7696477,71.3857759 C40.802168,71.3060345 40.8536585,71.1889368 40.9241192,71.0337644 C40.9945799,70.8778736 41.0650407,70.7262931 41.1348238,70.5775862 C41.2215447,70.3936782 41.2804878,70.2327586 41.3136856,70.095546 C41.3563686,70.0323276 41.4214092,70 41.5081301,70 C41.5514905,70 41.6124661,70.0086207 41.6903794,70.0272989 C41.7689702,70.0431034 41.8272358,70.0524425 41.8651762,70.0524425 L41.8895664,70.0524425 C41.9593496,70.183908 42.0596206,70.3814655 42.1903794,70.6451149 L42.3523035,71.0761494 C42.5359079,71.5646552 42.8069106,72.2119253 43.1639566,73.0215517 C43.5799458,73.9561782 43.8590786,74.5984195 44,74.9482759 C43.9132791,74.983477 43.8102981,75 43.6910569,75" id="Fill-62" fill="#28458C"></path>
                <path d="M49.9812412,72.9195011 C49.9812412,73.2142857 49.9781147,73.3836451 49.9710802,73.4297052 C49.9656089,73.4743481 49.9405972,73.5714286 49.8968266,73.7188209 C49.7530092,74.199263 49.513053,74.5223923 49.1761763,74.6853741 C48.7384712,74.8951247 48.1428795,75 47.387838,75 C46.9133969,75 46.6210724,74.9879535 46.5124277,74.9659864 C46.4030014,74.942602 46.2544943,74.8873299 46.0669064,74.8001701 C45.8801,74.7108844 45.751915,74.6336451 45.6831327,74.5649093 C45.6401438,74.5316043 45.5737064,74.4458617 45.486947,74.3098073 C45.1743005,73.8215703 45.0187588,73.1427154 45.0187588,72.2746599 C45.0187588,72.12089 45.0234485,71.8912982 45.0328279,71.5844671 C45.0422073,71.2776361 45.046897,71.0452098 45.046897,70.8864796 C45.046897,70.573271 45.0312647,70.3068311 45,70.085034 C45.0750352,70.0283447 45.1774269,70 45.3087385,70 C45.3837736,70 45.5025793,70.0113379 45.6651555,70.0340136 C45.7089261,70.3578515 45.7394091,70.9056122 45.7581679,71.6780045 C45.7581679,71.8608277 45.7675473,72.1308107 45.7863061,72.4893707 C45.7988119,72.5559807 45.8144443,72.6587302 45.8332031,72.7947846 C45.839456,72.9712302 45.8457089,73.1469671 45.8519619,73.3234127 C45.8769736,73.5282029 45.9395029,73.6904762 46.0395498,73.8095238 C46.2075973,74.0079365 46.460841,74.1645408 46.7977177,74.2772109 C47.0908238,74.3799603 47.3933094,74.4316893 47.7059559,74.4316893 C48.1616383,74.4316893 48.4961701,74.3785431 48.7079881,74.2694161 C48.7947475,74.2247732 48.8822886,74.1560374 48.9698296,74.0660431 C49.1691418,73.8626701 49.2942004,73.5685941 49.3450055,73.1838152 C49.3629826,72.8663549 49.3817414,72.5467687 49.4005002,72.2250567 C49.4130061,72.026644 49.419259,71.884212 49.419259,71.7998866 C49.419259,71.647534 49.378615,71.07072 49.2973269,70.0687358 C49.4849148,70.0226757 49.6287322,70.0007086 49.7287791,70.0007086 C49.7842739,70.0007086 49.8405503,70.009212 49.8968266,70.0255102 C49.9656089,70.4669785 50,71.0161565 50,71.6723356 C50,71.80839 49.9968735,72.0153061 49.9906206,72.2916667 C49.9843677,72.5701531 49.9812412,72.7784864 49.9812412,72.9195011" id="Fill-64" fill="#28458C"></path>
                <path d="M57.9117791,70.6434532 L56.0820127,70.6434532 L56.0330011,70.7096515 L56.0330011,71.2524778 C56.0330011,72.5046714 56.0231988,73.2419118 56.004411,73.4648956 C56.004411,73.4983432 55.9905244,73.578478 55.9643849,73.7066937 C55.952132,73.8119142 55.9447803,73.8948363 55.9447803,73.9568537 C55.9447803,74.0516218 55.9553994,74.193774 55.9750041,74.3819167 C55.9937919,74.5721498 56.004411,74.7129083 56.004411,74.8083733 C56.004411,74.936589 55.899853,75 55.6907368,75 C55.6515275,75 55.5894462,74.9958191 55.5053096,74.9867603 C55.4203562,74.9797921 55.3550074,74.9749143 55.3092632,74.9749143 C55.2896586,74.9749143 55.2471818,74.983973 55.1826499,74.9993032 C55.2210423,74.2864517 55.240647,73.5847494 55.240647,72.8928027 C55.240647,72.2621765 55.2275772,71.7625533 55.2014377,71.3953268 C55.2014377,71.2615365 55.1851005,71.060851 55.1524261,70.7932704 C55.1197517,70.6866563 55.0160105,70.6336976 54.8395687,70.6336976 L54.6827316,70.6336976 C54.6108479,70.639969 54.5593857,70.6427563 54.5258945,70.6427563 C54.487502,70.6427563 54.4188858,70.6336976 54.3208626,70.6176707 C54.2236563,70.60025 54.0896912,70.5932818 53.9197843,70.5932818 C53.5154387,70.5932818 53.2091162,70.60025 53,70.6176707 L53,70.2915568 C53,70.0915682 53.081686,69.9940127 53.245058,70.0002841 C55.7038066,70.0609079 56.8490443,70.0908713 56.6791374,70.0908713 C56.9470675,70.0908713 57.3612155,70.0859936 57.9223983,70.0755412 C57.9746773,70.2978282 58,70.4204693 58,70.4420709 C58,70.5319612 57.970593,70.5981596 57.9117791,70.6434532" id="Fill-66" fill="#28458C"></path>
                <path d="M64.90725,74.7236615 L64.90725,74.9654577 L64.2780955,75 L64.2780955,72.8360679 C64.2595455,72.7662637 64.2185809,72.7216465 64.1575205,72.6986183 C63.6079765,72.7151698 63.2099243,72.724525 62.9633637,72.724525 C61.9137425,72.724525 61.2134797,72.732441 60.8618024,72.7497121 L60.7597774,72.8367876 C60.7721441,73.0555556 60.7721441,73.3470063 60.7597774,73.7104203 C60.7412274,74.165947 60.7311795,74.4573978 60.7311795,74.584053 C60.7311795,74.734456 60.7412274,74.8474381 60.7597774,74.9215602 C60.6832586,74.9748129 60.5943732,75 60.493121,75 C60.4173752,75 60.2712939,74.9748129 60.0564229,74.9215602 L60,74.8539148 L60,74.0759931 L60.0564229,70.0338227 C60.0803834,70.0395797 60.1174834,70.0431779 60.1669501,70.0431779 C60.2102334,70.0431779 60.2743855,70.0359816 60.3617252,70.0215889 C60.4475189,70.0071963 60.5155356,70 60.5650023,70 C60.633019,70 60.6917607,70.0115141 60.7412274,70.0338227 L60.7597774,71.9048647 C60.7906941,71.9559585 60.8440254,71.9876223 60.9213171,71.9998561 C60.9986087,72.0106505 61.0712629,72.0192861 61.1392796,72.0257628 C61.2436234,72.0423143 61.3309631,72.0509499 61.3982068,72.0509499 C61.5582006,72.0509499 61.8024424,72.0480714 62.1301592,72.0423143 L62.8520637,72.0423143 C63.2648014,72.0423143 63.6759932,72.0509499 64.0833205,72.0682211 L64.1575205,71.9998561 C64.1760705,71.919977 64.1853455,71.7926022 64.1853455,71.6206102 C64.1853455,71.5112263 64.1760705,71.3493092 64.1575205,71.1334197 C64.1389705,70.9175302 64.1296955,70.7556131 64.1296955,70.6462291 C64.1296955,70.4389752 64.1536559,70.2583477 64.2031226,70.1029073 C64.3708456,70.0582902 64.5277477,70.0338227 64.6761478,70.0338227 C64.7681249,70.0338227 64.8369145,70.0395797 64.8794249,70.0518135 C64.9288916,70.115141 64.953625,70.2151698 64.953625,70.3533391 C64.953625,70.4281808 64.9613542,70.5382844 64.9768125,70.6850892 C64.9922708,70.8311744 65,70.9419977 65,71.017559 C65,71.4306275 64.9845417,72.0502303 64.953625,72.8742084 C64.9227083,73.6996258 64.90725,74.3156304 64.90725,74.7236615" id="Fill-68" fill="#28458C"></path>
                <path d="M71.9712138,74.8487933 C71.9712138,74.8916836 71.9744123,74.9229427 71.9808092,74.9462053 L71.9232368,75 L71.5402207,75 L71.1476091,75 C70.8285623,75 70.3511914,74.9934574 69.7154966,74.9825531 C69.0798017,74.9709218 68.6032304,74.9651061 68.283384,74.9651061 C67.881177,74.9651061 67.4725732,74.9760105 67.0575724,75 C67.0199904,74.8655132 67,74.7317534 67,74.5979936 C67,74.4816807 67.0175916,74.3079384 67.0527747,74.0745856 C67.0879578,73.8419599 67.1055493,73.6682175 67.1055493,73.5511777 C67.1055493,73.4581274 67.0975532,73.3221867 67.0815609,73.1404478 C67.0655685,72.9608898 67.0575724,72.8249491 67.0575724,72.7318988 C67.0575724,72.5625182 67.0655685,72.3088107 67.0815609,71.9685955 C67.0975532,71.6283803 67.1055493,71.373219 67.1055493,71.2045653 C67.1055493,70.9603082 67.089557,70.7247746 67.0575724,70.4979645 C67.0199904,70.2246293 67,70.1177668 67,70.1751963 C67,70.0770573 67.0575724,70.0276243 67.1727171,70.0276243 C67.1975052,70.0276243 67.2382856,70.0305321 67.2918599,70.0356208 C67.3462338,70.0414365 67.3894131,70.0443443 67.4213977,70.0443443 C67.485367,70.0443443 67.5365425,70.0305321 67.5741244,70.000727 C67.9323525,70.0479791 68.4049256,70.0705147 68.9926435,70.0705147 C69.2157364,70.0705147 69.5507756,70.0668799 69.9977611,70.0574295 C70.4455461,70.0479791 70.7805853,70.0443443 71.0036782,70.0443443 L71.2819447,70.0443443 C71.4090836,70.0610643 71.5018391,70.0705147 71.5594115,70.0705147 C71.60419,70.0523408 71.6233808,70.0421634 71.6169838,70.0421634 C71.6361746,70.0145391 71.6585639,70 71.6841516,70 C71.7225332,70 71.7513194,70.0152661 71.7705102,70.0450712 L71.693747,70.5481245 C71.239565,70.5953766 70.6494483,70.6186391 69.9217975,70.6186391 L69.1741564,70.6186391 L68.4265153,70.6186391 C68.2170158,70.6186391 68.0594914,70.6222739 67.9579402,70.6266356 L67.8140093,70.7662111 C67.8332001,70.8527188 67.8427955,70.9421343 67.8427955,71.0344577 C67.8427955,71.1093341 67.8300016,71.2292818 67.8052135,71.3935737 C67.7788262,71.5578657 67.7692308,71.6858098 67.7756277,71.7788601 L67.7852231,71.8908113 L67.8907724,71.9860425 C68.0506957,72.0202094 68.2545978,72.0383833 68.504078,72.0383833 L69.1557652,72.0383833 C69.4108428,72.0441989 69.6243403,72.075458 69.7970574,72.1321605 L69.7970574,72.5523408 C69.5867584,72.5690608 69.3788581,72.5785112 69.1741564,72.5785112 C68.4904846,72.5785112 68.0442987,72.6010468 67.8332001,72.647572 L67.7852231,72.6991858 L67.8140093,74.2512358 L67.9387494,74.363187 L68.589637,74.363187 C68.8902927,74.363187 69.3388773,74.3733644 69.9361906,74.3944461 C70.5327043,74.4140739 70.981289,74.4242512 71.2819447,74.4242512 C71.5754038,74.4242512 71.7952983,74.4213434 71.9424276,74.4148008 C71.9808092,74.4576912 72,74.510032 72,74.574731 C72,74.6103518 71.9952023,74.656877 71.9864065,74.7164874 C71.9760115,74.7760977 71.9712138,74.819715 71.9712138,74.8487933" id="Fill-70" fill="#28458C"></path>
                <path d="M78.6648565,75 C78.5787432,75 78.4484096,74.9943883 78.2746315,74.9824635 C77.9534523,74.6464646 77.4259116,74.0193603 76.6951125,73.1011504 C76.0442203,72.2881594 75.4996121,71.6750842 75.0597362,71.2598204 C74.9852599,71.2268519 74.9231963,71.2100168 74.8735454,71.2100168 L74.8363072,71.2100168 L74.7618309,71.3026094 C74.7680372,71.3531145 74.7711404,71.4316779 74.7711404,71.5375982 C74.7711404,71.6603535 74.7571761,71.8462402 74.7292475,72.0917508 C74.7020946,72.3393659 74.6881303,72.5238496 74.6881303,72.6473064 C74.6881303,73.7507015 74.6935609,74.4542649 74.7067494,74.7551908 C74.7191621,74.8014871 74.7245927,74.8351571 74.7245927,74.8569024 C74.7245927,74.8730359 74.7191621,74.8982884 74.7067494,74.9319585 L74,74.9158249 C74.0248254,74.579826 74.0372382,74.2010382 74.0372382,73.7815657 C74.0372382,73.562009 74.0325834,73.2295174 74.0232739,72.7812851 C74.0139643,72.3330527 74.0093095,71.9977553 74.0093095,71.772587 C74.0093095,71.0781425 74.0434445,70.4952301 74.1109387,70.0252525 C74.1613654,70.0252525 74.2335144,70.0210438 74.3304888,70.0126263 C74.4259116,70.0042088 74.4988363,70 74.5484872,70 C74.6159814,70 74.6749418,70.009119 74.7245927,70.0245511 C74.8176881,70.0589226 74.9418154,70.1592312 75.0969744,70.3275814 C75.2017067,70.4559484 75.3072149,70.5850168 75.412723,70.7147868 C75.4623739,70.7645903 75.5368503,70.8368406 75.6353763,70.9322391 C75.6850272,70.9939675 75.7595035,71.0809484 75.8588053,71.1931818 C76.3669511,71.7192761 77.1225756,72.5119248 78.1264546,73.5711279 L78.1916214,73.5711279 C78.2598914,72.9152637 78.2932506,71.7501403 78.2932506,70.0750561 C78.4049651,70.0413861 78.5166796,70.0245511 78.6283941,70.0245511 C78.7517455,70.0245511 78.8541505,70.0469978 78.9348332,70.0925926 C78.9348332,70.3893098 78.9425912,70.8354377 78.9581071,71.4288721 C78.973623,72.0223064 78.9813809,72.464927 78.9813809,72.7560325 C78.9813809,73.1474467 78.9751746,73.4364478 78.961986,73.6209315 C78.9379364,73.9863917 78.9255237,74.2410213 78.9255237,74.3855219 C78.9255237,74.6331369 78.9503491,74.8225309 79,74.957211 C78.9069046,74.9852694 78.7951901,75 78.6648565,75" id="Fill-72" fill="#28458C"></path>
                <path d="M85.9117791,70.6434532 L84.0820127,70.6434532 L84.0330011,70.7096515 L84.0330011,71.2524778 C84.0330011,72.5046714 84.0231988,73.2419118 84.004411,73.4648956 C84.004411,73.4983432 83.9905244,73.578478 83.9643849,73.7066937 C83.952132,73.8119142 83.9447803,73.8948363 83.9447803,73.9568537 C83.9447803,74.0516218 83.9553994,74.193774 83.9750041,74.3819167 C83.9937919,74.5721498 84.004411,74.7129083 84.004411,74.8083733 C84.004411,74.936589 83.899853,75 83.6907368,75 C83.6515275,75 83.5894462,74.9958191 83.5053096,74.9867603 C83.4203562,74.9797921 83.3550074,74.9749143 83.3092632,74.9749143 C83.2896586,74.9749143 83.2471818,74.983973 83.1826499,74.9993032 C83.2210423,74.2864517 83.240647,73.5847494 83.240647,72.8928027 C83.240647,72.2621765 83.2275772,71.7625533 83.2014377,71.3953268 C83.2014377,71.2615365 83.1851005,71.060851 83.1524261,70.7932704 C83.1197517,70.6866563 83.0160105,70.6336976 82.8395687,70.6336976 L82.6827316,70.6336976 C82.6108479,70.639969 82.5593857,70.6427563 82.5258945,70.6427563 C82.487502,70.6427563 82.4188858,70.6336976 82.3208626,70.6176707 C82.2236563,70.60025 82.0896912,70.5932818 81.9197843,70.5932818 C81.5154387,70.5932818 81.2091162,70.60025 81,70.6176707 L81,70.2915568 C81,70.0915682 81.081686,69.9940127 81.245058,70.0002841 C83.7038066,70.0609079 84.8490443,70.0908713 84.6791374,70.0908713 C84.9462506,70.0908713 85.3612155,70.0859936 85.9223983,70.0755412 C85.9746773,70.2978282 86,70.4204693 86,70.4420709 C86,70.5319612 85.970593,70.5981596 85.9117791,70.6434532" id="Fill-74" fill="#28458C"></path>
                <path d="M89.943,74.9313796 C89.863,74.9771265 89.783,75 89.704,75 C89.648,75 89.566,74.9899929 89.458,74.9699786 C89.35,74.9492495 89.273,74.9399571 89.225,74.9399571 C89.161,74.9399571 89.117,74.9463903 89.093,74.9563974 L89.033,74.9056469 C89.072,74.4546104 89.093,73.9149392 89.093,73.2866333 C89.093,73.0243031 89.085,72.6347391 89.068,72.1179414 C89.053,71.6018585 89.045,71.2158685 89.045,70.957827 C89.045,70.5582559 89.105,70.238742 89.225,70 C89.297,70.0328806 89.408,70.0507505 89.56,70.0507505 C89.752,70.0571837 89.879,70.0643317 89.943,70.0764832 C89.959,70.9320944 89.967,71.571837 89.967,71.9942816 L89.967,73.0307362 C89.967,73.4531808 89.959,74.0857756 89.943,74.9313796" id="Fill-76" fill="#28458C"></path>
                <path d="M96.1313529,70.2762693 L96.1313529,70.267445 C96.1869633,70.2728754 96.2742503,70.3163182 96.3925102,70.3977736 C96.4769816,70.4527559 96.560749,70.5084171 96.6452203,70.5688298 C96.6846403,70.5905512 96.7409545,70.6258485 96.814163,70.6740429 C96.892299,70.739886 96.9324229,70.8145534 96.9324229,70.9021178 C96.9324229,70.9408091 96.9232719,70.9747488 96.9070815,71.007331 L96.814163,71.0969318 C96.667746,71.2496606 96.5579333,71.3250068 96.4854287,71.3250068 C96.4790933,71.3250068 96.4706462,71.3222916 96.4600873,71.3161825 L96.4262987,71.3161825 C96.072223,71.099647 95.8159932,70.9557426 95.6590173,70.8858268 C95.3605519,70.7446375 95.0803886,70.6740429 94.8157117,70.6740429 C94.197663,70.6740429 93.6570463,70.858675 93.1966775,71.2265816 C93.1347318,71.2768124 93.0530762,71.3548737 92.9524145,71.4634809 C92.9355202,71.5008146 92.9045474,71.5578333 92.8601999,71.6331795 C92.6849219,72.0350258 92.5976348,72.3981808 92.5976348,72.7233234 C92.5976348,73.0701873 92.6905533,73.3681781 92.8763903,73.6172957 C92.9608616,73.655987 93.0615233,73.7401575 93.1804871,73.8698072 C93.298747,73.999457 93.3994087,74.0829487 93.4831761,74.12164 C93.8316204,74.2845506 94.2110376,74.3653272 94.6221315,74.3653272 C95.3133887,74.3653272 95.9293256,74.1732283 96.4685344,73.7883519 C96.4854287,73.794461 96.502323,73.7971762 96.5199212,73.7971762 C96.5480783,73.7971762 96.5860904,73.7856367 96.6332536,73.7645941 C96.6804167,73.7421939 96.716317,73.7313332 96.7388427,73.7313332 C96.7838941,73.7313332 96.814867,73.7510182 96.8310573,73.7883519 C96.9331268,73.8487646 96.9887372,73.9702688 97,74.1549009 C96.4326341,74.5553896 95.8554132,74.8201195 95.271153,74.9518056 C95.124736,74.9843877 95.0297058,75 94.9846544,75 C93.9674785,75 93.2396171,74.7834646 92.80107,74.3497149 C92.6940729,74.2465381 92.575813,74.0897366 92.4476982,73.8786316 C92.2949458,73.6342655 92.1879488,73.4720337 92.126707,73.3905783 C92.0415317,73.1353516 92,72.8808037 92,72.625577 C92,72.0621776 92.1823173,71.5143904 92.5476559,70.9835732 C92.6321273,70.8647841 92.7053358,70.7758621 92.7672814,70.7188433 C92.8292271,70.6618246 92.9242574,70.5959815 93.0537801,70.5199566 C93.660566,70.1730926 94.2821343,70 94.9170773,70 C95.2493313,70 95.5470928,70.0481944 95.8110657,70.1466196 C96.0468816,70.2335053 96.1531747,70.2762693 96.1313529,70.2762693" id="Fill-78" fill="#28458C"></path>
                <path d="M107.957633,74.1969825 C107.957633,74.2815849 107.960458,74.4077834 107.9654,74.5762831 L107.9654,74.9569938 C107.909617,74.9851946 107.839006,75 107.754272,75 C107.651885,75 107.526197,74.9739143 107.373676,74.9224478 L107.348962,74.8385505 C107.336252,74.8159898 107.329191,74.7941342 107.323542,74.7701636 L107.323542,74.5170615 L107.323542,74.2639594 C107.323542,74.0616187 107.319305,73.7591653 107.310832,73.357304 C107.301652,72.9540327 107.297416,72.6543993 107.297416,72.4569938 C107.297416,72.1862662 107.306595,71.9218838 107.323542,71.6624365 C107.311538,71.6180203 107.286118,71.5961647 107.247281,71.5961647 L107.212682,71.5961647 C107.072165,71.8612521 106.841265,72.2454879 106.519277,72.7523971 C106.491032,72.786238 106.45149,72.8391145 106.401356,72.9138466 C106.384409,72.9519177 106.358989,73.0111393 106.325095,73.0901015 C106.257308,73.2367456 106.116791,73.4813875 105.902839,73.8261421 C105.709363,74.1293006 105.575201,74.3767625 105.496822,74.5685279 C105.405734,74.4606599 105.318882,74.3147208 105.234148,74.1293006 C105.165655,73.9727862 105.098574,73.8141568 105.03008,73.6562324 C104.692558,72.9801184 104.343031,72.392132 103.982206,71.8908629 C103.903121,71.8683023 103.828979,71.8182459 103.762604,71.7392837 C103.7506,71.7956853 103.744951,71.8372814 103.744951,71.8654822 C103.744951,71.9176537 103.754131,71.9916808 103.769665,72.0903835 C103.788024,72.1883813 103.795085,72.2624083 103.795085,72.3138748 C103.795085,72.3082346 103.769665,73.1669487 103.719531,74.8886069 C103.634797,74.9351382 103.538766,74.9569938 103.432142,74.9569938 C103.353057,74.9569938 103.235136,74.9457135 103.076967,74.9231528 C103.026126,74.5128314 103,74.0320079 103,73.4792724 C103,73.2036097 103.009179,72.785533 103.026126,72.2250423 C103.043073,71.6652566 103.05084,71.2443598 103.05084,70.9623519 C103.05084,70.5569656 103.043073,70.250282 103.026126,70.0415962 C103.093913,70.0415962 103.192063,70.0387761 103.321988,70.034546 L103.609377,70.034546 C103.682107,70.034546 103.738596,70.0690919 103.778845,70.1388889 C103.818387,70.2093909 103.850869,70.2749577 103.876289,70.3341794 C103.901003,70.392696 103.953961,70.4871686 104.03234,70.6161873 C104.178506,70.858714 104.410818,71.2838409 104.726451,71.8908629 C105.018783,72.4372532 105.258862,72.857445 105.445276,73.1493232 C105.546251,73.1218274 105.664878,72.9864636 105.799746,72.7446418 C105.868239,72.6205584 106.130208,72.1862662 106.58777,71.4438804 C106.913289,70.9151156 107.153368,70.463903 107.305889,70.0923576 C107.362378,70.0310209 107.438639,70 107.53467,70 C107.573507,70 107.632114,70.0070502 107.707668,70.0204456 C107.783929,70.035251 107.84183,70.0415962 107.881373,70.0415962 L107.948454,70.0415962 C107.983053,70.2728426 108,70.5633108 108,70.9122955 C108,71.2774958 107.992939,71.8252961 107.978817,72.5549915 C107.964694,73.2832769 107.957633,73.8296672 107.957633,74.1969825" id="Fill-80" fill="#28458C"></path>
                <path d="M114.068844,72.0581897 C114.047161,71.9885057 114.011926,71.8829023 113.963139,71.7399425 C113.887248,71.5905172 113.778832,71.3663793 113.638569,71.0682471 C113.628405,71.0617816 113.611465,71.058908 113.589782,71.058908 C113.562678,71.058908 113.544383,71.0617816 113.532864,71.0682471 C113.49424,71.1602011 113.359398,71.420977 113.126982,71.8512931 C112.953517,72.1724138 112.851199,72.4475575 112.818675,72.6767241 C112.981298,72.6716954 113.200163,72.674569 113.475945,72.6853448 C113.795094,72.7018678 114.013959,72.7112069 114.133893,72.7112069 C114.214528,72.7112069 114.276867,72.7083333 114.319555,72.7018678 C114.29855,72.6400862 114.215205,72.424569 114.068844,72.0581897 M115.69237,75 L115.537878,75 L115.384063,75 C115.307494,74.8965517 115.232281,74.7327586 115.15639,74.5079023 C115.097439,74.3347701 115.04052,74.1587644 114.986313,73.9798851 C114.82911,73.5581897 114.585852,73.3477011 114.255184,73.3477011 L114.190812,73.3477011 C114.163708,73.3541667 114.141347,73.3570402 114.125085,73.3570402 C114.033609,73.3570402 113.892668,73.3498563 113.703618,73.3347701 C113.514568,73.3211207 113.370917,73.3132184 113.273343,73.3132184 C113.218458,73.3132184 113.139856,73.3225575 113.034829,73.3397989 C112.928446,73.3570402 112.854587,73.3649425 112.810543,73.3649425 C112.773276,73.3649425 112.726521,73.3570402 112.672313,73.3397989 C112.602521,73.3225575 112.557122,73.3132184 112.534083,73.3132184 C112.448028,73.4511494 112.299634,73.7320402 112.088223,74.1566092 C111.90866,74.5122126 111.746714,74.7852011 111.60103,74.9748563 C111.498035,74.9920977 111.395718,75 111.292723,75 C111.174143,75 111.076569,74.9748563 111,74.9224138 C111.336089,74.2061782 111.863261,73.1393678 112.583548,71.7212644 C112.626237,71.6479885 112.688576,71.5352011 112.769888,71.3857759 C112.802412,71.3060345 112.85391,71.1889368 112.923702,71.0337644 C112.994173,70.8778736 113.064643,70.7262931 113.135113,70.5775862 C113.221168,70.3936782 113.280797,70.2327586 113.313999,70.095546 C113.35601,70.0323276 113.421737,70 113.50847,70 C113.551159,70 113.61282,70.0086207 113.690744,70.0272989 C113.770023,70.0431034 113.827619,70.0524425 113.865564,70.0524425 L113.889958,70.0524425 C113.959751,70.183908 114.060035,70.3814655 114.190134,70.6451149 L114.352758,71.0761494 C114.535709,71.5646552 114.807426,72.2119253 115.164521,73.0215517 C115.580566,73.9561782 115.859737,74.5984195 116,74.9482759 C115.913945,74.983477 115.81095,75 115.69237,75" id="Fill-82" fill="#28458C"></path>
                <path d="M123.130649,70.2762693 L123.130649,70.267445 C123.186963,70.2728754 123.27425,70.3163182 123.39251,70.3977736 C123.476278,70.4527559 123.560749,70.5084171 123.64522,70.5688298 C123.68464,70.5905512 123.740955,70.6258485 123.814163,70.6740429 C123.892299,70.739886 123.931719,70.8145534 123.931719,70.9021178 C123.931719,70.9408091 123.923272,70.9747488 123.907082,71.007331 L123.814163,71.0969318 C123.667746,71.2496606 123.557229,71.3250068 123.485429,71.3250068 C123.479797,71.3250068 123.470646,71.3222916 123.460087,71.3161825 L123.426299,71.3161825 C123.071519,71.099647 122.815993,70.9557426 122.659017,70.8858268 C122.360552,70.7446375 122.079685,70.6740429 121.815712,70.6740429 C121.196959,70.6740429 120.657046,70.858675 120.196677,71.2265816 C120.134732,71.2768124 120.053076,71.3548737 119.952414,71.4634809 C119.934816,71.5008146 119.903843,71.5578333 119.859496,71.6331795 C119.684922,72.0350258 119.597635,72.3981808 119.597635,72.7233234 C119.597635,73.0701873 119.690553,73.3681781 119.875686,73.6172957 C119.960862,73.655987 120.062227,73.7401575 120.180487,73.8698072 C120.298747,73.999457 120.398705,74.0829487 120.483176,74.12164 C120.83162,74.2845506 121.211742,74.3653272 121.621428,74.3653272 C122.313389,74.3653272 122.928622,74.1732283 123.46783,73.7883519 C123.485429,73.794461 123.501619,73.7971762 123.519921,73.7971762 C123.548078,73.7971762 123.585386,73.7856367 123.633254,73.7645941 C123.680417,73.7421939 123.716317,73.7313332 123.738843,73.7313332 C123.78319,73.7313332 123.814163,73.7510182 123.831761,73.7883519 C123.932423,73.8487646 123.988737,73.9702688 124,74.1549009 C123.432634,74.5553896 122.856117,74.8201195 122.271153,74.9518056 C122.124736,74.9843877 122.03041,75 121.98395,75 C120.967479,75 120.239617,74.7834646 119.80107,74.3497149 C119.694073,74.2465381 119.575813,74.0897366 119.447698,73.8786316 C119.294946,73.6342655 119.188653,73.4720337 119.126707,73.3905783 C119.041532,73.1353516 119,72.8808037 119,72.625577 C119,72.0621776 119.183021,71.5143904 119.547656,70.9835732 C119.632127,70.8647841 119.705336,70.7758621 119.767281,70.7188433 C119.829227,70.6618246 119.924961,70.5959815 120.05378,70.5199566 C120.66127,70.1730926 121.282134,70 121.917077,70 C122.248627,70 122.547093,70.0481944 122.811066,70.1466196 C123.046882,70.2335053 123.152471,70.2762693 123.130649,70.2762693" id="Fill-84" fill="#28458C"></path>
                <path d="M129.067073,72.0581897 C129.04607,71.9885057 129.010163,71.8829023 128.96206,71.7399425 C128.886179,71.5905172 128.777778,71.3663793 128.637534,71.0682471 C128.626694,71.0617816 128.610434,71.058908 128.588753,71.058908 C128.560976,71.058908 128.542683,71.0617816 128.531843,71.0682471 C128.493902,71.1602011 128.358401,71.420977 128.125339,71.8512931 C127.952575,72.1724138 127.849593,72.4475575 127.817751,72.6767241 C127.980352,72.6716954 128.199187,72.674569 128.474932,72.6853448 C128.794038,72.7018678 129.012873,72.7112069 129.132791,72.7112069 C129.213415,72.7112069 129.275068,72.7083333 129.318428,72.7018678 C129.297425,72.6400862 129.213415,72.424569 129.067073,72.0581897 M130.690379,75 L130.535908,75 L130.381436,75 C130.306233,74.8965517 130.23103,74.7327586 130.153794,74.5079023 C130.094851,74.3347701 130.039295,74.1587644 129.984417,73.9798851 C129.827236,73.5581897 129.584011,73.3477011 129.253388,73.3477011 L129.189702,73.3477011 C129.162602,73.3541667 129.139566,73.3570402 129.123984,73.3570402 C129.031843,73.3570402 128.890921,73.3498563 128.701897,73.3347701 C128.512873,73.3211207 128.369919,73.3132184 128.27168,73.3132184 C128.21748,73.3132184 128.137534,73.3225575 128.03252,73.3397989 C127.926829,73.3570402 127.852304,73.3649425 127.809621,73.3649425 C127.77168,73.3649425 127.726287,73.3570402 127.671409,73.3397989 C127.600949,73.3225575 127.555556,73.3132184 127.533198,73.3132184 C127.446477,73.4511494 127.29878,73.7320402 127.086721,74.1566092 C126.908537,74.5122126 126.746612,74.7852011 126.599593,74.9748563 C126.497967,74.9920977 126.394309,75 126.291328,75 C126.173442,75 126.075203,74.9748563 126,74.9224138 C126.335366,74.2061782 126.861789,73.1393678 127.582656,71.7212644 C127.626016,71.6479885 127.687669,71.5352011 127.768293,71.3857759 C127.800813,71.3060345 127.852304,71.1889368 127.923442,71.0337644 C127.993225,70.8778736 128.064363,70.7262931 128.134146,70.5775862 C128.220867,70.3936782 128.280488,70.2327586 128.313008,70.095546 C128.355691,70.0323276 128.421409,70 128.507453,70 C128.550813,70 128.611111,70.0086207 128.689702,70.0272989 C128.768293,70.0431034 128.827236,70.0524425 128.864499,70.0524425 L128.889566,70.0524425 C128.95935,70.183908 129.058943,70.3814655 129.189702,70.6451149 L129.352304,71.0761494 C129.53523,71.5646552 129.806233,72.2119253 130.163279,73.0215517 C130.579946,73.9561782 130.859079,74.5984195 131,74.9482759 C130.912602,74.983477 130.808943,75 130.690379,75" id="Fill-86" fill="#28458C"></path>
                <path d="M137.980457,72.9195011 C137.980457,73.2142857 137.97733,73.3836451 137.970294,73.4297052 C137.964822,73.4743481 137.939024,73.5714286 137.896811,73.7188209 C137.752189,74.199263 137.512195,74.5223923 137.176048,74.6853741 C136.737492,74.8951247 136.141026,75 135.386648,75 C134.912133,75 134.620544,74.9879535 134.511101,74.9659864 C134.402439,74.942602 134.253127,74.8873299 134.066291,74.8001701 C133.879456,74.7108844 133.751251,74.6336451 133.682458,74.5649093 C133.637899,74.5316043 133.573014,74.4458617 133.48546,74.3098073 C133.174328,73.8215703 133.017198,73.1427154 133.017198,72.2746599 C133.017198,72.12089 133.021889,71.8912982 133.032051,71.5844671 C133.041432,71.2776361 133.046123,71.0452098 133.046123,70.8864796 C133.046123,70.573271 133.030488,70.3068311 133,70.085034 C133.074265,70.0283447 133.176673,70 133.307223,70 C133.38227,70 133.501876,70.0113379 133.664478,70.0340136 C133.707473,70.3578515 133.738743,70.9056122 133.758286,71.6780045 C133.758286,71.8608277 133.766104,72.1308107 133.785647,72.4893707 C133.797373,72.5559807 133.81379,72.6587302 133.83177,72.7947846 C133.838024,72.9712302 133.845059,73.1469671 133.852095,73.3234127 C133.876329,73.5282029 133.938868,73.6904762 134.038931,73.8095238 C134.207004,74.0079365 134.459506,74.1645408 134.797217,74.2772109 C135.090369,74.3799603 135.392902,74.4316893 135.705597,74.4316893 C136.161351,74.4316893 136.495153,74.3785431 136.707004,74.2694161 C136.794559,74.2247732 136.882114,74.1560374 136.969669,74.0660431 C137.169794,73.8626701 137.29409,73.5685941 137.344121,73.1838152 C137.362883,72.8663549 137.380863,72.5467687 137.400407,72.2250567 C137.412914,72.026644 137.419168,71.884212 137.419168,71.7998866 C137.419168,71.647534 137.377736,71.07072 137.297999,70.0687358 C137.484834,70.0226757 137.627892,70.0007086 137.728737,70.0007086 C137.78424,70.0007086 137.840525,70.009212 137.897592,70.0255102 C137.965604,70.4669785 138,71.0161565 138,71.6723356 C138,71.80839 137.996873,72.0153061 137.990619,72.2916667 C137.984365,72.5701531 137.980457,72.7784864 137.980457,72.9195011" id="Fill-88" fill="#28458C"></path>
            </g>
        </g>
    </g>
</svg>